<svg width="57" height="58" viewBox="0 0 57 58" fill="none" xmlns="http://www.w3.org/2000/svg">
<g clip-path="url(#clip0_0_12739)">
<path fill-rule="evenodd" clip-rule="evenodd" d="M10.6611 0C10.8021 0.0325104 10.9433 0.0639115 11.0845 0.095313C11.3917 0.163638 11.699 0.231965 12.0034 0.311726C13.5546 0.718202 14.7099 1.62265 15.2078 3.2113C15.7633 4.98393 16.2519 6.77922 16.736 8.57423C16.8955 9.16568 16.6184 9.61493 16.1359 9.7295C15.6728 9.83941 15.2642 9.52329 15.1129 8.93553C15.0133 8.54845 14.9146 8.1611 14.816 7.77375C14.5806 6.84954 14.3453 5.92532 14.0968 5.00475C14.034 4.77182 13.9424 4.54727 13.8508 4.3225L13.8508 4.32247L13.8508 4.32245L13.8508 4.32243C13.7863 4.16415 13.7217 4.00576 13.6671 3.84424C13.1978 2.45698 12.1143 1.96638 10.8151 1.79558C8.95212 1.5507 7.13529 1.87715 5.33717 2.31649C4.45812 2.53121 3.58738 2.78124 2.71664 3.03127L2.71663 3.03127C2.34565 3.1378 1.97467 3.24432 1.60305 3.34811C1.53734 3.36645 1.47241 3.38811 1.40749 3.40976C1.31444 3.44079 1.22143 3.47181 1.12626 3.493C0.61067 3.60772 0.180572 3.39188 0.0431186 2.95948C-0.103757 2.49735 0.129859 2.03125 0.663601 1.86823L0.997548 1.76613L0.997552 1.76613L0.997563 1.76612L0.997564 1.76612C2.12183 1.42212 3.24764 1.07765 4.3894 0.807287C5.21786 0.611138 6.05754 0.464877 6.89727 0.318605C7.29263 0.249738 7.688 0.180868 8.08223 0.106788C8.16603 0.0910464 8.24778 0.0639115 8.32949 0.0367898L8.32949 0.0367887C8.3676 0.0241369 8.40571 0.0114881 8.44401 0H10.6611ZM51.0035 45.7273C51.4834 47.4964 52.9794 48.6792 54.9897 48.8969C55.086 48.9073 55.1828 48.9126 55.2796 48.9178L55.2804 48.9179H55.2804H55.2805C55.3308 48.9206 55.3812 48.9234 55.4315 48.9269C56.0182 48.9674 56.3449 49.2701 56.3423 49.7701C56.3397 50.2629 55.9887 50.6529 55.426 50.6062C54.6606 50.5426 53.8693 50.4647 53.1514 50.2095C51.385 49.5815 50.149 48.3315 49.4912 46.5275C49.3758 46.211 49.218 46.1209 48.8994 46.0883C47.2115 45.9158 45.8883 44.7633 45.49 43.0745C44.9366 40.729 44.4179 38.3745 43.9134 36.0174C43.8081 35.5258 43.6262 35.3316 43.1114 35.3735C42.6023 35.4152 42.0664 35.4065 41.5724 35.2881C40.3587 34.9974 39.615 33.8776 39.6924 32.5806C39.7646 31.3735 40.6479 30.4107 41.8584 30.2223C42.006 30.1993 42.1541 30.1801 42.3019 30.1608L42.3019 30.1608L42.302 30.1608L42.302 30.1608C42.3718 30.1518 42.4414 30.1427 42.5109 30.1332C42.4589 29.342 42.3079 29.1876 41.5386 29.1869C39.8876 29.1855 38.2366 29.1858 36.5856 29.1861H36.5829C34.2816 29.1866 31.9803 29.1871 29.6791 29.1828C27.8621 29.1794 26.9371 28.2118 26.9279 26.3391C26.9272 26.192 26.9274 26.0448 26.9276 25.881V25.8801L26.9278 25.6185C26.7138 25.6185 26.5068 25.6194 26.3045 25.6202H26.304H26.3038C25.8694 25.622 25.4569 25.6236 25.0444 25.6167C24.0658 25.6001 23.4399 24.9959 23.4309 23.9935C23.4122 21.9356 23.4143 19.8772 23.4341 17.8193C23.444 16.7806 24.0534 16.1981 25.0845 16.1802C25.4916 16.1731 25.8988 16.175 26.2944 16.1768H26.2949H26.2954C26.4699 16.1776 26.6422 16.1784 26.8113 16.1784C26.832 16.1459 26.8496 16.1216 26.8638 16.1021L26.8638 16.1021L26.8639 16.102L26.8639 16.102C26.8868 16.0705 26.9004 16.0517 26.903 16.0315C27.1347 14.2164 27.6669 13.6225 29.4549 13.3295C31.0956 13.0607 32.7417 12.8262 34.3877 12.5918L34.3878 12.5918L34.3879 12.5918L34.3879 12.5918L35.1521 12.4828C35.7711 12.3943 36.2048 12.7011 36.2635 13.2223C36.3198 13.72 35.9922 14.0787 35.3816 14.1698C34.6552 14.2781 33.9286 14.3847 33.2019 14.4913L33.2015 14.4914C31.9555 14.6742 30.7095 14.857 29.4649 15.0483C28.7492 15.1584 28.5926 15.3753 28.5921 16.1602C28.5894 19.5589 28.5894 22.9576 28.5922 26.3563C28.5929 27.2675 28.8011 27.4756 29.7208 27.4768C31.776 27.4796 33.8312 27.4806 35.8863 27.4816C37.655 27.4824 39.4237 27.4832 41.1923 27.4852C43.1872 27.4875 43.8159 28.0145 44.2528 29.9837C44.8018 32.4585 45.3575 34.9318 45.9246 37.4557C46.162 38.5125 46.4015 39.5782 46.6432 40.6566C46.774 40.5128 46.9059 40.3808 47.0332 40.2533C47.2978 39.9884 47.5427 39.7433 47.717 39.4537C48.4772 38.1903 49.1838 36.8925 49.8895 35.5956C49.9752 35.438 49.9734 35.1934 49.9331 35.0071C49.865 34.6925 49.7972 34.3778 49.7295 34.063L49.7293 34.0619L49.729 34.0608L49.7288 34.0597L49.7287 34.0595C49.4084 32.5709 49.088 31.0821 48.7224 29.6051C48.3536 28.116 48.6506 26.8647 49.7143 25.7681C50.5892 24.8661 51.4428 23.9425 52.2964 23.0189C52.5846 22.7071 52.8728 22.3952 53.1619 22.0842C53.7247 21.4786 53.7267 21.2224 53.1806 20.5883C51.4838 18.6177 49.7459 16.6938 47.7733 14.9953C46.5117 13.909 45.0552 13.6078 43.4937 13.6264C42.5228 13.6379 41.5522 13.6836 40.5816 13.7292C40.1504 13.7495 39.7193 13.7698 39.2881 13.7871C39.2328 13.7893 39.1774 13.793 39.122 13.7968C38.9925 13.8054 38.8629 13.8141 38.7349 13.8035C38.246 13.763 37.9195 13.4258 37.9292 12.9681C37.9396 12.478 38.2124 12.1581 38.6708 12.1363C39.7217 12.0862 40.7733 12.0526 41.825 12.019C42.5624 11.9955 43.2998 11.9719 44.0369 11.9427C46.7641 11.8345 48.7086 13.3822 50.4919 15.1902C51.9067 16.6245 53.25 18.1351 54.5804 19.6528C55.5366 20.7437 55.4811 22.0383 54.496 23.1142C53.2842 24.4376 52.0646 25.7539 50.8259 27.0508C50.2812 27.621 50.131 28.2375 50.3068 29.0111C50.9463 31.8249 51.5726 34.6418 52.1989 37.4587L52.1997 37.4622L52.2005 37.4657L52.2012 37.4692C52.4407 38.546 52.6801 39.6228 52.9202 40.6995C53.4436 43.0454 52.9662 44.3152 51.0035 45.7273ZM50.6272 38.0709C49.6787 39.8129 48.5952 41.2274 47.2194 42.4005C47.1304 42.4762 47.1346 42.7467 47.1831 42.8972C47.5264 43.9629 48.6855 44.609 49.7411 44.3448C50.9297 44.0472 51.6657 42.9455 51.4343 41.693C51.287 40.8964 51.1016 40.107 50.904 39.2657L50.9039 39.2651C50.8134 38.8798 50.7203 38.4836 50.6272 38.0709ZM26.8956 23.8884V17.923H25.1305V23.8884H26.8956ZM43.3546 33.6636C43.3274 33.5322 43.3019 33.408 43.2775 33.2889L43.2772 33.2878C43.2277 33.0462 43.1823 32.8249 43.1347 32.6041C42.9658 31.8196 42.7552 31.6961 41.9921 31.9318C41.5415 32.071 41.3226 32.387 41.3579 32.862C41.3913 33.3128 41.6463 33.6074 42.0827 33.6544C42.3554 33.6839 42.6319 33.6773 42.9292 33.6703H42.9293C43.0661 33.667 43.2073 33.6636 43.3546 33.6636ZM4.80114 16.9978C4.85387 16.9616 4.90854 16.924 4.96573 16.8839C4.95009 17.1159 4.93191 17.3425 4.91403 17.5655L4.91402 17.5656C4.87625 18.0363 4.83978 18.4909 4.83132 18.9462C4.77534 22.0219 5.69886 24.8555 6.95548 27.5921C7.2706 28.2782 7.61331 28.9524 7.95589 29.6264C8.49033 30.6778 9.02446 31.7286 9.45306 32.8233C10.8315 36.3439 11.5334 40.0481 11.9608 43.808C12.0129 44.2668 11.8927 44.6213 11.6308 45.0044C10.5622 46.5675 10.1177 48.3033 10.429 50.2054C10.7385 52.0975 11.7942 53.2573 13.473 53.5609L13.6444 53.5921C14.1328 53.6812 14.6234 53.7708 15.1164 53.8031C18.0633 53.9964 20.9234 54.5923 23.7062 55.6096C25.8243 56.3839 27.9576 57.115 30.0919 57.8415C31.7142 58.3937 33.1707 57.4581 33.3509 55.7468C33.4559 54.7495 32.9611 54.0284 32.2214 53.432C30.883 52.3529 29.5471 51.2706 28.2112 50.1882L28.2102 50.1874L28.2092 50.1865C26.217 48.5725 24.2249 46.9584 22.2245 45.3552C20.8028 44.2158 20.123 42.7614 20.0698 40.9164C19.9877 38.0678 19.8876 35.2165 19.6753 32.3757C19.3887 28.5383 19.0396 24.704 18.6198 20.8794C18.3882 18.7694 18.0761 16.6685 17.764 14.5678L17.7639 14.5672C17.6521 13.8144 17.5403 13.0617 17.4322 12.3086C17.3431 11.6881 16.9634 11.3751 16.475 11.4484C15.9853 11.5221 15.7163 11.9648 15.7917 12.5547C15.9605 13.8767 16.1405 15.1976 16.3204 16.5185C16.7337 19.5516 17.147 22.5848 17.4247 25.6308C17.8853 30.6831 18.1575 35.7561 18.395 40.8259C18.511 43.2992 19.3823 45.2576 21.2875 46.7797C23.4525 48.5092 25.607 50.2524 27.7615 51.9956L27.7616 51.9957L27.7617 51.9958C28.8941 52.9121 30.0266 53.8284 31.1606 54.7427C31.5428 55.0507 31.9058 55.3707 31.601 55.9188C31.2996 56.4605 30.8383 56.3187 30.3822 56.154C30.1018 56.0527 29.822 55.9497 29.5421 55.8468L29.5413 55.8465L29.5412 55.8464L29.5411 55.8464C28.7627 55.56 27.9841 55.2735 27.1947 55.0232C26.5819 54.829 25.9701 54.6304 25.3581 54.4317L25.3574 54.4314L25.3573 54.4314L25.3573 54.4314C23.4038 53.7971 21.4496 53.1626 19.4621 52.6709C18.2657 52.375 17.0301 52.246 15.7941 52.117C15.1886 52.0539 14.5831 51.9907 13.982 51.9078C12.8542 51.7524 12.3263 51.2379 12.1024 50.0877C11.8 48.5348 12.1358 47.1001 13.0814 45.8764C13.5922 45.2155 13.7216 44.5397 13.6166 43.7711C13.5734 43.4549 13.5316 43.1384 13.4897 42.8219C13.3389 41.6803 13.188 40.5381 12.9721 39.4093C12.2763 35.7703 11.2753 32.2423 9.51527 28.9534C8.64358 27.3245 7.93428 25.587 7.3174 23.8375C6.31574 20.9967 6.10304 18.0967 7.18604 15.2008C7.35689 14.7437 7.40677 14.3011 6.97197 13.9755C6.53674 13.6498 6.1435 13.8417 5.76176 14.1342C4.83549 14.844 3.90586 15.5493 2.97624 16.2546L2.97529 16.2553C2.57078 16.5622 2.16626 16.8691 1.76203 17.1764C1.63092 17.276 1.49905 17.3748 1.36717 17.4735C1.03713 17.7206 0.70703 17.9678 0.388742 18.2298C-0.0299922 18.5745 -0.10731 19.0446 0.154018 19.4266C0.425877 19.8238 0.928165 19.9081 1.38015 19.5744C2.08997 19.0506 2.79127 18.5148 3.49257 17.979L3.49289 17.9788L3.49302 17.9787C3.82695 17.7236 4.16087 17.4684 4.49572 17.2146C4.59255 17.1412 4.69269 17.0723 4.80105 16.9979L4.80111 16.9978L4.80114 16.9978ZM43.2326 17.442C43.2647 17.4733 43.3123 17.5091 43.3666 17.5501C43.5125 17.66 43.707 17.8066 43.7815 18.0011C44.3449 19.4734 44.8667 20.9627 45.3724 22.4569C45.542 22.9577 45.2935 23.4087 44.8585 23.5493C44.4309 23.6875 44.0032 23.5027 43.8282 23.0249C43.2858 21.5441 42.7525 20.0591 42.257 18.5616C42.0511 17.9391 42.4481 17.4229 43.2326 17.442ZM38.7227 17.5481C38.6685 17.5072 38.6209 17.4713 38.5888 17.44C37.7853 17.4244 37.3973 17.9619 37.6177 18.6187C38.1132 20.0962 38.6435 21.5619 39.1854 23.0224C39.3701 23.5203 39.8345 23.7047 40.2676 23.5276C40.6751 23.3611 40.887 22.9353 40.7232 22.4539C40.2152 20.9609 39.6977 19.4704 39.1361 17.998C39.0621 17.804 38.8683 17.6578 38.7227 17.5481Z" fill="url(#paint0_linear_0_12739)"/>
</g>
<defs>
<linearGradient id="paint0_linear_0_12739" x1="-3.14837e-07" y1="29.0001" x2="56.3423" y2="29.0001" gradientUnits="userSpaceOnUse">
<stop stop-color="#E86AAD"/>
<stop offset="1" stop-color="#5CBAFE"/>
</linearGradient>
<clipPath id="clip0_0_12739">
<rect width="56.3429" height="58" fill="white"/>
</clipPath>
</defs>
</svg>
