<svg width="58" height="58" viewBox="0 0 58 58" fill="none" xmlns="http://www.w3.org/2000/svg">
<mask id="path-1-inside-1_2201_1779" fill="white">
<path fill-rule="evenodd" clip-rule="evenodd" d="M30.6992 1.69922V8.60938C30.6992 9.5478 29.9384 10.3086 29 10.3086C28.0616 10.3086 27.3008 9.5478 27.3008 8.60938V1.69922C27.3008 0.760797 28.0616 0 29 0C29.9384 0 30.6992 0.760797 30.6992 1.69922ZM5.17544 5.17562C5.83904 4.51202 6.91498 4.51202 7.57847 5.17562L15.783 13.3801C16.4466 14.0437 16.4466 15.1196 15.783 15.7832C15.1194 16.4469 14.0434 16.4468 13.3799 15.7832L5.17544 7.57866C4.51183 6.91505 4.51183 5.83922 5.17544 5.17562ZM13.707 29C13.707 37.4325 20.5675 44.293 29 44.293C37.4325 44.293 44.293 37.4325 44.293 29C44.293 20.5675 37.4325 13.707 29 13.707C20.5675 13.707 13.707 20.5675 13.707 29ZM29 17.1055C35.5586 17.1055 40.8945 22.4414 40.8945 29C40.8945 35.5586 35.5586 40.8945 29 40.8945C22.4414 40.8945 17.1055 35.5586 17.1055 29C17.1055 22.4414 22.4414 17.1055 29 17.1055ZM42.2174 42.2168C41.5538 42.8804 41.5538 43.9563 42.2174 44.6199L50.4219 52.8244C51.0854 53.488 52.1614 53.4881 52.825 52.8244C53.4886 52.1608 53.4886 51.085 52.825 50.4214L44.6205 42.2168C43.9569 41.5531 42.8809 41.5531 42.2174 42.2168ZM5.17544 52.8244C5.83892 53.488 6.91487 53.4881 7.57847 52.8244L15.783 44.6199C16.4466 43.9563 16.4466 42.8805 15.783 42.2169C15.1195 41.5533 14.0435 41.5533 13.3799 42.2169L5.17544 50.4214C4.51183 51.085 4.51183 52.1608 5.17544 52.8244ZM50.4219 5.17562C51.0855 4.51202 52.1615 4.51202 52.825 5.17562C53.4886 5.83922 53.4886 6.91505 52.825 7.57866L44.6205 15.7832C43.9569 16.4469 42.8809 16.4468 42.2174 15.7832C41.5538 15.1196 41.5538 14.0437 42.2174 13.3801L50.4219 5.17562ZM36.1529 46.2686C35.2859 46.6277 34.8742 47.6217 35.2333 48.4888L36.5338 51.6285C36.8924 52.4942 37.8857 52.9078 38.754 52.5481C39.621 52.189 40.0327 51.195 39.6736 50.3279L38.3731 47.1882C38.0139 46.3212 37.02 45.9096 36.1529 46.2686ZM21.4659 6.3715L22.7664 9.5112C23.1255 10.3783 22.7138 11.3723 21.8467 11.7314C20.9784 12.0911 19.9853 11.6775 19.6265 10.8118L18.3261 7.67208C17.967 6.80502 18.3786 5.81098 19.2457 5.45188C20.1127 5.09289 21.1067 5.50444 21.4659 6.3715ZM9.51137 35.2332L6.37167 36.5337C5.50461 36.8928 5.09295 37.8868 5.45205 38.7539C5.8107 39.6196 6.80395 40.0331 7.67225 39.6735L10.812 38.373C11.679 38.0139 12.0907 37.0199 11.7316 36.1528C11.3725 35.2859 10.3785 34.8743 9.51137 35.2332ZM51.6293 21.4663L48.4896 22.7668C47.6213 23.1263 46.6281 22.7129 46.2694 21.8472C45.9103 20.9801 46.322 19.9861 47.189 19.627L50.3288 18.3265C51.1959 17.9675 52.1899 18.3791 52.549 19.2461C52.9081 20.1132 52.4964 21.1072 51.6293 21.4663ZM19.6265 47.1882L18.3261 50.3279C17.967 51.195 18.3786 52.1889 19.2457 52.5481C20.1163 52.9086 21.1081 52.492 21.4659 51.6285L22.7664 48.4888C23.1255 47.6217 22.7138 46.6278 21.8467 46.2686C20.9796 45.9096 19.9856 46.3212 19.6265 47.1882ZM39.6736 7.67208L38.3731 10.8118C38.0155 11.6753 37.0235 12.0919 36.1529 11.7314C35.2859 11.3722 34.8742 10.3783 35.2333 9.5112L36.5338 6.3715C36.893 5.50444 37.8869 5.09289 38.754 5.45188C39.621 5.81109 40.0327 6.80502 39.6736 7.67208ZM10.812 19.627L7.67225 18.3265C6.80519 17.9674 5.81126 18.3791 5.45205 19.2461C5.09295 20.1132 5.50461 21.1071 6.37167 21.4663L9.51137 22.7668C10.3819 23.1272 11.3738 22.7107 11.7316 21.8472C12.0907 20.9801 11.679 19.9861 10.812 19.627ZM48.4896 35.2333L51.6293 36.5338C52.4964 36.8929 52.9081 37.8869 52.549 38.754C52.1912 39.6175 51.1993 40.0341 50.3288 39.6736L47.189 38.3731C46.322 38.0139 45.9103 37.02 46.2694 36.1529C46.6286 35.2859 47.6226 34.8743 48.4896 35.2333ZM27.3008 49.3906V56.3008C27.3008 57.2392 28.0616 58 29 58C29.9384 58 30.6992 57.2392 30.6992 56.3008V49.3906C30.6992 48.4522 29.9384 47.6914 29 47.6914C28.0616 47.6914 27.3008 48.4522 27.3008 49.3906ZM0 29C0 29.9384 0.760797 30.6992 1.69922 30.6992H8.60938C9.5478 30.6992 10.3086 29.9384 10.3086 29C10.3086 28.0616 9.5478 27.3008 8.60938 27.3008H1.69922C0.760797 27.3008 0 28.0616 0 29ZM49.3906 27.3008H56.3008C57.2392 27.3008 58 28.0616 58 29C58 29.9384 57.2392 30.6992 56.3008 30.6992H49.3906C48.4522 30.6992 47.6914 29.9384 47.6914 29C47.6914 28.0616 48.4522 27.3008 49.3906 27.3008Z"/>
</mask>
<path fill-rule="evenodd" clip-rule="evenodd" d="M30.6992 1.69922V8.60938C30.6992 9.5478 29.9384 10.3086 29 10.3086C28.0616 10.3086 27.3008 9.5478 27.3008 8.60938V1.69922C27.3008 0.760797 28.0616 0 29 0C29.9384 0 30.6992 0.760797 30.6992 1.69922ZM5.17544 5.17562C5.83904 4.51202 6.91498 4.51202 7.57847 5.17562L15.783 13.3801C16.4466 14.0437 16.4466 15.1196 15.783 15.7832C15.1194 16.4469 14.0434 16.4468 13.3799 15.7832L5.17544 7.57866C4.51183 6.91505 4.51183 5.83922 5.17544 5.17562ZM13.707 29C13.707 37.4325 20.5675 44.293 29 44.293C37.4325 44.293 44.293 37.4325 44.293 29C44.293 20.5675 37.4325 13.707 29 13.707C20.5675 13.707 13.707 20.5675 13.707 29ZM29 17.1055C35.5586 17.1055 40.8945 22.4414 40.8945 29C40.8945 35.5586 35.5586 40.8945 29 40.8945C22.4414 40.8945 17.1055 35.5586 17.1055 29C17.1055 22.4414 22.4414 17.1055 29 17.1055ZM42.2174 42.2168C41.5538 42.8804 41.5538 43.9563 42.2174 44.6199L50.4219 52.8244C51.0854 53.488 52.1614 53.4881 52.825 52.8244C53.4886 52.1608 53.4886 51.085 52.825 50.4214L44.6205 42.2168C43.9569 41.5531 42.8809 41.5531 42.2174 42.2168ZM5.17544 52.8244C5.83892 53.488 6.91487 53.4881 7.57847 52.8244L15.783 44.6199C16.4466 43.9563 16.4466 42.8805 15.783 42.2169C15.1195 41.5533 14.0435 41.5533 13.3799 42.2169L5.17544 50.4214C4.51183 51.085 4.51183 52.1608 5.17544 52.8244ZM50.4219 5.17562C51.0855 4.51202 52.1615 4.51202 52.825 5.17562C53.4886 5.83922 53.4886 6.91505 52.825 7.57866L44.6205 15.7832C43.9569 16.4469 42.8809 16.4468 42.2174 15.7832C41.5538 15.1196 41.5538 14.0437 42.2174 13.3801L50.4219 5.17562ZM36.1529 46.2686C35.2859 46.6277 34.8742 47.6217 35.2333 48.4888L36.5338 51.6285C36.8924 52.4942 37.8857 52.9078 38.754 52.5481C39.621 52.189 40.0327 51.195 39.6736 50.3279L38.3731 47.1882C38.0139 46.3212 37.02 45.9096 36.1529 46.2686ZM21.4659 6.3715L22.7664 9.5112C23.1255 10.3783 22.7138 11.3723 21.8467 11.7314C20.9784 12.0911 19.9853 11.6775 19.6265 10.8118L18.3261 7.67208C17.967 6.80502 18.3786 5.81098 19.2457 5.45188C20.1127 5.09289 21.1067 5.50444 21.4659 6.3715ZM9.51137 35.2332L6.37167 36.5337C5.50461 36.8928 5.09295 37.8868 5.45205 38.7539C5.8107 39.6196 6.80395 40.0331 7.67225 39.6735L10.812 38.373C11.679 38.0139 12.0907 37.0199 11.7316 36.1528C11.3725 35.2859 10.3785 34.8743 9.51137 35.2332ZM51.6293 21.4663L48.4896 22.7668C47.6213 23.1263 46.6281 22.7129 46.2694 21.8472C45.9103 20.9801 46.322 19.9861 47.189 19.627L50.3288 18.3265C51.1959 17.9675 52.1899 18.3791 52.549 19.2461C52.9081 20.1132 52.4964 21.1072 51.6293 21.4663ZM19.6265 47.1882L18.3261 50.3279C17.967 51.195 18.3786 52.1889 19.2457 52.5481C20.1163 52.9086 21.1081 52.492 21.4659 51.6285L22.7664 48.4888C23.1255 47.6217 22.7138 46.6278 21.8467 46.2686C20.9796 45.9096 19.9856 46.3212 19.6265 47.1882ZM39.6736 7.67208L38.3731 10.8118C38.0155 11.6753 37.0235 12.0919 36.1529 11.7314C35.2859 11.3722 34.8742 10.3783 35.2333 9.5112L36.5338 6.3715C36.893 5.50444 37.8869 5.09289 38.754 5.45188C39.621 5.81109 40.0327 6.80502 39.6736 7.67208ZM10.812 19.627L7.67225 18.3265C6.80519 17.9674 5.81126 18.3791 5.45205 19.2461C5.09295 20.1132 5.50461 21.1071 6.37167 21.4663L9.51137 22.7668C10.3819 23.1272 11.3738 22.7107 11.7316 21.8472C12.0907 20.9801 11.679 19.9861 10.812 19.627ZM48.4896 35.2333L51.6293 36.5338C52.4964 36.8929 52.9081 37.8869 52.549 38.754C52.1912 39.6175 51.1993 40.0341 50.3288 39.6736L47.189 38.3731C46.322 38.0139 45.9103 37.02 46.2694 36.1529C46.6286 35.2859 47.6226 34.8743 48.4896 35.2333ZM27.3008 49.3906V56.3008C27.3008 57.2392 28.0616 58 29 58C29.9384 58 30.6992 57.2392 30.6992 56.3008V49.3906C30.6992 48.4522 29.9384 47.6914 29 47.6914C28.0616 47.6914 27.3008 48.4522 27.3008 49.3906ZM0 29C0 29.9384 0.760797 30.6992 1.69922 30.6992H8.60938C9.5478 30.6992 10.3086 29.9384 10.3086 29C10.3086 28.0616 9.5478 27.3008 8.60938 27.3008H1.69922C0.760797 27.3008 0 28.0616 0 29ZM49.3906 27.3008H56.3008C57.2392 27.3008 58 28.0616 58 29C58 29.9384 57.2392 30.6992 56.3008 30.6992H49.3906C48.4522 30.6992 47.6914 29.9384 47.6914 29C47.6914 28.0616 48.4522 27.3008 49.3906 27.3008Z" fill="url(#paint0_linear_2201_1779)"/>
<path d="M7.57847 5.17562L7.2956 5.45844L7.29563 5.45846L7.57847 5.17562ZM5.17544 5.17562L5.45828 5.45846L5.45828 5.45846L5.17544 5.17562ZM15.783 13.3801L15.5001 13.663L15.5001 13.663L15.783 13.3801ZM15.783 15.7832L15.5001 15.5003L15.5001 15.5003L15.783 15.7832ZM13.3799 15.7832L13.6628 15.5003L13.6628 15.5003L13.3799 15.7832ZM5.17544 7.57866L4.89259 7.8615L4.89259 7.8615L5.17544 7.57866ZM42.2174 44.6199L42.5003 44.337L42.5003 44.337L42.2174 44.6199ZM42.2174 42.2168L42.5003 42.4997L42.5003 42.4996L42.2174 42.2168ZM50.4219 52.8244L50.7048 52.5416L50.7048 52.5415L50.4219 52.8244ZM52.825 52.8244L52.5421 52.5415L52.5421 52.5416L52.825 52.8244ZM52.825 50.4214L53.1078 50.1385L53.1078 50.1385L52.825 50.4214ZM44.6205 42.2168L44.3376 42.4997L44.3376 42.4997L44.6205 42.2168ZM7.57847 52.8244L7.29563 52.5416L7.29561 52.5416L7.57847 52.8244ZM5.17544 52.8244L5.4583 52.5416L5.45828 52.5416L5.17544 52.8244ZM15.783 44.6199L15.5001 44.3371L15.5001 44.3371L15.783 44.6199ZM15.783 42.2169L15.5001 42.4997L15.5001 42.4997L15.783 42.2169ZM13.3799 42.2169L13.6628 42.4997L13.6628 42.4997L13.3799 42.2169ZM5.17544 50.4214L4.89259 50.1385L4.89259 50.1385L5.17544 50.4214ZM52.825 5.17562L52.5421 5.45844L52.5421 5.45846L52.825 5.17562ZM50.4219 5.17562L50.7048 5.45846L50.7048 5.45846L50.4219 5.17562ZM52.825 7.57866L53.1078 7.8615L53.1078 7.8615L52.825 7.57866ZM44.6205 15.7832L44.3376 15.5003L44.3376 15.5003L44.6205 15.7832ZM42.2174 15.7832L42.5003 15.5003L42.5003 15.5003L42.2174 15.7832ZM42.2174 13.3801L42.5003 13.663L42.5003 13.663L42.2174 13.3801ZM35.2333 48.4888L34.8637 48.6418L34.8637 48.6419L35.2333 48.4888ZM36.1529 46.2686L35.9999 45.899L35.9999 45.899L36.1529 46.2686ZM36.5338 51.6285L36.1642 51.7816L36.1642 51.7816L36.5338 51.6285ZM38.754 52.5481L38.6009 52.1785L38.6009 52.1785L38.754 52.5481ZM39.6736 50.3279L40.0431 50.1748L40.0431 50.1748L39.6736 50.3279ZM38.3731 47.1882L38.7427 47.0351L38.7427 47.0351L38.3731 47.1882ZM22.7664 9.5112L23.1359 9.35814L23.1359 9.35813L22.7664 9.5112ZM21.4659 6.3715L21.8354 6.21843L21.8354 6.2184L21.4659 6.3715ZM21.8467 11.7314L21.6937 11.3618L21.6937 11.3619L21.8467 11.7314ZM19.6265 10.8118L19.257 10.9649L19.257 10.9649L19.6265 10.8118ZM18.3261 7.67208L17.9565 7.82514L17.9565 7.82515L18.3261 7.67208ZM19.2457 5.45188L19.0927 5.0823L19.0926 5.08232L19.2457 5.45188ZM6.37167 36.5337L6.52472 36.9032L6.52473 36.9032L6.37167 36.5337ZM9.51137 35.2332L9.35841 34.8636L9.3583 34.8636L9.51137 35.2332ZM5.45205 38.7539L5.08249 38.9069L5.08251 38.907L5.45205 38.7539ZM7.67225 39.6735L7.51918 39.3039L7.51917 39.3039L7.67225 39.6735ZM10.812 38.373L10.6589 38.0035L10.6589 38.0035L10.812 38.373ZM11.7316 36.1528L12.1011 35.9997L12.1011 35.9997L11.7316 36.1528ZM48.4896 22.7668L48.6427 23.1364L48.6427 23.1363L48.4896 22.7668ZM51.6293 21.4663L51.4763 21.0968L51.4763 21.0968L51.6293 21.4663ZM46.2694 21.8472L45.8999 22.0002L45.8999 22.0003L46.2694 21.8472ZM47.189 19.627L47.3421 19.9965L47.3421 19.9965L47.189 19.627ZM50.3288 18.3265L50.1758 17.9569L50.1757 17.957L50.3288 18.3265ZM52.549 19.2461L52.1794 19.3992L52.1794 19.3992L52.549 19.2461ZM18.3261 50.3279L17.9565 50.1748L17.9565 50.1749L18.3261 50.3279ZM19.6265 47.1882L19.9961 47.3413L19.9961 47.3413L19.6265 47.1882ZM19.2457 52.5481L19.0926 52.9177L19.0927 52.9177L19.2457 52.5481ZM21.4659 51.6285L21.8354 51.7816L21.8354 51.7816L21.4659 51.6285ZM22.7664 48.4888L23.1359 48.6419L23.1359 48.6418L22.7664 48.4888ZM21.8467 46.2686L21.9998 45.899L21.9997 45.899L21.8467 46.2686ZM38.3731 10.8118L38.0036 10.6587L38.0036 10.6587L38.3731 10.8118ZM39.6736 7.67208L40.0431 7.82515L40.0431 7.82514L39.6736 7.67208ZM36.1529 11.7314L35.9998 12.1009L35.9999 12.101L36.1529 11.7314ZM35.2333 9.5112L34.8637 9.35813L34.8637 9.35814L35.2333 9.5112ZM36.5338 6.3715L36.1642 6.2184L36.1642 6.21843L36.5338 6.3715ZM38.754 5.45188L38.9071 5.08234L38.907 5.0823L38.754 5.45188ZM7.67225 18.3265L7.82532 17.9569L7.82531 17.9569L7.67225 18.3265ZM10.812 19.627L10.6589 19.9965L10.6589 19.9965L10.812 19.627ZM5.45205 19.2461L5.08251 19.093L5.08249 19.0931L5.45205 19.2461ZM6.37167 21.4663L6.21857 21.8359L6.2186 21.8359L6.37167 21.4663ZM9.51137 22.7668L9.3583 23.1363L9.35835 23.1363L9.51137 22.7668ZM11.7316 21.8472L12.1011 22.0003L12.1011 22.0002L11.7316 21.8472ZM51.6293 36.5338L51.4763 36.9033L51.4763 36.9033L51.6293 36.5338ZM48.4896 35.2333L48.6427 34.8638L48.6426 34.8637L48.4896 35.2333ZM52.549 38.754L52.9185 38.9071L52.9185 38.907L52.549 38.754ZM50.3288 39.6736L50.1757 40.0432L50.1757 40.0432L50.3288 39.6736ZM47.189 38.3731L47.036 38.7427L47.036 38.7427L47.189 38.3731ZM46.2694 36.1529L45.8999 35.9998L45.8999 35.9999L46.2694 36.1529ZM31.0992 8.60938V1.69922H30.2992V8.60938H31.0992ZM29 10.7086C30.1593 10.7086 31.0992 9.76871 31.0992 8.60938H30.2992C30.2992 9.32688 29.7175 9.90859 29 9.90859V10.7086ZM26.9008 8.60938C26.9008 9.76871 27.8407 10.7086 29 10.7086V9.90859C28.2825 9.90859 27.7008 9.32688 27.7008 8.60938H26.9008ZM26.9008 1.69922V8.60938H27.7008V1.69922H26.9008ZM29 -0.4C27.8407 -0.4 26.9008 0.539883 26.9008 1.69922H27.7008C27.7008 0.981711 28.2825 0.4 29 0.4V-0.4ZM31.0992 1.69922C31.0992 0.539883 30.1593 -0.4 29 -0.4V0.4C29.7175 0.4 30.2992 0.981711 30.2992 1.69922H31.0992ZM7.86134 4.8928C7.04162 4.07294 5.71239 4.07298 4.89259 4.89278L5.45828 5.45846C5.96568 4.95106 6.78834 4.95109 7.2956 5.45844L7.86134 4.8928ZM16.0658 13.0973L7.86131 4.89278L7.29563 5.45846L15.5001 13.663L16.0658 13.0973ZM16.0658 16.066C16.8856 15.2462 16.8856 13.9171 16.0658 13.0973L15.5001 13.663C16.0075 14.1704 16.0075 14.9929 15.5001 15.5003L16.0658 16.066ZM13.0971 16.066C13.9168 16.8858 15.246 16.886 16.0658 16.066L15.5001 15.5003C14.9927 16.0078 14.1701 16.0077 13.6628 15.5003L13.0971 16.066ZM4.89259 7.8615L13.0971 16.066L13.6628 15.5003L5.45828 7.29581L4.89259 7.8615ZM4.89259 4.89278C4.07278 5.71259 4.07278 7.04169 4.89259 7.8615L5.45828 7.29581C4.95089 6.78842 4.95089 5.96585 5.45828 5.45846L4.89259 4.89278ZM29 43.893C20.7884 43.893 14.107 37.2116 14.107 29H13.307C13.307 37.6535 20.3465 44.693 29 44.693V43.893ZM43.893 29C43.893 37.2116 37.2116 43.893 29 43.893V44.693C37.6535 44.693 44.693 37.6535 44.693 29H43.893ZM29 14.107C37.2116 14.107 43.893 20.7884 43.893 29H44.693C44.693 20.3465 37.6535 13.307 29 13.307V14.107ZM14.107 29C14.107 20.7884 20.7884 14.107 29 14.107V13.307C20.3465 13.307 13.307 20.3465 13.307 29H14.107ZM41.2945 29C41.2945 22.2204 35.7796 16.7055 29 16.7055V17.5055C35.3377 17.5055 40.4945 22.6623 40.4945 29H41.2945ZM29 41.2945C35.7796 41.2945 41.2945 35.7796 41.2945 29H40.4945C40.4945 35.3377 35.3377 40.4945 29 40.4945V41.2945ZM16.7055 29C16.7055 35.7796 22.2204 41.2945 29 41.2945V40.4945C22.6623 40.4945 17.5055 35.3377 17.5055 29H16.7055ZM29 16.7055C22.2204 16.7055 16.7055 22.2204 16.7055 29H17.5055C17.5055 22.6623 22.6623 17.5055 29 17.5055V16.7055ZM42.5003 44.337C41.9929 43.8296 41.9929 43.0071 42.5003 42.4997L41.9346 41.934C41.1148 42.7538 41.1148 44.0829 41.9346 44.9027L42.5003 44.337ZM50.7048 52.5415L42.5003 44.337L41.9346 44.9027L50.1391 53.1072L50.7048 52.5415ZM52.5421 52.5416C52.0347 53.049 51.2121 53.049 50.7048 52.5416L50.1391 53.1072C50.9587 53.927 52.288 53.9272 53.1078 53.1072L52.5421 52.5416ZM52.5421 50.7042C53.0495 51.2116 53.0495 52.0342 52.5421 52.5415L53.1078 53.1072C53.9276 52.2874 53.9276 50.9583 53.1078 50.1385L52.5421 50.7042ZM44.3376 42.4997L52.5421 50.7042L53.1078 50.1385L44.9033 41.934L44.3376 42.4997ZM42.5003 42.4996C43.0076 41.9922 43.8302 41.9922 44.3376 42.4997L44.9033 41.934C44.0835 41.1141 42.7543 41.114 41.9345 41.934L42.5003 42.4996ZM7.29561 52.5416C6.78823 53.0491 5.96559 53.049 5.4583 52.5416L4.89257 53.1072C5.71226 53.9271 7.0415 53.9272 7.86134 53.1072L7.29561 52.5416ZM15.5001 44.3371L7.29563 52.5416L7.86131 53.1073L16.0658 44.9028L15.5001 44.3371ZM15.5001 42.4997C16.0075 43.0071 16.0075 43.8297 15.5001 44.3371L16.0658 44.9028C16.8856 44.0829 16.8856 42.7538 16.0658 41.934L15.5001 42.4997ZM13.6628 42.4997C14.1702 41.9923 14.9929 41.9923 15.5001 42.4997L16.0658 41.9341C15.2461 41.1142 13.9169 41.1142 13.0971 41.934L13.6628 42.4997ZM5.45828 50.7042L13.6628 42.4997L13.0971 41.934L4.89259 50.1385L5.45828 50.7042ZM5.45828 52.5416C4.95089 52.0342 4.95089 51.2116 5.45828 50.7042L4.89259 50.1385C4.07278 50.9583 4.07278 52.2874 4.89259 53.1073L5.45828 52.5416ZM53.1078 4.8928C52.2881 4.07294 50.9589 4.07298 50.1391 4.89278L50.7048 5.45846C51.2122 4.95106 52.0348 4.95109 52.5421 5.45844L53.1078 4.8928ZM53.1078 7.8615C53.9276 7.04169 53.9276 5.71259 53.1078 4.89278L52.5421 5.45846C53.0495 5.96585 53.0495 6.78842 52.5421 7.29581L53.1078 7.8615ZM44.9033 16.066L53.1078 7.8615L52.5421 7.29581L44.3376 15.5003L44.9033 16.066ZM41.9346 16.066C42.7542 16.8858 44.0835 16.886 44.9033 16.066L44.3376 15.5003C43.8302 16.0078 43.0076 16.0077 42.5003 15.5003L41.9346 16.066ZM41.9346 13.0973C41.1148 13.9171 41.1148 15.2462 41.9346 16.066L42.5003 15.5003C41.9929 14.9929 41.9929 14.1704 42.5003 13.663L41.9346 13.0973ZM50.1391 4.89278L41.9346 13.0973L42.5003 13.663L50.7048 5.45846L50.1391 4.89278ZM35.6029 48.3357C35.3283 47.6727 35.6431 46.9127 36.306 46.6381L35.9999 45.899C34.9287 46.3427 34.4201 47.5707 34.8637 48.6418L35.6029 48.3357ZM36.9033 51.4754L35.6029 48.3357L34.8637 48.6419L36.1642 51.7816L36.9033 51.4754ZM38.6009 52.1785C37.9371 52.4535 37.1776 52.1374 36.9033 51.4754L36.1642 51.7816C36.6073 52.8509 37.8342 53.362 38.907 52.9177L38.6009 52.1785ZM39.304 50.481C39.5786 51.144 39.2638 51.904 38.6009 52.1785L38.907 52.9177C39.9782 52.474 40.4868 51.2459 40.0431 50.1748L39.304 50.481ZM38.0036 47.3413L39.304 50.481L40.0431 50.1748L38.7427 47.0351L38.0036 47.3413ZM36.3059 46.6382C36.969 46.3636 37.7289 46.6784 38.0036 47.3413L38.7427 47.0351C38.2989 45.9639 37.071 45.4556 35.9999 45.899L36.3059 46.6382ZM23.1359 9.35813L21.8354 6.21843L21.0963 6.52457L22.3968 9.66427L23.1359 9.35813ZM21.9998 12.101C23.071 11.6573 23.5795 10.4293 23.1359 9.35814L22.3968 9.66426C22.6714 10.3273 22.3566 11.0873 21.6937 11.3618L21.9998 12.101ZM19.257 10.9649C19.7001 12.0342 20.927 12.5453 21.9998 12.101L21.6937 11.3619C21.0299 11.6368 20.2705 11.3208 19.9961 10.6586L19.257 10.9649ZM17.9565 7.82515L19.257 10.9649L19.9961 10.6587L18.6956 7.51901L17.9565 7.82515ZM19.0926 5.08232C18.0214 5.52597 17.5129 6.75403 17.9565 7.82514L18.6956 7.51902C18.421 6.85602 18.7358 6.09599 19.3987 5.82144L19.0926 5.08232ZM21.8354 6.2184C21.3916 5.14722 20.1637 4.63884 19.0927 5.0823L19.3987 5.82145C20.0617 5.54694 20.8217 5.86166 21.0963 6.52459L21.8354 6.2184ZM6.52473 36.9032L9.66444 35.6027L9.3583 34.8636L6.2186 36.1641L6.52473 36.9032ZM5.82161 38.6008C5.54702 37.9378 5.86182 37.1778 6.52472 36.9032L6.21861 36.1641C5.1474 36.6078 4.63888 37.8358 5.08249 38.9069L5.82161 38.6008ZM7.51917 39.3039C6.85538 39.5789 6.09586 39.2628 5.82159 38.6008L5.08251 38.907C5.52553 39.9763 6.75251 40.4874 7.82532 40.043L7.51917 39.3039ZM10.6589 38.0035L7.51918 39.3039L7.82532 40.043L10.965 38.7426L10.6589 38.0035ZM11.362 36.3059C11.6366 36.9689 11.3218 37.7289 10.6589 38.0035L10.965 38.7426C12.0362 38.2989 12.5447 37.0709 12.1011 35.9997L11.362 36.3059ZM9.66433 35.6028C10.3276 35.3283 11.0875 35.6431 11.362 36.3059L12.1011 35.9997C11.6574 34.9286 10.4295 34.4203 9.35841 34.8636L9.66433 35.6028ZM48.6427 23.1363L51.7824 21.8359L51.4763 21.0968L48.3366 22.3972L48.6427 23.1363ZM45.8999 22.0003C46.3429 23.0697 47.5699 23.5806 48.6427 23.1364L48.3366 22.3972C47.6727 22.6721 46.9132 22.3561 46.639 21.6941L45.8999 22.0003ZM47.036 19.2574C45.9648 19.7011 45.4563 20.9291 45.8999 22.0002L46.639 21.6941C46.3644 21.0311 46.6792 20.2711 47.3421 19.9965L47.036 19.2574ZM50.1757 17.957L47.036 19.2574L47.3421 19.9965L50.4818 18.6961L50.1757 17.957ZM52.9185 19.0931C52.4748 18.0218 51.2469 17.5135 50.1758 17.9569L50.4818 18.6961C51.1449 18.4215 51.9049 18.7363 52.1794 19.3992L52.9185 19.0931ZM51.7824 21.8359C52.8536 21.3922 53.3621 20.1642 52.9185 19.0931L52.1794 19.3992C52.454 20.0622 52.1392 20.8222 51.4763 21.0968L51.7824 21.8359ZM18.6956 50.481L19.9961 47.3413L19.257 47.0351L17.9565 50.1748L18.6956 50.481ZM19.3988 52.1786C18.7358 51.9039 18.4211 51.1439 18.6956 50.481L17.9565 50.1749C17.5129 51.246 18.0215 52.4739 19.0926 52.9177L19.3988 52.1786ZM21.0963 51.4754C20.8227 52.1359 20.0642 52.4541 19.3987 52.1785L19.0927 52.9177C20.1683 53.3631 21.3936 52.8482 21.8354 51.7816L21.0963 51.4754ZM22.3968 48.3357L21.0963 51.4754L21.8354 51.7816L23.1359 48.6419L22.3968 48.3357ZM21.6936 46.6381C22.3566 46.9128 22.6714 47.6728 22.3968 48.3357L23.1359 48.6418C23.5795 47.5707 23.071 46.3428 21.9998 45.899L21.6936 46.6381ZM19.9961 47.3413C20.2706 46.6784 21.0306 46.3636 21.6937 46.6382L21.9997 45.899C20.9286 45.4556 19.7007 45.9639 19.257 47.0352L19.9961 47.3413ZM38.7427 10.9649L40.0431 7.82515L39.304 7.51901L38.0036 10.6587L38.7427 10.9649ZM35.9999 12.101C37.0755 12.5463 38.3009 12.0315 38.7427 10.9648L38.0036 10.6587C37.73 11.3192 36.9714 11.6374 36.3059 11.3618L35.9999 12.101ZM34.8637 9.35814C34.4201 10.4293 34.9287 11.6572 35.9998 12.1009L36.306 11.3619C35.643 11.0872 35.3283 10.3272 35.6029 9.66426L34.8637 9.35814ZM36.1642 6.21843L34.8637 9.35813L35.6029 9.66427L36.9033 6.52457L36.1642 6.21843ZM38.907 5.0823C37.8359 4.63884 36.608 5.14722 36.1642 6.2184L36.9033 6.52459C37.178 5.86166 37.9379 5.54694 38.601 5.82145L38.907 5.0823ZM40.0431 7.82514C40.4868 6.754 39.9782 5.5261 38.9071 5.08234L38.6009 5.82142C39.2638 6.09609 39.5786 6.85605 39.304 7.51902L40.0431 7.82514ZM7.51918 18.6961L10.6589 19.9965L10.965 19.2574L7.82532 17.9569L7.51918 18.6961ZM5.82159 19.3992C6.09626 18.7362 6.85622 18.4215 7.51919 18.6961L7.82531 17.9569C6.75417 17.5133 5.52627 18.0219 5.08251 19.093L5.82159 19.3992ZM6.52476 21.0968C5.86179 20.8221 5.54703 20.0621 5.82161 19.3992L5.08249 19.0931C4.63886 20.1642 5.14744 21.3921 6.21857 21.8359L6.52476 21.0968ZM9.66444 22.3972L6.52473 21.0968L6.2186 21.8359L9.3583 23.1363L9.66444 22.3972ZM11.362 21.6941C11.0884 22.3546 10.3299 22.6727 9.66439 22.3972L9.35835 23.1363C10.434 23.5817 11.6593 23.0668 12.1011 22.0003L11.362 21.6941ZM10.6589 19.9965C11.3218 20.2711 11.6366 21.0311 11.362 21.6941L12.1011 22.0002C12.5447 20.9291 12.0362 19.7011 10.965 19.2574L10.6589 19.9965ZM51.7824 36.1642L48.6427 34.8638L48.3366 35.6029L51.4763 36.9033L51.7824 36.1642ZM52.9185 38.907C53.3621 37.8359 52.8536 36.6079 51.7824 36.1642L51.4763 36.9033C52.1392 37.1779 52.454 37.9379 52.1794 38.6009L52.9185 38.907ZM50.1757 40.0432C51.2514 40.4886 52.4766 39.9737 52.9185 38.9071L52.1794 38.6009C51.9058 39.2614 51.1472 39.5796 50.4818 39.304L50.1757 40.0432ZM47.036 38.7427L50.1757 40.0432L50.4818 39.304L47.3421 38.0036L47.036 38.7427ZM45.8999 35.9999C45.4562 37.071 45.9648 38.2989 47.036 38.7427L47.3421 38.0036C46.6792 37.7289 46.3644 36.969 46.639 36.306L45.8999 35.9999ZM48.6426 34.8637C47.5716 34.4203 46.3437 34.9287 45.8999 35.9998L46.639 36.306C46.9136 35.6431 47.6736 35.3284 48.3366 35.6029L48.6426 34.8637ZM27.7008 56.3008V49.3906H26.9008V56.3008H27.7008ZM29 57.6C28.2825 57.6 27.7008 57.0183 27.7008 56.3008H26.9008C26.9008 57.4601 27.8407 58.4 29 58.4V57.6ZM30.2992 56.3008C30.2992 57.0183 29.7175 57.6 29 57.6V58.4C30.1593 58.4 31.0992 57.4601 31.0992 56.3008H30.2992ZM30.2992 49.3906V56.3008H31.0992V49.3906H30.2992ZM29 48.0914C29.7175 48.0914 30.2992 48.6731 30.2992 49.3906H31.0992C31.0992 48.2313 30.1593 47.2914 29 47.2914V48.0914ZM27.7008 49.3906C27.7008 48.6731 28.2825 48.0914 29 48.0914V47.2914C27.8407 47.2914 26.9008 48.2313 26.9008 49.3906H27.7008ZM1.69922 30.2992C0.981711 30.2992 0.4 29.7175 0.4 29H-0.4C-0.4 30.1593 0.539883 31.0992 1.69922 31.0992V30.2992ZM8.60938 30.2992H1.69922V31.0992H8.60938V30.2992ZM9.90859 29C9.90859 29.7175 9.32688 30.2992 8.60938 30.2992V31.0992C9.76871 31.0992 10.7086 30.1593 10.7086 29H9.90859ZM8.60938 27.7008C9.32688 27.7008 9.90859 28.2825 9.90859 29H10.7086C10.7086 27.8407 9.76871 26.9008 8.60938 26.9008V27.7008ZM1.69922 27.7008H8.60938V26.9008H1.69922V27.7008ZM0.4 29C0.4 28.2825 0.981711 27.7008 1.69922 27.7008V26.9008C0.539883 26.9008 -0.4 27.8407 -0.4 29H0.4ZM56.3008 26.9008H49.3906V27.7008H56.3008V26.9008ZM58.4 29C58.4 27.8407 57.4601 26.9008 56.3008 26.9008V27.7008C57.0183 27.7008 57.6 28.2825 57.6 29H58.4ZM56.3008 31.0992C57.4601 31.0992 58.4 30.1593 58.4 29H57.6C57.6 29.7175 57.0183 30.2992 56.3008 30.2992V31.0992ZM49.3906 31.0992H56.3008V30.2992H49.3906V31.0992ZM47.2914 29C47.2914 30.1593 48.2313 31.0992 49.3906 31.0992V30.2992C48.6731 30.2992 48.0914 29.7175 48.0914 29H47.2914ZM49.3906 26.9008C48.2313 26.9008 47.2914 27.8407 47.2914 29H48.0914C48.0914 28.2825 48.6731 27.7008 49.3906 27.7008V26.9008Z" fill="white" mask="url(#path-1-inside-1_2201_1779)"/>
<defs>
<linearGradient id="paint0_linear_2201_1779" x1="-3.241e-07" y1="29" x2="58" y2="29" gradientUnits="userSpaceOnUse">
<stop stop-color="#E86AAD"/>
<stop offset="1" stop-color="#5CBAFE"/>
</linearGradient>
</defs>
</svg>
