<svg width="58" height="48" viewBox="0 0 58 48" fill="none" xmlns="http://www.w3.org/2000/svg">
<path fill-rule="evenodd" clip-rule="evenodd" d="M35.2386 0.904234C35.6216 1.09902 35.8302 1.52326 35.7503 1.94558C35.7223 2.09251 33.0243 16.722 34.6493 24.842C35.1767 27.1117 35.55 29.4144 35.7667 31.7344C35.7619 35.4695 32.7351 38.4962 29.0001 38.501C25.265 38.4962 22.2382 35.4695 22.2334 31.7344V31.6203C22.2346 30.6214 22.3544 29.6262 22.5901 28.6555C24.3079 20.231 33.5434 2.09638 33.9388 1.32788C34.1807 0.851913 34.7626 0.662326 35.2386 0.904234ZM24.1667 31.7344C24.1667 34.4037 26.3307 36.5677 29.0001 36.5677C31.6694 36.5677 33.8334 34.4037 33.8334 31.7344C33.6227 29.5415 33.2619 27.3655 32.7536 25.2219C31.7386 20.1518 32.2867 12.9259 32.917 7.79681C29.9725 13.9603 25.5703 23.7072 24.4838 29.0432C24.276 29.883 24.1695 30.7446 24.1667 31.6097V31.7344ZM11.5996 37.5343C11.5996 35.9327 12.898 34.6343 14.4996 34.6343C16.1013 34.6343 17.3996 35.9327 17.3996 37.5343C17.3996 39.136 16.1013 40.4343 14.4996 40.4343C12.898 40.4343 11.5996 39.136 11.5996 37.5343ZM13.5329 37.5343C13.5329 38.0682 13.9658 38.501 14.4996 38.501C15.0335 38.501 15.4663 38.0682 15.4663 37.5343C15.4663 37.0005 15.0335 36.5677 14.4996 36.5677C13.9658 36.5677 13.5329 37.0005 13.5329 37.5343ZM5.80026 36.5677C3.66477 36.5677 1.93359 38.2989 1.93359 40.4344C1.93359 42.5698 3.66477 44.301 5.80026 44.301C7.93575 44.301 9.66693 42.5698 9.66693 40.4344C9.66693 38.2989 7.93575 36.5677 5.80026 36.5677ZM5.80026 42.3677C4.73246 42.3677 3.86693 41.5022 3.86693 40.4344C3.86693 39.3666 4.73246 38.501 5.80026 38.501C6.86806 38.501 7.73359 39.3666 7.73359 40.4344C7.73359 41.5022 6.86806 42.3677 5.80026 42.3677ZM48.333 40.4344C48.333 38.2989 50.0642 36.5677 52.1997 36.5677C54.3352 36.5677 56.0663 38.2989 56.0663 40.4344C56.0663 42.5698 54.3352 44.301 52.1997 44.301C50.0642 44.301 48.333 42.5698 48.333 40.4344ZM50.2663 40.4344C50.2663 41.5022 51.1319 42.3677 52.1997 42.3677C53.2675 42.3677 54.133 41.5022 54.133 40.4344C54.133 39.3666 53.2675 38.501 52.1997 38.501C51.1319 38.501 50.2663 39.3666 50.2663 40.4344ZM43.4996 34.6343C41.898 34.6343 40.5996 35.9327 40.5996 37.5343C40.5996 39.136 41.898 40.4343 43.4996 40.4343C45.1013 40.4343 46.3996 39.136 46.3996 37.5343C46.3996 35.9327 45.1013 34.6343 43.4996 34.6343ZM43.4996 38.501C42.9658 38.501 42.5329 38.0682 42.5329 37.5343C42.5329 37.0005 42.9658 36.5677 43.4996 36.5677C44.0335 36.5677 44.4663 37.0005 44.4663 37.5343C44.4663 38.0682 44.0335 38.501 43.4996 38.501ZM17.4004 44.301C17.4004 42.6994 18.6987 41.401 20.3004 41.401C21.902 41.401 23.2004 42.6994 23.2004 44.301C23.2004 45.9026 21.902 47.201 20.3004 47.201C18.6987 47.201 17.4004 45.9026 17.4004 44.301ZM19.3337 44.301C19.3337 44.8348 19.7665 45.2677 20.3004 45.2677C20.8342 45.2677 21.2671 44.8348 21.2671 44.301C21.2671 43.7672 20.8342 43.3343 20.3004 43.3343C19.7665 43.3343 19.3337 43.7672 19.3337 44.301ZM37.6998 41.401C36.0982 41.401 34.7998 42.6994 34.7998 44.301C34.7998 45.9026 36.0982 47.201 37.6998 47.201C39.3014 47.201 40.5998 45.9026 40.5998 44.301C40.5998 42.6994 39.3014 41.401 37.6998 41.401ZM37.6998 45.2677C37.166 45.2677 36.7331 44.8348 36.7331 44.301C36.7331 43.7672 37.166 43.3343 37.6998 43.3343C38.2336 43.3343 38.6665 43.7672 38.6665 44.301C38.6665 44.8348 38.2336 45.2677 37.6998 45.2677ZM37.7 31.7344V30.7677H58V32.701H39.5898C39.0834 38.1733 34.4956 42.3612 29 42.3677C23.5044 42.3612 18.9166 38.1732 18.4102 32.701H0V30.7677H20.3V31.7344C20.3 36.5392 24.1952 40.4344 29 40.4344C33.8049 40.4344 37.7 36.5392 37.7 31.7344ZM3.20447 13.6451L3.2046 13.6452C4.09191 14.749 5.09761 16.0001 7.04286 16.0001C8.98822 16 9.99399 14.7489 10.8813 13.6451L10.8814 13.6451L10.8815 13.645C11.7206 12.6011 12.4454 11.6996 13.957 11.6996C15.4687 11.6996 16.1934 12.6012 17.0325 13.645L17.0326 13.6451C17.2782 13.9506 17.6481 13.9096 17.8588 13.5533C18.0695 13.1971 18.0412 12.6606 17.7955 12.3551L17.7954 12.3549C16.9081 11.2511 15.9023 10.0001 13.957 10.0001C12.0116 10.0001 11.0058 11.2512 10.1184 12.3551L10.1184 12.3551C9.27923 13.399 8.55448 14.3005 7.04286 14.3005C5.53124 14.3005 4.80658 13.399 3.96747 12.3551L3.96745 12.3551C3.72182 12.0495 3.35192 12.0905 3.14122 12.4468C2.93051 12.803 2.95884 13.3395 3.20447 13.6451ZM8.39048 8.48494C5.79665 8.48494 4.45571 7.33471 3.27263 6.31987C2.94513 6.03897 2.90735 5.54573 3.18829 5.21823C3.46919 4.89069 3.96243 4.85295 4.28993 5.13389C5.40876 6.09362 6.37501 6.92244 8.39048 6.92244C10.406 6.92244 11.3723 6.09362 12.4912 5.13397L12.4913 5.13389C13.6744 4.11905 15.0154 2.96881 17.6093 2.96881C20.2031 2.96881 21.5441 4.11897 22.7273 5.13381C23.0548 5.41467 23.0926 5.90795 22.8117 6.23545C22.5308 6.56299 22.0376 6.60084 21.7101 6.31987C20.5911 5.36014 19.6248 4.53131 17.6093 4.53131C15.5938 4.53131 14.6275 5.3601 13.5087 6.31973L13.5085 6.31987C12.3254 7.33471 10.9843 8.48494 8.39048 8.48494Z" fill="url(#paint0_linear_2201_2477)"/>
<defs>
<linearGradient id="paint0_linear_2201_2477" x1="-3.241e-07" y1="24" x2="58" y2="24" gradientUnits="userSpaceOnUse">
<stop stop-color="#E86AAD"/>
<stop offset="1" stop-color="#5CBAFE"/>
</linearGradient>
</defs>
</svg>
