<svg width="58" height="58" viewBox="0 0 58 58" fill="none" xmlns="http://www.w3.org/2000/svg">
<path fill-rule="evenodd" clip-rule="evenodd" d="M3.16409 26.5857C5.77797 27.9331 10.4933 29.6965 17.2592 29.6965C20.3399 29.6965 23.8459 29.331 27.7713 28.3937C27.9988 28.3398 28.2227 28.284 28.4466 28.2278C28.6435 28.1787 28.8236 28.0774 28.9683 27.9344L33.1642 23.7828L33.9996 25.4467C34.2638 25.9732 34.8877 26.2091 35.4342 25.9896C39.2043 24.4749 42.3298 22.6452 44.7237 20.5512C44.9666 20.3388 45.1074 20.0331 45.1105 19.7105L45.1361 17.2975L45.6676 17.8289C45.9017 18.0626 46.2265 18.1829 46.5548 18.1573C46.8845 18.1321 47.1867 17.9643 47.3823 17.698C49.7961 14.4075 50.1701 10.9427 48.5058 8.11064C49.0434 7.69734 49.5767 7.27741 50.1041 6.84995L56.0744 2.01293C56.5603 1.6191 56.6355 0.905779 56.2412 0.419909C55.8478 -0.066404 55.1341 -0.141187 54.6482 0.252642L48.6779 5.08966C48.158 5.51093 47.6332 5.92423 47.1048 6.33089C44.8945 4.0865 42.5023 2.88997 39.8017 2.67757C36.3984 2.40941 32.5247 3.67984 27.9559 6.55966C27.1927 7.04122 26.7673 7.29965 26.0123 7.75825L26.0123 7.75826L25.9814 7.77699L25.4119 8.12259C25.0876 8.31995 24.8836 8.66643 24.8685 9.04521C24.853 9.42444 25.0287 9.78597 25.3362 10.0085L25.8456 10.3772L23.0122 9.905C22.7471 9.86119 22.475 9.91252 22.244 10.0506C15.6051 14.0234 7.36523 18.7511 3.04461 21.2159C2.07155 21.7708 1.48169 22.8111 1.50558 23.9306C1.52903 25.0533 2.16491 26.0706 3.16409 26.5857ZM46.2818 15.239L44.8326 13.7898C44.51 13.4672 44.0259 13.3698 43.6037 13.5419C43.1816 13.7141 42.9037 14.123 42.8988 14.5787L42.8506 19.1715C40.9089 20.788 38.4587 22.2363 35.551 23.4872L34.489 21.3721C34.3262 21.0477 34.0182 20.8212 33.6602 20.7623C33.3018 20.703 32.9376 20.8198 32.68 21.0747L27.5957 26.1047C27.4797 26.1334 27.3634 26.1622 27.2456 26.1901C23.4959 27.0848 20.1647 27.4326 17.249 27.4326C10.9606 27.4326 6.61032 25.8135 4.20221 24.5718L4.19955 24.5705C4.22831 24.5727 4.25708 24.5745 4.28628 24.5745C4.30841 24.5745 4.33053 24.574 4.3531 24.5727C12.6788 24.0877 20.843 22.3142 28.6196 19.3016C35.051 16.8103 41.1071 13.5132 46.6756 9.47754C47.5818 11.1896 47.45 13.1685 46.2818 15.239ZM23.0498 12.2087L30.2317 13.4048C30.7516 13.4911 31.2605 13.2092 31.4632 12.7242C31.6658 12.2388 31.5083 11.6781 31.0822 11.3697L28.0457 9.17266C28.3895 8.96202 28.7205 8.75626 29.1644 8.47659C33.3049 5.86626 36.7263 4.7069 39.6238 4.93611C41.6992 5.09984 43.5064 5.98352 45.2684 7.70133C33.696 16.0815 20.1979 21.0579 5.89833 22.1951C10.3743 19.6344 17.268 15.662 23.0498 12.2087ZM4.53125 49.6171C4.53125 50.2428 5.03836 50.7499 5.66406 50.7499H17.0063V52.2545C17.0063 52.8802 17.5135 53.3873 18.1392 53.3873C18.7644 53.3873 19.272 52.8802 19.272 52.2545V50.7499H38.7559V52.2545C38.7559 52.8802 39.2635 53.3873 39.8887 53.3873C40.5144 53.3873 41.0215 52.8802 41.0215 52.2545V50.7499H56.8667C57.492 50.7499 57.9996 50.2428 57.9996 49.6171C57.9996 48.9919 57.492 48.4843 56.8667 48.4843H5.66406C5.03836 48.4843 4.53125 48.9914 4.53125 49.6171ZM56.8672 55.7343H51.8828V54.2298C51.8828 53.6045 51.3753 53.097 50.75 53.097C50.1243 53.097 49.6172 53.6045 49.6172 54.2298V55.7343H30.1328V54.2298C30.1328 53.6045 29.6257 53.097 29 53.097C28.3743 53.097 27.8672 53.6045 27.8672 54.2298V55.7343H8.38281V54.2298C8.38281 53.6045 7.8757 53.097 7.25 53.097C6.6243 53.097 6.11719 53.6045 6.11719 54.2298V55.7343H1.13281C0.507111 55.7343 0 56.2419 0 56.8671C0 57.4928 0.507111 57.9999 1.13281 57.9999H56.8672C57.4924 57.9999 58 57.4928 58 56.8671C58 56.2419 57.4929 55.7343 56.8672 55.7343ZM1.93375 50.4181C1.72311 50.6287 1.43062 50.7499 1.13281 50.7499C0.835007 50.7499 0.542511 50.6287 0.331879 50.4181C0.121246 50.2074 0 49.9149 0 49.6171C0 49.3193 0.121246 49.0273 0.331879 48.8162C0.542511 48.6056 0.835007 48.4843 1.13281 48.4843C1.43062 48.4843 1.72311 48.6056 1.93375 48.8162C2.14438 49.0268 2.26562 49.3193 2.26562 49.6171C2.26562 49.9149 2.14438 50.2074 1.93375 50.4181ZM15.1495 41.2724C15.1495 41.8977 14.6419 42.4052 14.0166 42.4052H14.0029C13.3772 42.4052 12.8701 41.8977 12.8701 41.2724C12.8701 40.6467 13.3772 40.1396 14.0029 40.1396H14.0166C14.6419 40.1396 15.1495 40.6467 15.1495 41.2724ZM9.02887 41.0108C9.21295 41.1228 9.41606 41.1759 9.61696 41.1759C9.99928 41.1759 10.3723 40.9825 10.5856 40.632C10.9108 40.0975 10.7414 39.4005 10.2068 39.0753C8.00093 37.7327 6.68359 35.3892 6.68359 32.8063C6.68359 32.1811 6.17648 31.6735 5.55078 31.6735C4.92508 31.6735 4.41797 32.1811 4.41797 32.8063C4.41797 36.1862 6.14197 39.2532 9.02887 41.0108ZM50.75 26.329C51.3753 26.329 51.8828 26.8365 51.8828 27.4618C51.8828 30.835 49.1388 33.579 45.7656 33.579C45.1399 33.579 44.6328 33.0719 44.6328 32.4462C44.6328 31.8209 45.1399 31.3134 45.7656 31.3134C47.8892 31.3134 49.6172 29.5858 49.6172 27.4618C49.6172 26.8365 50.1243 26.329 50.75 26.329Z" fill="url(#paint0_linear_2201_1799)"/>
<defs>
<linearGradient id="paint0_linear_2201_1799" x1="-3.241e-07" y1="29" x2="58" y2="29" gradientUnits="userSpaceOnUse">
<stop stop-color="#E86AAD"/>
<stop offset="1" stop-color="#5CBAFE"/>
</linearGradient>
</defs>
</svg>
