<svg width="140" height="140" viewBox="0 0 140 140" fill="none" xmlns="http://www.w3.org/2000/svg">
<g filter="url(#filter0_i_12_403)">
<circle cx="70" cy="70" r="70" fill="#FAE2E7"/>
<circle cx="70" cy="70" r="70" fill="url(#paint0_linear_12_403)"/>
</g>
<g filter="url(#filter1_d_12_403)">
<circle cx="70" cy="70" r="55" fill="white"/>
</g>
<path d="M88.868 82.9621L84.0419 76.7577C85.6057 76.2904 86.9566 75.2903 87.8599 73.931C88.9965 71.9665 88.4825 69.569 87.9852 67.2531C87.6846 66.0634 87.5046 64.8464 87.4483 63.6207C87.5044 62.3939 87.6843 61.1758 87.9852 59.9851C88.4793 57.6677 88.9965 55.2717 87.8599 53.3103C86.683 51.2768 84.3132 50.5242 82.0211 49.7977C80.8801 49.4833 79.7751 49.0506 78.7242 48.5065C77.7705 47.8879 76.885 47.1701 76.0823 46.3651C74.3819 44.7869 72.4539 43 70 43C67.5462 43 65.6181 44.7869 63.9169 46.3643C63.1146 47.1695 62.2293 47.8876 61.2759 48.5065C60.225 49.0495 59.1203 49.4811 57.9798 49.7945C55.6877 50.521 53.3179 51.2737 52.1409 53.3072C51.0044 55.2717 51.5183 57.6692 52.0156 59.9851C52.3163 61.1758 52.4959 62.3939 52.5518 63.6207C52.4957 64.8475 52.3158 66.0656 52.0148 67.2563C51.5207 69.5737 51.0036 71.9697 52.1401 73.931C53.0447 75.2908 54.397 76.2906 55.9621 76.7569L51.1321 82.9613C50.8632 83.3071 50.9256 83.8054 51.2715 84.0742C51.4377 84.2034 51.6482 84.2612 51.857 84.235L57.5277 83.5268L58.9275 88.425C59.0095 88.7121 59.2459 88.9288 59.539 88.9857C59.5887 88.9951 59.6391 89 59.6897 89C59.9346 89.0002 60.1659 88.8872 60.3162 88.6939L65.381 82.1793C66.6274 83.3927 68.2645 84.1236 70 84.2414C71.7355 84.1236 73.3727 83.3927 74.6191 82.1793L79.6838 88.6915C79.8337 88.8857 80.065 88.9996 80.3104 89C80.3609 89 80.4114 88.9951 80.4611 88.9857C80.7542 88.9288 80.9906 88.7121 81.0726 88.425L82.4724 83.5276L88.1431 84.2358C88.5777 84.2904 88.9742 83.9822 89.0288 83.5476C89.0549 83.3388 88.9971 83.1283 88.868 82.9621ZM60.0228 86.4867L58.8657 82.4371C58.7581 82.0614 58.3929 81.8201 58.0051 81.8684L53.5638 82.4236L57.5443 77.3065L57.9829 77.4469C59.1224 77.7604 60.226 78.1921 61.2759 78.7349C62.2296 79.3535 63.1151 80.0712 63.9177 80.8762L64.1906 81.1284L60.0228 86.4867ZM70 82.6552C68.168 82.6552 66.627 81.2276 64.9948 79.7143C64.1068 78.8272 63.1259 78.0383 62.069 77.3612C60.9191 76.7592 59.7086 76.2807 58.458 75.9336C56.3618 75.2682 54.3815 74.6401 53.5122 73.1379C52.6826 71.7032 53.1109 69.7038 53.5653 67.5862C53.8924 66.2876 54.0843 64.9588 54.138 63.6207C54.0846 62.2826 53.893 60.9538 53.5661 59.6552C53.1117 57.5384 52.6834 55.539 53.513 54.1034C54.3854 52.6013 56.3626 51.9732 58.4588 51.3078C59.7092 50.9606 60.9193 50.482 62.069 49.8802C63.1256 49.2031 64.1063 48.4141 64.994 47.527C66.627 46.0138 68.168 44.5862 70 44.5862C71.8321 44.5862 73.3731 46.0138 75.0053 47.527C75.8933 48.4142 76.8742 49.2031 77.9311 49.8802C79.081 50.4821 80.2914 50.9607 81.5421 51.3078C83.6382 51.9732 85.6186 52.6013 86.4879 54.1034C87.3175 55.5382 86.8892 57.5376 86.4347 59.6552C86.1077 60.9538 85.9157 62.2826 85.8621 63.6207C85.9154 64.9588 86.1071 66.2876 86.4339 67.5862C86.8884 69.703 87.3167 71.7024 86.4871 73.1379C85.6147 74.6401 83.6375 75.2682 81.5413 75.9336C80.2909 76.2808 79.0808 76.7593 77.9311 77.3612C76.8745 78.0383 75.8938 78.8273 75.0061 79.7143C73.3731 81.2276 71.8321 82.6552 70 82.6552ZM81.9989 81.8684C81.6112 81.8201 81.2459 82.0614 81.1384 82.4371L79.9773 86.4867L75.8103 81.1292L76.0831 80.877C76.8855 80.0718 77.7708 79.3538 78.7242 78.7349C79.775 78.1919 80.8797 77.7602 82.0203 77.4469L82.4589 77.3065L86.4403 82.4236L81.9989 81.8684Z" fill="#F78E9B"/>
<path d="M70 49.3447C62.1156 49.3447 55.7241 55.7362 55.7241 63.6206C55.7241 71.5049 62.1156 77.8965 70 77.8965C77.8843 77.8965 84.2758 71.5049 84.2758 63.6206C84.2667 55.74 77.8806 49.3539 70 49.3447ZM70 76.3102C62.9917 76.3102 57.3103 70.6288 57.3103 63.6206C57.3103 56.6123 62.9917 50.9309 70 50.9309C77.0082 50.9309 82.6896 56.6123 82.6896 63.6206C82.6813 70.6255 77.0049 76.3019 70 76.3102Z" fill="#F78E9B"/>
<path d="M79.1508 60.3079C78.8524 59.8979 78.3762 59.6553 77.8692 59.6551H73.0138L71.5069 55.0337C71.2334 54.2015 70.337 53.7486 69.5047 54.0221C69.026 54.1794 68.6504 54.555 68.4931 55.0337L66.9902 59.6551H62.1308C61.2547 59.6547 60.5442 60.3645 60.5438 61.2405C60.5435 61.7481 60.7862 62.2251 61.1965 62.5238L65.1272 65.379L63.6258 70.0004C63.355 70.8335 63.8109 71.7284 64.644 71.9992C65.1271 72.1562 65.6561 72.0723 66.067 71.7737L70 68.9194L73.9314 71.7745C74.4852 72.186 75.243 72.186 75.7968 71.7745C76.3588 71.3751 76.5928 70.6546 76.3726 70.0012L74.8712 65.379L78.8019 62.5238C79.5102 62.0083 79.6664 61.0161 79.1508 60.3079ZM73.4722 64.4352C73.194 64.6373 73.0777 64.9957 73.1843 65.3226L74.8641 70.4921L70.4663 67.2975C70.1885 67.0957 69.8123 67.0957 69.5344 67.2975L65.1367 70.4921L66.8157 65.3226C66.9219 64.9959 66.8057 64.638 66.5278 64.436L62.1308 61.2413H67.566C67.9096 61.2413 68.214 61.0201 68.3202 60.6933L70 55.5239L71.6798 60.6925C71.786 61.0193 72.0904 61.2405 72.434 61.2405L77.8692 61.2413L73.4722 64.4352Z" fill="#F78E9B"/>
<defs>
<filter id="filter0_i_12_403" x="0" y="0" width="140" height="144" filterUnits="userSpaceOnUse" color-interpolation-filters="sRGB">
<feFlood flood-opacity="0" result="BackgroundImageFix"/>
<feBlend mode="normal" in="SourceGraphic" in2="BackgroundImageFix" result="shape"/>
<feColorMatrix in="SourceAlpha" type="matrix" values="0 0 0 0 0 0 0 0 0 0 0 0 0 0 0 0 0 0 127 0" result="hardAlpha"/>
<feOffset dy="4"/>
<feGaussianBlur stdDeviation="10"/>
<feComposite in2="hardAlpha" operator="arithmetic" k2="-1" k3="1"/>
<feColorMatrix type="matrix" values="0 0 0 0 0.360784 0 0 0 0 0.47451 0 0 0 0 0.635294 0 0 0 0.3 0"/>
<feBlend mode="normal" in2="shape" result="effect1_innerShadow_12_403"/>
</filter>
<filter id="filter1_d_12_403" x="5" y="7" width="130" height="130" filterUnits="userSpaceOnUse" color-interpolation-filters="sRGB">
<feFlood flood-opacity="0" result="BackgroundImageFix"/>
<feColorMatrix in="SourceAlpha" type="matrix" values="0 0 0 0 0 0 0 0 0 0 0 0 0 0 0 0 0 0 127 0" result="hardAlpha"/>
<feOffset dy="2"/>
<feGaussianBlur stdDeviation="5"/>
<feColorMatrix type="matrix" values="0 0 0 0 0.305882 0 0 0 0 0.498039 0 0 0 0 0.870588 0 0 0 0.49 0"/>
<feBlend mode="normal" in2="BackgroundImageFix" result="effect1_dropShadow_12_403"/>
<feBlend mode="normal" in="SourceGraphic" in2="effect1_dropShadow_12_403" result="shape"/>
</filter>
<linearGradient id="paint0_linear_12_403" x1="70" y1="0" x2="70" y2="140" gradientUnits="userSpaceOnUse">
<stop stop-color="white"/>
<stop offset="1" stop-color="white" stop-opacity="0"/>
</linearGradient>
</defs>
</svg>
