<svg width="320" height="227" viewBox="0 0 320 227" fill="none" xmlns="http://www.w3.org/2000/svg">
<g filter="url(#filter0_i_75_807)">
<ellipse cx="159" cy="45" rx="256" ry="182" fill="white"/>
</g>
<path d="M405 45C405 91.1691 378.694 133.929 334.225 165.543C289.778 197.142 227.859 217 159 217C90.1412 217 28.2215 197.142 -16.225 165.543C-60.6935 133.929 -87 91.1691 -87 45C-87 -1.16914 -60.6935 -43.9289 -16.225 -75.5432C28.2215 -107.142 90.1412 -127 159 -127C227.859 -127 289.778 -107.142 334.225 -75.5432C378.694 -43.9289 405 -1.16914 405 45Z" stroke="url(#paint0_linear_75_807)" stroke-width="20"/>
<defs>
<filter id="filter0_i_75_807" x="-97" y="-137" width="512" height="368" filterUnits="userSpaceOnUse" color-interpolation-filters="sRGB">
<feFlood flood-opacity="0" result="BackgroundImageFix"/>
<feBlend mode="normal" in="SourceGraphic" in2="BackgroundImageFix" result="shape"/>
<feColorMatrix in="SourceAlpha" type="matrix" values="0 0 0 0 0 0 0 0 0 0 0 0 0 0 0 0 0 0 127 0" result="hardAlpha"/>
<feOffset dy="4"/>
<feGaussianBlur stdDeviation="10"/>
<feComposite in2="hardAlpha" operator="arithmetic" k2="-1" k3="1"/>
<feColorMatrix type="matrix" values="0 0 0 0 0.360784 0 0 0 0 0.47451 0 0 0 0 0.635294 0 0 0 0.3 0"/>
<feBlend mode="normal" in2="shape" result="effect1_innerShadow_75_807"/>
</filter>
<linearGradient id="paint0_linear_75_807" x1="-97" y1="45.0001" x2="415" y2="45.0001" gradientUnits="userSpaceOnUse">
<stop stop-color="#E86AAD"/>
<stop offset="1" stop-color="#5CBAFE"/>
</linearGradient>
</defs>
</svg>
