<svg width="140" height="140" viewBox="0 0 140 140" fill="none" xmlns="http://www.w3.org/2000/svg">
<g filter="url(#filter0_i_12_214)">
<circle cx="70" cy="70" r="70" fill="#FAE2E7"/>
<circle cx="70" cy="70" r="70" fill="url(#paint0_linear_12_214)"/>
</g>
<g filter="url(#filter1_d_12_214)">
<circle cx="70" cy="70" r="55" fill="white"/>
</g>
<g clip-path="url(#clip0_12_214)">
<path d="M47.2786 59.5315C47.4186 59.8729 47.7682 60.099 48.1372 60.0862C48.5091 60.0733 48.8367 59.8269 48.9584 59.4768C49.0797 59.1282 48.9617 58.7275 48.6778 58.494C48.3802 58.2491 47.9455 58.224 47.6216 58.433C47.2617 58.6649 47.1138 59.136 47.2786 59.5315Z" fill="#F78E9B"/>
<path d="M84.2909 66.4171C84.379 66.1902 84.4601 65.9638 84.5338 65.7389C85.0297 64.2259 85.2323 62.6878 85.1533 61.0367C85.0223 58.3016 83.7565 55.672 81.5892 53.6324C79.5083 51.6742 76.8643 50.551 74.3351 50.551C70.567 50.551 67.6222 52.6545 66.2022 53.9085C66.0965 54.0018 65.9425 54.0038 65.8362 53.9129C64.3643 52.6573 61.3545 50.551 57.7334 50.551C54.7413 50.551 51.5561 52.1654 49.4207 54.7641C49.1058 55.1475 49.1611 55.7137 49.5445 56.0287C49.9279 56.3438 50.494 56.2883 50.809 55.905C52.6118 53.711 55.2652 52.348 57.7334 52.348C60.7782 52.348 63.3863 54.185 64.6699 55.28C65.451 55.9463 66.621 55.9358 67.3915 55.2555C68.6212 54.1697 71.1586 52.348 74.335 52.348C78.396 52.348 83.1178 56.1006 83.3584 61.1226C83.4267 62.5511 83.2525 63.8781 82.826 65.1794C82.725 65.4875 82.6113 65.7914 82.4818 66.0985C82.1209 66.0642 81.7554 66.0467 81.3857 66.0467C74.9817 66.0467 69.7716 71.2958 69.7716 77.7478C69.7716 78.0529 69.7833 78.3554 69.8062 78.6547C68.9174 79.3795 68.1952 79.9729 67.5916 80.4838C66.6801 81.2553 65.3573 81.2551 64.446 80.4832C63.6308 79.7925 62.5708 78.9288 61.4486 78.0144C57.3982 74.7138 51.8509 70.1935 50.5156 67.9248C49.6376 66.4332 49.113 65.0822 48.8647 63.6731C48.836 63.5102 48.8106 63.3447 48.7894 63.1809C48.7255 62.6888 48.2749 62.3416 47.7828 62.4055C47.2907 62.4694 46.9436 62.9201 47.0075 63.4121C47.0322 63.6028 47.0617 63.7955 47.0951 63.985C47.3819 65.6121 47.9767 67.1537 48.967 68.8362C50.4659 71.3828 55.9261 75.8321 60.3136 79.4072C61.429 80.3161 62.4824 81.1746 63.2845 81.8541C64.0767 82.5254 65.0478 82.8608 66.0192 82.8608C66.9897 82.8608 67.9606 82.5255 68.7526 81.8552C69.1561 81.5137 69.6157 81.1329 70.1455 80.6982C71.4467 85.7267 75.9929 89.449 81.3857 89.449C87.7898 89.449 92.9998 84.1999 92.9998 77.7478C93 72.306 89.2938 67.7199 84.2909 66.4171ZM81.3859 87.652C75.9726 87.652 71.5685 83.209 71.5685 77.7477C71.5685 72.2865 75.9726 67.8435 81.3859 67.8435C86.7992 67.8435 91.2032 72.2865 91.2032 77.7477C91.2031 83.209 86.7992 87.652 81.3859 87.652Z" fill="#F78E9B"/>
<path d="M85.6894 74.6605H84.4545V73.407C84.4545 72.3048 83.5619 71.4082 82.4646 71.4082H80.3074C79.2101 71.4082 78.3174 72.3048 78.3174 73.407V74.6605H77.0826C75.9853 74.6605 75.0927 75.5572 75.0927 76.6594V78.8359C75.0927 79.9381 75.9853 80.8347 77.0826 80.8347H78.3174V82.0883C78.3174 83.1904 79.2101 84.0871 80.3074 84.0871H82.4646C83.5619 84.0871 84.4545 83.1905 84.4545 82.0883V80.8347H85.6894C86.7866 80.8347 87.6793 79.9381 87.6793 78.8359V76.6594C87.6794 75.5572 86.7866 74.6605 85.6894 74.6605ZM85.8825 78.8358C85.8825 78.9471 85.7959 79.0377 85.6894 79.0377H83.5562C83.0601 79.0377 82.6578 79.44 82.6578 79.9362V82.0882C82.6578 82.1995 82.5711 82.2902 82.4647 82.2902H80.3074C80.2009 82.2902 80.1144 82.1996 80.1144 82.0882V79.9362C80.1144 79.44 79.7121 79.0377 79.2159 79.0377H77.0827C76.9761 79.0377 76.8896 78.9472 76.8896 78.8358V76.6593C76.8896 76.5479 76.9762 76.4573 77.0827 76.4573H79.2159C79.7121 76.4573 80.1144 76.0551 80.1144 75.5589V73.407C80.1144 73.2956 80.201 73.205 80.3074 73.205H82.4647C82.5711 73.205 82.6578 73.2956 82.6578 73.407V75.5589C82.6578 76.0551 83.0601 76.4573 83.5562 76.4573H85.6894C85.796 76.4573 85.8825 76.5479 85.8825 76.6593V78.8358Z" fill="#F78E9B"/>
</g>
<defs>
<filter id="filter0_i_12_214" x="0" y="0" width="140" height="144" filterUnits="userSpaceOnUse" color-interpolation-filters="sRGB">
<feFlood flood-opacity="0" result="BackgroundImageFix"/>
<feBlend mode="normal" in="SourceGraphic" in2="BackgroundImageFix" result="shape"/>
<feColorMatrix in="SourceAlpha" type="matrix" values="0 0 0 0 0 0 0 0 0 0 0 0 0 0 0 0 0 0 127 0" result="hardAlpha"/>
<feOffset dy="4"/>
<feGaussianBlur stdDeviation="10"/>
<feComposite in2="hardAlpha" operator="arithmetic" k2="-1" k3="1"/>
<feColorMatrix type="matrix" values="0 0 0 0 0.360784 0 0 0 0 0.47451 0 0 0 0 0.635294 0 0 0 0.3 0"/>
<feBlend mode="normal" in2="shape" result="effect1_innerShadow_12_214"/>
</filter>
<filter id="filter1_d_12_214" x="5" y="7" width="130" height="130" filterUnits="userSpaceOnUse" color-interpolation-filters="sRGB">
<feFlood flood-opacity="0" result="BackgroundImageFix"/>
<feColorMatrix in="SourceAlpha" type="matrix" values="0 0 0 0 0 0 0 0 0 0 0 0 0 0 0 0 0 0 127 0" result="hardAlpha"/>
<feOffset dy="2"/>
<feGaussianBlur stdDeviation="5"/>
<feColorMatrix type="matrix" values="0 0 0 0 0.305882 0 0 0 0 0.498039 0 0 0 0 0.870588 0 0 0 0.49 0"/>
<feBlend mode="normal" in2="BackgroundImageFix" result="effect1_dropShadow_12_214"/>
<feBlend mode="normal" in="SourceGraphic" in2="effect1_dropShadow_12_214" result="shape"/>
</filter>
<linearGradient id="paint0_linear_12_214" x1="70" y1="0" x2="70" y2="140" gradientUnits="userSpaceOnUse">
<stop stop-color="white"/>
<stop offset="1" stop-color="white" stop-opacity="0"/>
</linearGradient>
<clipPath id="clip0_12_214">
<rect width="46" height="46" fill="white" transform="translate(47 47)"/>
</clipPath>
</defs>
</svg>
