<svg width="140" height="140" viewBox="0 0 140 140" fill="none" xmlns="http://www.w3.org/2000/svg">
<g filter="url(#filter0_i_12_419)">
<circle cx="70" cy="70" r="70" fill="#FAE2E7"/>
<circle cx="70" cy="70" r="70" fill="url(#paint0_linear_12_419)"/>
</g>
<g filter="url(#filter1_d_12_419)">
<circle cx="70" cy="70" r="55" fill="white"/>
</g>
<g clip-path="url(#clip0_12_419)">
<path d="M80.9488 79.9712H81.5C87.8483 79.9641 92.9928 74.8195 93 68.4712C92.9962 65.5089 90.5956 63.1084 87.6333 63.1046H85.2298C85.295 62.0864 85.3333 61.0637 85.3333 60.0379C85.3333 59.6145 84.9901 59.2712 84.5667 59.2712H47.7667C47.3433 59.2712 47 59.6145 47 60.0379C46.9943 69.194 49.6406 78.1558 54.6191 85.8401L54.7909 86.1046H47.7667C47.3433 86.1046 47 86.4478 47 86.8712C47.0025 88.9872 48.7173 90.7021 50.8333 90.7046H81.5C83.616 90.7021 85.3308 88.9872 85.3333 86.8712C85.3333 86.4478 84.9901 86.1046 84.5667 86.1046H77.5425L77.7142 85.8401C78.9288 83.9621 80.0096 82.001 80.9488 79.9712ZM85.1049 64.6379H87.6333C89.7493 64.6404 91.4642 66.3552 91.4667 68.4712C91.4592 73.9218 87.0781 78.3572 81.628 78.4318C81.8458 77.9135 82.0543 77.3917 82.2536 76.8662C86.5982 76.4728 89.9273 72.8337 89.9333 68.4712C89.9333 67.201 88.9036 66.1712 87.6333 66.1712H84.9301C84.9971 65.6602 85.0553 65.1491 85.1049 64.6379ZM84.7054 67.7046H87.6333C88.0567 67.7046 88.4 68.0478 88.4 68.4712C88.3956 71.7643 86.0677 74.5966 82.8378 75.2386C83.6656 72.7826 84.2902 70.2628 84.7054 67.7046ZM83.6689 87.6379C83.3428 88.5562 82.4744 89.1701 81.5 89.1712H50.8333C49.8589 89.1701 48.9906 88.5562 48.6644 87.6379H83.6689ZM76.4262 85.0075L75.7163 86.1046H56.6171L55.9071 85.0075C51.2305 77.7903 48.6774 69.4034 48.5395 60.8046H83.7939C83.656 69.4035 81.1029 77.7903 76.4262 85.0075Z" fill="#B487CA"/>
<path d="M67.0557 53.6457C66.9146 53.5045 66.7598 53.3776 66.5938 53.2667C65.9042 52.8079 65.7173 51.877 66.1761 51.1875C66.2309 51.1051 66.2938 51.0283 66.3638 50.9583L66.7088 50.6133C67.0133 50.3192 67.0217 49.8338 66.7276 49.5292C66.4335 49.2247 65.9481 49.2162 65.6436 49.5103C65.6371 49.5165 65.6309 49.5228 65.6247 49.5292L65.2797 49.8742C64.0947 51.0581 64.0938 52.9785 65.2778 54.1634C65.4188 54.3047 65.5736 54.4316 65.7397 54.5425C66.4292 55.0013 66.6162 55.9321 66.1573 56.6217C66.1025 56.7041 66.0396 56.7808 65.9697 56.8509L65.6247 57.1959C65.3201 57.49 65.3117 57.9754 65.6058 58.28C65.8999 58.5845 66.3853 58.5929 66.6899 58.2988C66.6963 58.2927 66.7025 58.2864 66.7088 58.28L67.0538 57.935C68.2387 56.751 68.2396 54.8307 67.0557 53.6457Z" fill="#B487CA"/>
<path d="M71.6556 53.646C71.5145 53.5047 71.3598 53.3778 71.1937 53.267C70.5042 52.8081 70.3172 51.8773 70.776 51.1878C70.8309 51.1053 70.8937 51.0286 70.9637 50.9585L71.3087 50.6135C71.6132 50.3193 71.6217 49.834 71.3275 49.5295C71.0333 49.2249 70.548 49.2165 70.2434 49.5107C70.237 49.5168 70.2307 49.5231 70.2246 49.5295L69.8796 49.8745C68.6946 51.0584 68.6939 52.9787 69.8777 54.1637C70.0188 54.3049 70.1735 54.4318 70.3396 54.5427C71.0291 55.0015 71.2161 55.9324 70.7573 56.6219C70.7024 56.7043 70.6396 56.7811 70.5696 56.8511L70.2246 57.1961C69.9201 57.4903 69.9116 57.9756 70.2058 58.2802C70.5 58.5847 70.9853 58.5932 71.2899 58.299C71.2963 58.2928 71.3025 58.2865 71.3087 58.2802L71.6537 57.9352C72.8387 56.7513 72.8395 54.831 71.6556 53.646Z" fill="#B487CA"/>
<path d="M62.4557 53.6457C62.3146 53.5045 62.1598 53.3776 61.9938 53.2667C61.3042 52.8079 61.1173 51.877 61.5761 51.1875C61.6309 51.1051 61.6938 51.0283 61.7638 50.9583L62.1088 50.6133C62.4133 50.3192 62.4218 49.8338 62.1276 49.5292C61.8335 49.2247 61.3481 49.2162 61.0436 49.5103C61.0372 49.5165 61.0309 49.5228 61.0247 49.5292L60.6797 49.8742C59.4947 51.0581 59.4939 52.9785 60.6778 54.1634C60.8189 54.3047 60.9736 54.4316 61.1397 54.5425C61.8292 55.0013 62.0162 55.9321 61.5573 56.6217C61.5025 56.7041 61.4397 56.7808 61.3697 56.8509L61.0247 57.1959C60.7201 57.49 60.7117 57.9754 61.0058 58.28C61.2999 58.5845 61.7853 58.5929 62.0899 58.2988C62.0963 58.2927 62.1025 58.2864 62.1088 58.28L62.4538 57.935C63.6387 56.751 63.6396 54.8307 62.4557 53.6457Z" fill="#B487CA"/>
<path d="M54.4152 75.8606H54.4167C53.56 73.6545 52.8746 71.3855 52.3667 69.074C52.2867 68.6582 51.8846 68.386 51.4689 68.4661C51.0531 68.5462 50.7809 68.9482 50.861 69.3639C50.8635 69.3767 50.8663 69.3895 50.8694 69.4021C51.3932 71.7909 52.1006 74.1357 52.9854 76.4156C53.0999 76.7104 53.3837 76.9047 53.6999 76.9048C54.1233 76.9051 54.4669 76.5622 54.4672 76.1388C54.4672 76.0436 54.4497 75.9493 54.4152 75.8606Z" fill="#B487CA"/>
<path d="M56.1195 79.7153C55.9815 79.4378 55.8461 79.1585 55.7132 78.8774C55.5406 78.4908 55.0872 78.3172 54.7005 78.4899C54.3139 78.6625 54.1404 79.1159 54.313 79.5026C54.3175 79.5126 54.3221 79.5224 54.327 79.5322C54.4635 79.822 54.6033 80.1103 54.7464 80.397C54.9431 80.772 55.4065 80.9165 55.7815 80.7198C56.1446 80.5293 56.2936 80.0867 56.1195 79.7153Z" fill="#B487CA"/>
</g>
<defs>
<filter id="filter0_i_12_419" x="0" y="0" width="140" height="144" filterUnits="userSpaceOnUse" color-interpolation-filters="sRGB">
<feFlood flood-opacity="0" result="BackgroundImageFix"/>
<feBlend mode="normal" in="SourceGraphic" in2="BackgroundImageFix" result="shape"/>
<feColorMatrix in="SourceAlpha" type="matrix" values="0 0 0 0 0 0 0 0 0 0 0 0 0 0 0 0 0 0 127 0" result="hardAlpha"/>
<feOffset dy="4"/>
<feGaussianBlur stdDeviation="10"/>
<feComposite in2="hardAlpha" operator="arithmetic" k2="-1" k3="1"/>
<feColorMatrix type="matrix" values="0 0 0 0 0.360784 0 0 0 0 0.47451 0 0 0 0 0.635294 0 0 0 0.3 0"/>
<feBlend mode="normal" in2="shape" result="effect1_innerShadow_12_419"/>
</filter>
<filter id="filter1_d_12_419" x="5" y="7" width="130" height="130" filterUnits="userSpaceOnUse" color-interpolation-filters="sRGB">
<feFlood flood-opacity="0" result="BackgroundImageFix"/>
<feColorMatrix in="SourceAlpha" type="matrix" values="0 0 0 0 0 0 0 0 0 0 0 0 0 0 0 0 0 0 127 0" result="hardAlpha"/>
<feOffset dy="2"/>
<feGaussianBlur stdDeviation="5"/>
<feColorMatrix type="matrix" values="0 0 0 0 0.305882 0 0 0 0 0.498039 0 0 0 0 0.870588 0 0 0 0.49 0"/>
<feBlend mode="normal" in2="BackgroundImageFix" result="effect1_dropShadow_12_419"/>
<feBlend mode="normal" in="SourceGraphic" in2="effect1_dropShadow_12_419" result="shape"/>
</filter>
<linearGradient id="paint0_linear_12_419" x1="70" y1="0" x2="70" y2="140" gradientUnits="userSpaceOnUse">
<stop stop-color="white"/>
<stop offset="1" stop-color="white" stop-opacity="0"/>
</linearGradient>
<clipPath id="clip0_12_419">
<rect width="46" height="46" fill="white" transform="translate(47 47)"/>
</clipPath>
</defs>
</svg>
