<svg width="239" height="205" viewBox="0 0 239 205" fill="none" xmlns="http://www.w3.org/2000/svg">
<path d="M99.2576 49.529C99.2466 49.297 99.4046 49.192 99.5806 49.101C100.215 49.498 100.897 49.593 101.62 49.422C102.683 50.146 103.151 51.332 103.872 52.321C104.045 52.645 104.148 52.682 104.826 52.631C104.576 54.1 104.596 55.597 104.277 57.016C104.158 57.544 104.039 57.97 104.153 58.504C104.23 58.864 103.875 59.037 103.58 59.175C103.35 59.283 103.108 59.461 103.162 59.696C103.24 60.031 103.566 59.758 103.716 59.814C104.016 59.927 104.409 59.988 104.604 60.423C103.999 60.611 103.433 60.341 102.903 60.279C101.521 60.118 100.404 60.886 99.1466 61.122C98.5406 61.274 97.9486 61.436 97.3046 61.238C96.9126 61.117 96.5666 61.262 96.2416 61.596C95.8646 61.983 95.3096 62.122 94.8066 61.841C94.3466 61.584 94.4776 61.374 94.9606 61.334C95.6606 60.025 95.6606 60.025 94.6386 59.619C94.0626 58.911 93.1416 58.511 92.8166 57.579C93.5116 56.674 93.4746 56.543 92.2546 55.824C92.8816 55.583 93.5536 55.341 92.8176 54.573C93.4026 54.167 92.8906 53.367 93.3726 52.956C93.8796 52.524 92.8016 52.374 93.2436 51.996C93.9166 51.702 94.5506 51.348 95.0716 50.818C96.0396 50.996 95.4566 50.14 95.7056 49.838C96.0276 49.828 96.2466 50.158 96.5736 50.068C96.9446 51.307 98.4116 51.285 99.0626 52.225C99.2436 52.487 99.6176 52.318 99.7816 52.097C100.114 51.65 99.7976 51.356 99.4296 51.159C98.5546 50.69 98.5346 50.156 99.2576 49.529Z" fill="#FAE6EB"/>
<path d="M39.2497 133.981C40.7557 134.356 42.3947 135.923 42.4057 137.133C42.4167 138.304 42.3007 139.478 42.1997 140.647C42.1817 140.855 41.9717 141.055 41.8297 141.243C41.4757 141.711 41.0037 142.123 40.7697 142.644C40.2807 143.736 39.2737 144.038 38.3157 144.239C37.4057 144.43 36.3757 144.466 35.4897 144.228C34.6807 144.01 33.8487 143.569 33.1477 143.097C32.2317 142.48 31.4447 141.617 31.3607 140.362C31.3477 140.165 31.0437 140.005 31.3517 139.776C31.6457 139.557 31.4397 139.246 31.4027 138.996C31.1597 137.361 30.9607 137.571 32.0817 135.897C32.1477 135.798 32.2067 135.695 32.2697 135.594C32.6367 135.324 32.7047 134.806 33.1157 134.573C33.9037 134.669 34.5587 134.864 34.6367 135.865C34.6647 136.23 35.0947 136.492 35.4747 136.866C36.0207 135.463 37.3147 135.746 38.3047 135.806C39.0927 135.854 39.0917 135.657 39.0697 135.109C39.0527 134.722 38.9097 134.312 39.2497 133.981Z" fill="#FBE9ED"/>
<path d="M132.52 109.104C133.22 109.671 133.989 110.086 134.861 110.355C135.428 110.53 136.055 110.745 136.156 111.518C136.194 111.808 136.498 111.931 136.706 112.108C137.033 112.257 137.295 111.869 137.623 112.003C137.982 112.149 138.173 112.357 137.869 112.714C136.96 113.782 136.955 114.276 137.865 115.432C137.94 115.527 137.982 115.638 137.989 115.76C137.732 115.865 137.48 116.041 137.217 116.061C136.541 116.112 136.253 116.378 136.493 117.065C136.63 117.459 136.518 117.595 136.1 117.447C135.778 117.333 135.723 117.621 135.594 117.815C135.183 118.436 134.276 118.51 133.974 119.267C133.93 119.376 133.716 119.407 133.671 119.307C133.323 118.537 132.722 119.399 132.284 119.073C131.831 118.736 131.17 119.133 130.716 118.703C130.057 119.352 129.606 118.912 129.205 118.388C129.022 118.149 127.875 116.634 127.673 116.472C127.182 116.077 127.157 114.616 127.614 114.047C127.663 113.985 127.597 113.83 127.584 113.718C126.769 113.094 126.83 112.521 127.653 111.943C128.167 111.582 128.76 111.262 128.519 110.415C128.456 110.195 128.79 109.911 129.07 109.865C130.232 109.671 131.229 108.713 132.52 109.104Z" fill="#FAE6EB"/>
<path d="M210.546 99.3529C210.036 98.5239 209.95 97.5919 209.95 96.6589C209.95 95.9719 210.111 95.3229 210.788 94.9279C210.985 94.8129 211.137 94.6099 211.286 94.4279C212.465 92.9779 214.056 92.6689 215.743 93.0429C217.082 93.3399 218.174 94.1149 218.595 95.5639C218.727 96.0169 218.997 96.4159 219.148 96.8759C219.566 98.1519 219.174 99.1149 218.183 99.9329C217.979 100.101 217.879 100.392 217.723 100.622C217.032 101.639 215.468 102.172 214.196 101.826C214.557 100.235 214.12 99.1079 212.419 98.6549C211.933 98.5249 211.86 97.9019 211.53 97.6859C210.917 98.4119 211.163 99.3039 211.027 100.132C210.868 100.318 210.651 100.551 210.437 100.344C210.101 100.017 210.488 99.6849 210.546 99.3529Z" fill="#FBE9ED"/>
<path d="M0.39676 115.839C0.48676 115.358 1.34576 115.365 1.11076 114.616C1.01676 114.317 0.97376 114.34 0.71676 114.267C0.0987596 114.092 0.0237577 113.66 0.386758 113.134C0.929758 112.348 1.76576 111.815 2.22876 110.958C2.30876 110.81 2.56176 110.671 2.73476 110.672C3.62476 110.673 4.57376 109.965 5.39976 110.866C5.47776 110.951 5.59076 111.03 5.69976 111.054C6.34776 111.198 6.47276 111.479 6.40976 112.173C6.35876 112.731 5.88876 113.412 6.69976 113.836C6.21876 114.627 7.09176 115.121 7.13576 115.831C7.27476 118.049 5.37875 119.754 3.22675 119.215C2.69875 119.083 2.21476 119.285 1.62376 119.345C1.68576 118.641 1.75876 117.918 0.828759 117.771H0.829759C0.793759 117.7 0.756757 117.629 0.720757 117.558C0.854757 116.939 0.31476 116.448 0.39676 115.839Z" fill="#FBE9ED"/>
<path d="M132.52 109.104C132.419 109.226 132.334 109.366 132.215 109.468C131.815 109.812 131.295 108.868 131.007 109.5C130.706 110.159 130.17 109.749 129.781 109.932C129.607 110.013 129.404 110.05 129.21 110.066C128.871 110.094 128.667 110.356 128.646 110.594C128.613 110.973 129.128 110.681 129.304 111.054C128.682 111.143 128.504 111.782 127.987 112.041C127.204 112.433 127.018 112.992 127.581 113.72C127.277 113.691 127.021 113.537 126.671 113.576C125.284 113.729 124.074 113.046 123.363 112.046C122.558 110.915 122.174 109.463 122.272 108.002C122.312 107.409 122.872 107.103 123.288 106.743C123.86 106.991 124.43 106.973 125.015 106.767C125.727 106.515 126.446 106.28 127.219 106.517C127.619 106.64 127.848 106.357 128.152 106.161C128.824 105.73 129.564 105.421 130.371 105.887C130.711 106.74 131.036 107.591 131.777 108.214C132.068 108.455 132.396 108.705 132.52 109.104Z" fill="#FBECEF"/>
<path d="M147.016 69.396C146.956 69.735 146.796 69.995 146.426 70.036C145.749 70.111 145.178 70.662 144.42 70.418C143.462 70.11 142.52 70.058 141.606 70.659C141.182 70.938 140.291 70.243 140.035 69.572C139.828 69.029 139.978 68.502 140.181 68.065C140.675 66.999 140.891 65.858 141.246 64.756C141.484 64.016 142.258 63.808 142.779 63.374C142.669 62.767 142.105 63.041 141.807 62.808C141.49 62.56 141.409 62.384 141.664 62.038C141.922 61.688 142.209 61.652 142.601 61.733C142.964 61.808 143.293 61.803 143.288 62.334C143.285 62.627 143.471 62.922 143.572 63.216C145.26 62.514 146.979 63.887 147.769 65.533C147.724 65.721 147.718 65.966 147.438 65.93C147.109 65.887 146.879 65.294 146.437 65.835C145.927 66.46 145.37 67.07 145.202 67.86C145.104 68.32 145.675 68.418 145.998 68.626C146.356 68.856 147.031 68.672 147.016 69.396Z" fill="#FBEBEF"/>
<path d="M81.7617 65.5189C81.6487 64.0829 81.9897 62.8169 83.0917 61.8079C83.2717 61.6439 83.4147 61.3869 83.6637 61.5099C84.0977 61.7259 84.4537 61.9129 84.6557 61.2509C84.7027 61.0979 85.0007 61.0959 85.0667 61.2109C85.5777 62.0999 86.8147 61.8829 87.3427 62.7269C88.4957 63.1999 88.5967 64.4179 89.1657 65.3039C89.2027 65.4839 89.1297 65.6949 89.3597 65.8189C89.4717 65.8789 89.8257 65.8589 89.4857 66.1709C88.6807 66.9089 87.8907 67.6689 87.1537 68.4729C86.7317 68.9329 86.2087 69.1199 85.6847 69.0149C84.7207 68.8219 85.0947 69.3919 85.1697 69.8039C84.1967 70.0769 84.3817 69.0269 83.9077 68.7419C83.3217 68.3289 83.1667 67.3459 82.1927 67.4489C81.9467 67.2139 81.4827 67.0899 81.7567 66.5899C82.2047 66.2359 81.7537 65.8759 81.7617 65.5189Z" fill="#FAE4E9"/>
<path d="M45.4399 141.086C46.1409 140.835 46.9069 140.904 47.6479 140.795C47.7629 140.778 47.8849 140.773 47.8999 140.941C47.9199 141.175 47.6509 141.561 48.1499 141.556C48.4799 141.553 48.5129 141.181 48.6709 140.963C48.8779 140.675 49.2649 140.641 49.2689 140.998C49.2779 141.874 49.9859 142.187 50.4679 142.631C51.0549 143.171 51.1969 143.727 51.1449 144.49C51.1009 145.15 50.7269 145.696 50.7009 146.365C50.6859 146.752 50.2969 147.03 49.7799 147.181C47.8969 147.73 46.1509 147.598 44.4659 146.56C44.1129 146.343 44.1979 146.014 44.0749 145.745C43.9069 145.377 44.3749 144.767 43.6379 144.599C43.6039 144.591 43.5559 144.435 43.5839 144.393C44.2249 143.419 44.0129 142.025 45.1099 141.278C45.2079 141.211 45.3149 141.157 45.4399 141.086Z" fill="#FBEBEF"/>
<path d="M188.666 147.185C188.702 147.047 188.695 146.895 188.767 146.829C189.222 146.407 189.389 146.002 189.112 145.346C188.861 144.752 189.035 144.17 189.664 143.716C190.345 143.224 190.838 142.57 191.698 142.204C192.886 141.698 193.883 141.991 194.728 142.581C195.655 143.228 195.767 144.421 195.702 145.502C195.67 146.044 195.639 146.405 196.242 146.606C196.534 146.704 196.787 146.953 196.596 147.356C196.45 147.664 196.462 148.084 195.95 148.086C195.601 148.087 195.245 148.279 194.914 148.018C194.639 147.801 194.375 147.923 194.142 148.079C193.736 148.35 193.393 148.841 192.823 148.382C191.793 149.066 191.058 148.488 190.323 147.82C189.869 147.406 189.19 147.5 188.666 147.185Z" fill="#FBE8EC"/>
<path d="M200.236 152.801C199.619 153.209 199.353 152.474 198.894 152.389C197.339 152.102 197.106 150.851 196.955 149.63C196.842 148.721 196.576 147.709 197.665 147.056C198.331 146.656 199.031 146.278 199.565 145.681C199.669 145.565 199.832 145.485 199.997 145.574C200.839 146.028 201.786 145.881 202.677 146.052C202.836 146.083 203.049 146.12 203.058 146.285C203.074 146.611 202.829 146.431 202.665 146.468C202.289 146.553 202.278 146.818 202.583 147.021C203.208 147.438 203.22 148.145 203.451 148.748C203.822 149.72 203.05 150.391 202.786 151.196C202.738 151.343 202.66 151.479 202.596 151.621C201.885 152.166 201.332 153.026 200.236 152.801Z" fill="#FBE9ED"/>
<path d="M48.9927 97.3259C48.8857 96.9789 48.9657 96.4429 48.3337 96.4609C48.2547 96.4629 48.0867 96.2879 48.1017 96.2339C48.3337 95.3999 47.6907 94.7319 47.6897 93.9519C47.6897 93.7539 47.7227 93.5659 47.6547 93.3669C47.3547 92.4919 47.7597 91.7959 48.6397 91.2949C49.1197 91.0219 49.5857 90.7119 50.0857 90.4739C51.3907 89.8519 52.2997 90.1219 53.0887 91.3439C54.2447 93.1319 54.2087 93.9939 52.8907 95.8019C52.7687 95.9699 52.6367 96.1399 52.6907 96.3399C52.8037 96.7509 52.7387 96.8609 52.3467 96.6079C52.2607 96.5529 52.0767 96.4889 52.0757 96.6769C52.0747 96.8999 52.5917 97.1279 52.1397 97.3349C51.8507 97.4679 51.7127 97.0399 51.4767 96.9249C50.9107 96.6479 51.0757 97.6189 50.4787 97.5089C50.1177 97.4429 50.1417 96.5879 49.5777 97.1209C49.4387 97.2539 49.2617 97.3699 48.9927 97.3259Z" fill="#FAE6EB"/>
<path d="M130.372 105.884C129.859 105.897 129.339 106.113 128.863 106.069C128.155 106.004 128.311 106.966 127.694 106.878C127.189 106.806 126.642 106.58 126.189 106.703C125.629 106.854 125.041 106.987 124.508 107.224C123.888 107.501 123.53 107.32 123.289 106.741C123.644 106.14 124.396 106.005 124.793 105.454C125.455 104.954 126.09 104.449 126.244 103.547C126.338 102.999 126.73 102.77 127.285 102.771C127.794 102.772 128.304 102.727 128.993 103.111C128.67 102.464 128.445 102.027 128.232 101.583C128.114 101.338 128.164 100.976 128.414 101.024C129.347 101.203 130.127 100.51 131.113 100.717C131.911 100.885 132.486 101.015 132.76 101.851C132.935 102.383 133.65 102.696 133.426 103.403C133.239 103.997 133.523 104.657 132.659 105.145C132.034 105.497 131.429 105.308 130.869 105.584C130.689 105.672 130.4 105.533 130.372 105.884Z" fill="#FAE7EB"/>
<path d="M86.3757 73.3989C86.4637 73.8419 86.2297 74.3899 86.8647 74.4679C88.2347 74.6359 88.2277 75.7349 88.5967 76.7479C89.0867 78.0939 88.2807 78.6969 87.7247 79.6389C87.1997 80.5279 86.5127 80.6339 85.8607 80.4339C85.2477 80.2449 85.1127 81.0829 84.4757 80.7509C83.9477 80.4749 83.9277 79.7379 83.5367 79.6879C82.5697 79.5639 82.7617 78.8609 82.6167 78.2929C82.4797 77.7579 82.4587 77.1939 82.4087 76.6619C82.3637 76.1749 82.4017 75.6569 83.1017 75.1709C84.1247 74.4599 85.4247 74.3899 86.3757 73.3989Z" fill="#FEF9F5"/>
<path d="M121.314 78.451C121.635 78.526 121.863 78.602 122.096 78.629C122.466 78.672 122.648 78.956 122.502 79.201C122.148 79.793 122.269 80.506 121.93 81.09C121.832 81.259 121.763 81.46 121.735 81.654C121.633 82.366 121.205 82.69 120.545 82.93C120.122 83.083 119.558 82.971 119.264 83.46C119.234 83.51 119.098 83.555 119.052 83.53C118.404 83.169 117.734 82.881 117.021 82.655C116.658 82.54 116.616 82.008 116.433 81.66C115.627 80.127 116.588 78.989 117.255 77.781C117.411 77.499 117.626 77.454 117.951 77.486C118.835 77.573 119.769 77.18 120.597 77.813C120.758 77.937 120.978 77.846 121.153 77.724C121.345 77.591 121.499 77.13 121.785 77.537C122.082 77.959 121.535 78.014 121.379 78.243C121.359 78.269 121.357 78.308 121.314 78.451Z" fill="#FEF9F5"/>
<path d="M144.111 112.969C145.356 112.698 146.607 112.187 147.768 113.24C148.258 113.685 148.19 112.818 148.521 112.842C148.811 113.084 148.754 113.363 148.592 113.6C148.371 113.925 148.48 114.178 148.643 114.478C149.254 115.607 149.151 116.352 148.296 117.221C147.934 117.589 147.582 117.968 147.198 118.313C146.579 118.869 145.381 118.938 144.676 118.409C144.376 118.183 143.559 118.563 143.787 117.694C143.573 116.997 142.866 116.546 142.826 115.763H142.825C142.931 115.376 142.511 114.894 143.038 114.583C143.134 114.496 143.17 114.388 143.145 114.261C143.372 113.758 143.248 112.994 144.111 112.969Z" fill="#FAE4E9"/>
<path d="M223.529 130.699C223.386 131.07 222.312 131.087 223.105 131.853C223.192 131.937 222.886 132.477 222.5 132.378C222.018 132.255 221.66 132.479 221.249 132.626C220.315 132.96 218.893 132.216 218.598 131.263C218.521 131.014 218.614 130.734 218.127 130.796C217.867 130.829 218.049 130.524 218.192 130.407C219.149 129.622 219.639 128.559 220.075 127.432C220.525 126.271 221.275 125.995 222.817 126.253C223.734 126.407 224.899 127.363 224.834 128.076C224.788 128.58 224.426 129.054 224.79 129.573C224.795 129.58 224.748 129.64 224.719 129.647C224.684 129.656 224.642 129.635 224.603 129.627C224.047 129.786 224.117 130.571 223.529 130.699Z" fill="#FBE7EB"/>
<path d="M125.853 53.9559C126.416 54.6379 126.611 55.2289 126.211 55.8969C125.925 56.3759 126.34 56.4859 126.644 56.6649C127.272 57.0339 127.533 57.5229 127.217 58.2639C127.009 58.7499 126.893 59.1499 126.207 59.2379C125.482 59.3309 124.895 59.1069 124.736 58.5459C124.328 57.1059 122.94 56.5489 122.196 55.4409C121.807 54.8609 121.467 54.1269 121.607 53.4909C121.787 52.6699 122.178 51.7989 123.171 51.5469C123.798 51.3879 124.331 51.6999 124.848 51.9869C125.011 52.0769 125.156 52.3799 125.32 52.2739C126.119 51.7579 126.379 52.4159 126.813 52.8439C127.045 53.0729 127.334 53.1469 127.165 53.5679C126.997 53.9849 126.72 53.9359 126.389 53.8629C126.288 53.8419 126.169 53.8979 125.853 53.9559Z" fill="#FDF6F4"/>
<path d="M156.863 49.5579C156.849 49.4479 156.553 49.2669 156.35 49.0379C155.418 47.9849 155.571 46.3459 156.703 45.5039C158.231 44.3669 159.457 44.3649 160.607 45.4949C161.685 46.5539 161.567 48.6719 160.352 49.5539C159.912 49.8729 159.454 50.0479 159.281 50.7139C159.141 51.2539 158.416 51.2129 157.958 50.9919C157.473 50.7569 156.959 50.4499 156.863 49.5579Z" fill="#FEF9F6"/>
<path d="M35.7137 89.3359C35.0407 88.3689 35.5427 87.3779 35.8967 86.5589C36.4307 85.3239 37.4417 84.4669 38.9487 84.4959C39.0977 84.4989 39.3127 84.3779 39.3907 84.5049C39.7817 85.1429 40.3587 84.8179 40.9637 84.7529C40.8517 85.7059 40.7877 86.5489 41.0277 87.4489C41.3427 88.6259 39.9537 90.1109 38.7087 90.2029C38.0057 90.2539 37.3167 90.4149 36.6277 90.0179C36.3377 89.8509 35.9257 89.9919 35.6067 90.1919C34.4907 89.7629 35.7917 89.6359 35.7137 89.3359Z" fill="#FBE9ED"/>
<path d="M212.535 90.8449C211.389 91.5289 210.18 91.3899 209.346 90.5279C209.291 90.4709 209.172 90.3849 209.181 90.3689C209.67 89.5269 209.008 89.6829 208.556 89.6189C208.401 89.5969 208.277 89.4149 208.375 89.2489C208.69 88.7129 208.33 88.1529 208.46 87.6099C208.56 87.1909 208.403 86.5659 208.793 86.3929C209.42 86.1139 209.82 85.5389 210.447 85.3119C210.621 85.2489 210.868 85.252 211.035 85.328C212.439 85.961 213.716 86.7359 214.171 88.3579C214.294 88.7959 213.686 90.2099 213.214 90.5009C212.978 90.6469 212.717 90.7549 212.535 90.8449Z" fill="#FBECEF"/>
<path d="M155.716 105.601C155.572 105.788 155.355 105.926 155.039 105.805C154.073 105.436 152.75 105.564 152.678 103.991C152.653 103.439 152.267 103.6 151.887 103.704C150.366 104.119 149.486 103.323 149.7 101.767C149.782 101.175 150.748 100.302 151.281 100.473C151.885 100.667 152.646 100.529 153.058 101.243C153.242 101.562 153.595 101.508 153.914 101.361C155.106 100.815 155.931 101.417 156.656 102.269C157.336 103.067 156.864 103.938 156.748 104.769C156.678 105.272 156.098 105.298 155.716 105.601Z" fill="#FCF0F3"/>
<path d="M182.917 119.603C182.64 119.996 182.351 119.97 182.017 119.681C181.724 119.427 181.327 119.55 180.983 119.461C179.298 119.023 178.702 117.761 179.523 116.218C179.997 115.328 180.571 114.491 181.771 114.591C182.133 114.621 182.281 114.275 182.621 114.23C182.972 114.184 183.35 113.807 183.224 114.559C183.212 114.633 183.245 114.781 183.247 114.781C183.901 114.721 184.094 115.442 184.445 115.579C185.233 115.888 184.874 116.577 184.807 116.738C184.415 117.69 183.875 118.582 183.358 119.478C183.302 119.574 183.065 119.565 182.917 119.603Z" fill="#FAE7EB"/>
<path d="M93.1978 174.248C92.9768 174.244 92.7118 174.351 92.7588 174.544C93.0128 175.602 92.0348 175.777 91.5188 176.154C90.8538 176.641 89.9168 176.533 89.1258 176.503C88.5218 176.48 87.9708 175.847 87.8138 175.25C87.5708 174.324 87.4638 173.335 88.2478 172.52C89.1328 171.601 89.8308 171.398 90.8668 172.108C91.4118 172.482 92.3458 172.378 92.5008 173.32C92.5358 173.533 92.8358 173.433 93.0298 173.41C93.3308 173.375 93.6138 173.448 93.6958 173.771C93.7958 174.173 93.4838 174.214 93.1978 174.248Z" fill="#FCF0F2"/>
<path d="M62.5669 196.558C62.3239 197.111 62.9799 197.014 63.0859 197.367C63.4029 198.422 62.5858 199.719 61.4668 199.82C60.7788 199.882 60.1409 200.207 59.3949 199.853C57.9169 199.152 57.5649 197.182 58.5739 195.894C59.1669 195.137 59.5278 194.956 60.3808 195.452C60.7668 195.676 61.4009 195.441 61.8769 195.814C62.1659 196.039 62.3849 196.285 62.5669 196.558Z" fill="#FCF1F3"/>
<path d="M55.0368 65.7269C54.5758 66.7469 53.5938 66.9359 52.6718 67.0459C51.7758 67.1529 51.1438 66.6219 50.7628 65.7809C50.3768 64.9289 50.4888 64.1799 51.0288 63.4359C51.3748 62.9589 52.1068 62.7749 52.0508 61.9489C52.0368 61.7459 52.6908 61.3149 53.0078 61.7669C53.5038 62.4739 53.8588 62.0439 54.3488 61.6609C54.3628 62.4019 54.4788 62.9759 55.1158 63.4349C55.6178 63.7969 55.4608 64.5049 55.2518 65.0829C55.2078 65.3079 55.2048 65.5449 55.0368 65.7269Z" fill="#FBECEF"/>
<path d="M118.749 166.371C119.395 167.578 118.636 169.692 117.37 170.209C116.855 170.42 115.134 169.705 114.763 169.126C113.733 167.522 113.828 167.073 115.429 165.925C115.772 165.679 115.997 165.161 116.492 165.263C117.109 165.39 117.704 165.633 118.304 165.838C118.55 165.922 118.641 166.159 118.749 166.371Z" fill="#FCF2F4"/>
<path d="M25.3138 81.06C25.5668 82.407 24.8168 83.126 23.8668 83.722C23.6958 83.829 23.5228 83.925 23.4938 84.15C23.4658 84.366 23.3548 84.571 23.1408 84.563C22.7058 84.548 23.0438 84.193 22.9548 84.054C22.7268 83.701 22.5128 83.295 22.2398 83.023C21.3278 82.114 21.4778 80.999 21.5338 79.933C21.5978 78.706 22.4168 78.306 23.5688 78.696C24.0298 78.852 24.3958 79.109 24.8028 79.329C25.0868 79.482 25.2528 79.63 25.1538 79.972C25.0288 80.403 25.1678 80.575 25.6308 80.457C25.8748 80.395 26.1678 80.445 26.2198 80.712C26.2758 81.003 26.5148 81.401 26.2488 81.603C25.7598 81.975 25.7228 81.273 25.3138 81.06Z" fill="#FBEBEE"/>
<path d="M60.3078 110.918C60.0578 111.36 59.8188 111.06 59.5178 110.979C58.6408 110.742 57.9918 110.047 57.0548 109.901C56.3378 109.79 56.6408 109.171 56.9188 108.904C57.3048 108.534 57.5048 108.171 57.6728 107.648C58.1628 106.118 60.6228 105.716 61.6318 106.913C62.3878 107.809 61.7908 108.728 61.5268 109.498C61.3638 109.972 61.1018 110.8 60.3078 110.918Z" fill="#FBEAEE"/>
<path d="M112.456 65.7399C112.085 66.1489 111.871 66.7249 111.121 66.6779C110.892 66.6629 110.987 67.3839 110.462 67.3529C110.388 67.3479 110.318 67.5439 110.22 67.5949C110.041 67.6869 107.137 66.8729 107.051 66.6869C106.811 66.1679 106.472 65.7489 105.99 65.4389C105.747 65.2819 105.749 64.9939 105.831 64.7939C106.034 64.2999 106.289 63.8679 106.216 63.2619C106.19 63.0479 107.003 62.8799 106.985 62.3059C107.538 62.6319 107.95 63.1839 108.76 63.0489C109.218 62.9729 109.424 63.4539 109.234 63.9039C109.041 64.3619 108.916 64.8039 109.125 65.2249C109.168 64.8849 108.814 64.2679 109.306 64.1179C109.858 63.9489 110.51 63.6479 111.115 64.1129C111.688 64.5519 112.09 65.1289 112.456 65.7399Z" fill="#FCECEE"/>
<path d="M99.9318 96.0219C98.9358 95.9469 98.5888 96.4719 98.1998 97.0389C97.5528 97.9799 96.7218 98.0949 95.8138 97.3999C95.3488 97.0449 95.2178 97.3659 94.9518 97.7519C94.8198 97.1339 94.8408 96.5959 94.4978 96.0829C93.9038 95.1929 94.6058 93.7929 95.6598 93.7139C96.2468 93.6699 96.1948 93.1649 96.2358 92.9899C96.4198 92.2009 96.7448 92.2969 97.3248 92.5819C97.8998 92.8649 98.1478 93.3149 98.2678 93.8699C98.4988 94.9409 98.8808 95.5129 99.9318 96.0219Z" fill="#FCEFF2"/>
<path d="M183.868 128.504C183.834 128.235 184 126.864 184.14 126.658C185.371 124.847 186.738 124.749 188.247 126.368C188.381 126.512 188.459 126.743 188.619 126.825C189.564 127.307 188.77 128.278 188.678 128.313C188.013 128.562 187.67 129.24 186.952 129.435C186.341 129.601 185.783 129.639 185.199 129.494C184.616 129.348 184.255 128.903 183.868 128.504Z" fill="#FBE9ED"/>
<path d="M110.515 49.26C111.746 48.759 112.873 48.874 113.488 49.562C114.654 50.869 114.195 52.569 112.529 53.119C112.183 53.233 111.895 53.419 111.673 53.727C111.476 54.001 111.316 54.353 110.831 54.199C110.345 54.045 110.011 53.675 110.049 53.261C110.106 52.628 109.892 52.116 109.709 51.553C109.484 50.866 110.035 49.455 110.515 49.26Z" fill="#FEF8F4"/>
<path d="M130.6 52.65C130.308 52.465 130.047 52.618 129.83 52.773C128.657 53.604 127.685 52.895 126.794 52.29C125.998 51.75 126.438 49.14 127.314 48.727C128.48 48.177 130.128 48.84 130.655 50.095C130.894 50.664 131.009 51.303 131.67 51.576C131.773 51.616 131.853 51.681 131.909 51.777C131.994 52.849 131.181 52.575 130.6 52.65Z" fill="#FEF9F6"/>
<path d="M22.9008 86.506C22.3018 86.907 21.9158 87.546 21.4598 88.127C20.7528 89.027 19.4858 89.037 18.7618 88.166C17.7348 86.931 17.7048 85.992 18.5358 84.555C18.7578 84.171 18.9498 84.612 19.1018 84.464C20.1708 83.423 21.2838 84.097 22.5178 84.43C21.5828 84.862 22.1868 85.582 22.1308 86.181C22.0688 86.845 22.7278 85.983 22.9008 86.506Z" fill="#FBE9ED"/>
<path d="M39.2498 133.981C39.2868 134.373 39.2678 134.78 39.3738 135.153C39.5398 135.738 39.3468 136.146 38.9178 136.483C38.7068 136.547 38.6298 136.401 38.5238 136.285C38.2918 136.03 38.2838 136.027 37.7338 136.265C37.5528 136.343 37.4528 136.204 37.3138 136.169C36.4628 135.953 36.0848 136.205 35.9118 137.095C35.8818 137.251 35.8818 137.422 35.7048 137.471C35.5358 137.518 35.3148 137.406 35.3048 137.29C35.2388 136.485 33.7508 136.37 34.3338 135.269C33.8928 135.133 33.4758 134.95 33.1318 134.63C33.4198 134.13 34.1978 133.91 33.9898 133.127C34.4478 132.394 35.3408 132.569 35.8058 132.699C36.9208 133.01 38.2188 132.858 39.1388 133.774C39.1768 133.842 39.2128 133.911 39.2498 133.981Z" fill="#FAE4E9"/>
<path d="M89.9307 128.858C89.4077 129.723 89.0367 130.359 88.6427 130.98C88.1437 131.766 87.9007 131.808 86.9527 131.48C86.5847 131.353 86.2007 131.28 85.8277 131.135C84.8137 130.74 84.5037 130.457 84.5137 129.458C84.5207 128.757 84.9006 128.138 85.2336 127.531C85.3266 127.361 85.4967 127.359 85.6277 127.483C85.9377 127.778 86.2207 127.529 86.5027 127.448C87.2647 127.228 87.8637 127.375 88.3937 128.023C88.7327 128.436 89.1027 128.9 89.9307 128.858Z" fill="#FCEEF1"/>
<path d="M18.3328 135.544C18.5208 134.997 17.7238 134.512 18.1408 133.904C18.6998 133.089 19.3538 132.215 20.3578 132.114C21.0628 132.043 21.6838 132.749 21.9828 133.405C22.1658 133.806 22.3298 134.26 22.4688 134.703C22.7058 135.459 22.5808 136.045 21.8628 136.391C21.3628 136.632 21.1058 137.188 20.3978 137.201C19.2048 137.222 19.0438 136.143 18.3328 135.544Z" fill="#FCEEF1"/>
<path d="M162.79 81.635C162.052 81.936 161.313 82.1769 160.549 81.7019C160.485 81.6619 160.389 81.6779 160.32 81.6429C159.915 81.4379 159.333 82.043 159.058 81.443C158.656 80.567 158.189 79.651 158.869 78.694C159.321 78.057 159.781 77.4649 160.727 77.5429C161.606 77.6149 162.064 78.1179 162.351 78.8519C162.425 79.0419 162.43 79.2639 162.681 79.2529C163.42 79.2199 163.266 79.8479 163.434 80.2379C163.439 80.2899 163.444 80.3419 163.449 80.3949C163.241 80.8129 162.61 81.008 162.79 81.635Z" fill="#FEF9F5"/>
<path d="M192.439 4.03493C191.779 4.36993 189.432 3.71593 189.462 3.09093C189.487 2.56693 188.87 2.25193 189.187 1.82693C189.624 1.24193 190.083 0.63493 190.657 0.20093C191.383 -0.34807 193.191 0.30893 193.68 1.19493C194.127 2.00493 193.468 3.51293 192.439 4.03493Z" fill="#FAE6EB"/>
<path d="M102.087 201.666C101.581 202.11 101.394 202.62 101.244 203.147C101.038 203.872 100.487 204.145 99.8078 204.15C99.2718 204.154 98.3288 203.16 98.2878 202.635C98.2718 202.428 98.3098 202.221 98.4758 202.094C99.2298 201.516 98.9938 200.889 98.6428 200.197C98.2598 199.441 98.4008 199.185 99.1958 198.921C99.4198 198.847 99.6778 198.804 99.8528 198.663C100.741 197.951 101.085 198.851 101.501 199.267C101.946 199.71 101.539 200.106 101.193 200.455C100.95 200.7 100.658 200.943 100.844 201.376C101.095 201.958 101.548 201.458 102.087 201.666Z" fill="#FCF3F5"/>
<path d="M70.4537 122.946C69.6667 123.363 68.4448 122.765 68.2348 121.832C68.1148 121.3 68.1257 120.757 67.4667 120.494C67.1477 120.367 67.2228 119.918 67.3068 119.619C67.4148 119.239 67.8038 119.366 68.0258 119.412C68.6258 119.535 69.1397 119.47 69.5467 118.991C69.7497 118.752 69.9218 118.878 70.1648 118.925C71.1488 119.116 71.5898 120.031 72.3628 120.495C72.5918 120.632 72.4198 120.831 72.3258 121.008C72.0068 121.612 71.0187 122.646 70.4537 122.946Z" fill="#FBEDF0"/>
<path d="M91.9097 151.99C92.4747 152.285 92.7497 152.657 92.6107 153.11C92.3847 153.844 92.7707 153.936 93.3217 153.959C93.9177 153.984 94.1767 154.181 93.9467 154.859C93.7837 155.341 94.0197 155.862 94.1347 156.364C94.2517 156.876 94.1917 157.128 93.4457 157.159C92.6177 157.194 91.8567 157.124 91.0447 157.003C90.1057 156.862 90.0957 156.245 90.0767 155.64C90.0557 154.966 89.8647 153.999 90.8107 153.876C92.0587 153.715 91.9017 152.908 91.9097 151.99Z" fill="#FCF0F3"/>
<path d="M163.435 80.2379C163.811 79.8209 163.593 79.2439 163.853 78.7729C164.407 77.7689 165.453 77.1229 166.224 77.4019C167.163 77.7429 167.908 78.9809 167.674 80.0129C167.557 80.5279 167.596 81.0089 167.685 81.5159C166.726 81.5569 165.831 81.5959 164.936 81.6349C164.58 81.0149 163.834 80.8129 163.434 80.2399L163.435 80.2379Z" fill="#FEF9F5"/>
<path d="M112.456 65.7399C112.316 65.7919 112.104 65.9049 112.067 65.6999C111.941 65.0049 111.239 64.8059 110.916 64.2889C110.803 64.1089 110.614 63.9419 110.45 64.1689C110.096 64.6579 109.702 64.3199 109.373 64.1769C109.089 64.6969 109.407 65.0569 109.498 65.4109C109.597 65.7949 109.508 65.9239 109.196 65.9989C108.845 66.0839 108.815 65.8449 108.812 65.5839C108.805 65.0029 108.71 64.4309 109.032 63.8699C109.261 63.4719 108.988 63.0119 108.592 63.2199C107.472 63.8079 107.336 62.9209 106.984 62.3049C107.202 62.0749 107.451 61.8669 107.63 61.6099C108.013 61.0609 108.496 61.1379 108.997 61.3549C109.532 61.5859 109.952 62.0709 110.613 62.0289C110.825 62.0159 110.886 62.2469 110.974 62.4379C111.24 63.0129 111.685 63.3019 112.35 63.3979C113.494 63.5639 113.607 63.9349 112.903 64.7999C112.682 65.0729 112.402 65.3299 112.456 65.7399Z" fill="#FAE4E9"/>
<path d="M89.0717 71.022C88.6257 70.154 88.9167 68.636 89.8457 68.296C90.3567 68.108 89.9897 67.438 90.3457 67.635C91.0337 68.016 91.8837 68.101 92.4327 68.721C92.9987 69.359 92.9607 71.173 92.3737 71.712C92.1727 71.897 91.9057 72.075 91.6277 72.04C90.9267 71.953 90.2267 71.84 89.5397 71.68C89.2547 71.613 89.2137 71.255 89.0717 71.022Z" fill="#FEF9F4"/>
<path d="M202.05 49.379C201.591 49.484 200.922 49.606 200.453 49.038C199.914 48.384 199.407 47.662 199.549 46.737C199.609 46.346 199.295 46.282 199.126 46.091C199.002 45.95 198.981 45.813 199.071 45.665C199.171 45.502 199.338 45.48 199.48 45.581C199.93 45.9 200.211 45.718 200.621 45.408C201.129 45.025 201.756 45.439 202.164 45.711C202.726 46.087 203.623 46.237 203.586 47.245C203.55 48.234 203.041 48.863 202.05 49.379Z" fill="#FCEFF2"/>
<path d="M154.978 13.3959C154.384 12.0999 154.823 11.0939 156.174 10.6109C158.056 9.93695 158.157 9.99595 158.56 11.9999C158.718 12.7889 158.342 13.7559 157.65 14.1519C156.909 14.5769 156.111 14.4329 155.357 14.1869C155.042 14.0829 155.192 13.6039 154.978 13.3959Z" fill="#FBE9ED"/>
<path d="M125.606 33.948C124.642 34.413 124.135 34.198 123.797 33.193C123.695 32.89 123.513 32.643 123.297 32.397C122.732 31.755 122.718 31.088 123.184 30.339C123.685 29.535 124.242 29.284 125.03 29.506C125.664 29.685 126.233 30.454 126.275 31.233C126.284 31.395 126.315 31.509 126.393 31.655C126.863 32.544 126.519 33.507 125.606 33.948Z" fill="#FEF9F5"/>
<path d="M165.882 135.102C165.255 135.243 164.449 135.082 163.881 135.7C163.854 135.729 163.725 135.688 163.658 135.653C163.193 135.407 163.518 134.994 163.511 134.686C163.501 134.209 162.497 134.813 162.904 134.06C163.082 133.732 162.839 133.417 162.962 133.047C163.28 132.094 163.859 131.559 164.838 131.544C165.376 131.536 165.896 131.689 166.311 131.967C166.692 132.223 167.138 132.487 167.02 133.19C166.887 133.984 166.703 134.655 165.882 135.102Z" fill="#FBECF0"/>
<path d="M230.338 49.8359C229.932 49.0729 230.268 47.5259 230.907 47.2119C231.779 46.7839 233.339 47.5039 233.936 48.6099C234.236 49.1669 233.434 50.8839 232.716 51.2219C231.842 51.6339 231.048 51.1719 230.338 49.8359Z" fill="#FCF1F4"/>
<path d="M180.357 37.8699C179.838 36.8409 180.222 35.5929 181.195 35.1519C181.938 34.8149 183.339 35.2499 183.676 35.9219C184.202 36.9719 183.931 38.3259 183.111 38.7459C182.089 39.2689 180.867 38.8799 180.357 37.8699Z" fill="#FCF3F5"/>
<path d="M101.494 83.5329C101.196 84.4559 100.115 84.1549 99.9826 84.4809C99.5756 85.4859 98.8596 84.7029 98.3856 84.9019C98.3606 84.9879 98.3276 85.0379 98.3416 85.0619C99.0776 86.3719 99.0786 86.3719 100.334 85.2779C100.459 85.5719 100.505 85.8809 100.243 86.0279C99.2416 86.5899 98.2556 87.2219 97.0236 87.1369C96.1996 87.0799 96.1946 86.3659 96.0686 85.8489C95.9406 85.3229 96.1117 84.7709 96.8087 84.7399C97.5907 84.7059 97.9686 84.4099 98.1806 83.5849C98.4396 82.5739 99.1286 82.3789 100.109 82.8199C100.573 83.0289 101.015 83.2849 101.494 83.5329Z" fill="#FCEFF1"/>
<path d="M165.242 168.107C165.297 168.047 165.359 167.92 165.458 167.878C166.062 167.62 166.902 167.47 167.231 167.902C167.636 168.433 168.45 168.947 168.204 169.77C168.031 170.349 167.678 170.881 166.951 171.093C165.348 171.559 164.974 171.466 164.314 170.16C163.842 169.227 164.048 168.644 164.996 168.229C165.068 168.197 165.137 168.159 165.242 168.107Z" fill="#FCF3F5"/>
<path d="M186.29 102.407C186.398 102.834 186.533 103.491 186.86 104.089C186.969 104.289 186.853 104.54 186.637 104.543C185.628 104.56 184.691 105.111 183.653 104.917C183.058 104.805 182.849 104.262 182.604 103.873C182.37 103.503 182.478 102.922 182.83 102.543C183.466 101.858 184.28 101.511 185.203 101.392C185.83 101.31 186.018 101.745 186.29 102.407Z" fill="#FBEBEF"/>
<path d="M190.221 140.638C190.123 140.096 189.667 139.602 190.048 138.994C190.131 138.861 190.074 138.722 190.016 138.56C189.727 137.756 189.744 137.798 190.663 137.766C191.053 137.753 191.404 137.398 191.835 137.39C193.296 137.362 193.95 138.242 193.259 139.524C192.887 140.214 192.642 141.15 191.608 141.337C190.928 141.461 190.435 141.392 190.221 140.638Z" fill="#FBECEF"/>
<path d="M210.87 99.997C210.953 99.852 211.002 99.689 210.9 99.55C210.564 99.087 210.53 98.668 210.997 98.262C211.107 98.166 211.152 97.992 211.22 97.85C211.336 97.61 210.403 97.569 211.086 97.251C211.467 97.074 211.931 97.412 211.98 97.657C212.132 98.415 212.909 98.413 213.26 98.891C213.49 99.204 213.815 99.23 214.098 99.035C214.654 98.652 214.723 98.923 214.654 99.408C214.538 100.22 214.632 101.073 214.194 101.825C213.961 101.975 213.697 101.909 213.446 101.931C213.066 102.464 212.677 102.312 212.284 101.948C211.683 101.393 211.178 100.767 210.87 99.997Z" fill="#FAE4E9"/>
<path d="M125.38 75.7679C125.581 75.7169 125.749 75.6519 125.923 75.5349C126.438 75.1889 127.127 74.9519 127.623 75.2359C128.499 75.7369 128.711 76.6939 128.454 77.6049C128.242 78.3579 127.919 78.9149 127.026 78.9589C126.652 78.9779 126.301 79.0549 126.096 78.6599C125.796 78.0799 124.669 78.1019 124.956 77.0799C124.984 76.9799 124.698 76.9499 124.557 76.8859C124.041 76.6529 124.113 76.3239 124.571 76.1859C124.889 76.0909 125.165 76.0019 125.38 75.7679Z" fill="#FEF9F4"/>
<path d="M86.5247 188.279C86.1387 188.195 85.9317 187.711 85.3207 187.993C84.7527 188.256 83.7317 186.885 83.8187 186.173C83.8857 185.629 84.0877 185.092 83.8407 184.415C84.3857 184.622 84.8037 184.473 85.2287 184.44C86.4067 184.348 87.0257 185.204 87.6217 185.961C87.7467 186.119 87.9207 186.968 87.2607 187.282C86.8137 187.495 86.8277 187.523 86.5247 188.279Z" fill="#FCF1F4"/>
<path d="M171.212 60.7909C172.322 60.2489 172.82 60.5199 173.206 61.6949C173.452 62.4429 173.18 63.1259 173.046 63.7829C172.873 64.6299 171.456 65.0269 170.672 64.6049C170.14 64.3189 169.71 64.0259 170.191 63.3409C170.372 63.0839 170.415 62.7749 170.363 62.4319C170.195 61.3299 170.246 61.2629 171.212 60.7909Z" fill="#FEF9F5"/>
<path d="M103.872 52.3209C103.27 52.2099 102.947 51.6329 102.765 51.2479C102.45 50.5799 101.877 50.1019 101.62 49.4229C102.205 49.1099 102.867 48.8869 103.355 48.4629C104.032 47.8759 104.443 48.2119 104.983 48.6229C105.487 49.0059 105.582 49.6089 105.927 50.0709C106.15 50.3689 105.922 50.6349 105.691 50.8919C105.164 51.4759 104.531 51.9129 103.872 52.3209Z" fill="#FEF8F5"/>
<path d="M56.2047 133.56C56.4017 134.131 55.9537 135.144 55.3557 135.599C54.6197 136.158 53.8027 136.064 53.1047 135.707C52.3677 135.329 51.7087 134.628 51.8677 133.737C52.0107 132.936 52.2677 132.136 53.2807 131.734C54.1617 131.384 54.6657 131.676 55.2407 132.165C54.8997 132.613 54.3077 132.737 54.0277 133.077C54.5357 134.234 55.3567 133.973 56.2047 133.56Z" fill="#FCEEF1"/>
<path d="M71.5957 73.4969C71.4787 74.0759 71.1957 74.4709 71.6187 75.0009C72.0297 75.5149 71.6447 76.3089 71.3187 76.7599C71.0127 77.1839 70.5817 77.5009 70.4307 78.0629C70.3757 78.2659 70.0327 78.4049 69.8797 78.0839C69.6277 77.5549 69.1147 77.3379 68.7067 76.9979C68.0187 76.4229 67.9707 75.3979 68.6407 74.8099C68.8777 74.6019 69.1417 74.4319 69.3677 74.1999C69.6507 73.9099 69.9227 73.5149 70.4627 73.8969C70.8397 74.1629 71.1317 73.6459 71.5957 73.4969Z" fill="#FBEDF0"/>
<path d="M180.852 75.3629C181.449 76.4299 181.256 77.1749 180.201 77.7559C179.893 77.9259 179.355 78.2899 179.262 78.1369C178.899 77.5379 178.143 77.4119 177.828 76.8109C177.487 76.1609 177.536 74.8679 177.902 74.6719C179.497 73.8169 180.061 73.9489 180.852 75.3629Z" fill="#FBEEF1"/>
<path d="M132.532 53.828C132.869 53.759 133.197 54.124 133.52 53.73C133.685 54.377 133.267 54.503 132.94 54.708C132.544 54.957 132.347 55.253 132.795 55.647C132.881 55.722 132.995 55.833 132.994 55.926C132.99 56.327 132.426 56.73 133.175 57.127C133.479 57.288 133.514 57.959 133.659 58.362C132.199 59.462 131.547 58.234 130.763 57.353C130.786 57.11 131.075 57.227 131.204 57.114C131.678 56.699 131.623 56.335 131.028 56.112C130.535 55.927 130.064 55.724 129.774 55.268C129.584 54.969 129.37 54.629 129.846 54.366C130.71 54.031 131.586 53.754 132.532 53.828Z" fill="#FCF0F3"/>
<path d="M222.886 110.359C222.276 110.652 220.896 110.339 220.637 109.848C220.283 109.178 220.905 107.284 221.577 106.991C222.34 106.658 223.744 107.015 224.006 107.608C224.371 108.437 223.759 109.939 222.886 110.359Z" fill="#FBEEF1"/>
<path d="M195.086 137.131C194.98 136.919 194.874 136.707 194.68 136.319C195.339 136.478 195.866 136.318 196.327 136.129C197.211 135.767 197.689 136.217 198.122 136.814C198.494 137.327 198.346 138.57 197.926 139.06C197.589 139.454 197.141 139.709 196.662 139.574C195.991 139.385 195.087 139.905 194.658 138.954C194.782 138.845 194.818 138.53 194.768 138.328C194.657 137.876 195.028 137.543 195.086 137.131Z" fill="#FBEAED"/>
<path d="M163.435 80.24C164.062 80.569 165.052 80.507 164.937 81.635C164.724 81.775 164.58 81.897 164.777 82.193C165.527 83.323 165.322 84.258 164.24 85.085C163.956 85.302 163.759 85.264 163.5 85.119C162.798 84.723 162.429 83.776 162.754 82.974C162.943 82.508 163.102 82.092 162.792 81.635C162.64 81.33 162.488 81.026 162.302 80.655C162.78 80.631 163.236 80.731 163.435 80.24Z" fill="#FCEEF1"/>
<path d="M143.885 135.62C143.304 136.018 142.431 135.473 141.942 136.227C141.883 136.317 141.608 136.222 141.578 136.044C141.418 135.104 141.244 134.165 141.151 133.218C141.114 132.839 142.671 132.186 143.005 132.439C143.596 132.886 144.176 133.358 144.704 133.876C145.039 134.203 144.486 135.323 143.885 135.62Z" fill="#FCF2F4"/>
<path d="M31.0027 116.539C30.1567 116.792 30.2557 117.623 29.7697 118.071C29.0117 118.769 27.9287 119.024 27.1137 118.496C26.9437 118.386 26.9377 118.265 26.9377 118.105C26.9407 117.142 27.4247 116.231 27.2147 115.233C27.1747 115.041 27.4527 114.757 27.6027 114.665C28.6637 115.387 29.5487 116.294 31.0027 116.539Z" fill="#FBEDF0"/>
<path d="M147.016 69.396C146.263 68.875 145.186 68.935 144.676 68.005C145.225 67.303 145.436 66.303 146.199 65.634C146.638 65.249 146.944 64.762 147.332 65.675C147.453 65.959 147.627 65.617 147.767 65.532C148.59 67.187 148.453 67.895 147.016 69.396Z" fill="#FDF4F1"/>
<path d="M202.398 92.693C201.619 93.089 200.457 92.783 200.138 92.097C199.628 91 199.824 89.956 200.61 89.573C201.503 89.138 202.655 89.504 203.078 90.356C203.523 91.254 203.226 92.272 202.398 92.693Z" fill="#FBEDF0"/>
<path d="M152.573 44.0119C152.262 43.3689 152.585 42.1749 153.128 41.9579C153.968 41.6209 155.396 42.1679 155.805 42.9829C156.119 43.6089 155.536 44.9859 154.821 45.3049C154.197 45.5859 153.002 44.8979 152.573 44.0119Z" fill="#FEFAF7"/>
<path d="M189.454 25.2269C188.537 24.7699 187.629 24.9579 187.041 24.1839C186.642 23.6589 186.438 23.2139 186.684 22.5709C186.94 21.9019 187.379 21.5539 188.091 21.5479C188.17 21.5469 188.264 21.5309 188.325 21.5669C188.852 21.8719 189.654 20.9869 189.925 21.7459C190.179 22.4559 189.934 23.2989 189.52 23.9899C189.304 24.3509 188.973 24.6499 189.454 25.2269Z" fill="#FBECEF"/>
<path d="M208.066 25.8419C209.801 25.4379 209.961 25.2479 209.206 24.4279C209.655 24.2679 210.125 24.2429 210.521 23.9359C210.95 23.6029 211.702 23.8489 211.912 24.2969C212.261 25.0429 212.043 26.0199 211.422 26.1229C210.833 26.2199 210.462 26.3519 210.405 27.0199C210.37 27.4249 210.164 27.8769 209.649 27.7239C209.117 27.5649 208.348 27.6479 208.224 26.8749C208.17 26.5349 207.947 26.2069 208.066 25.8419Z" fill="#FCF3F5"/>
<path d="M183.864 91.0799C183.718 90.7229 183.556 90.4569 183.5 90.1319C183.328 89.1299 183.48 88.7689 184.44 88.6879C185.118 88.6299 185.949 88.6099 186.404 89.2579C186.767 89.7749 186.853 90.4359 186.367 91.0049C186.014 91.4189 186.683 92.1509 185.93 92.4289C185.317 92.6549 185.224 91.7719 184.646 91.8219C184.127 91.8659 183.868 91.5229 183.864 91.0799Z" fill="#FBEDF0"/>
<path d="M53.4876 109.713C53.0536 108.839 53.3496 108.498 53.5726 108.153C52.3296 107.625 52.3296 107.625 52.2756 106.66C52.9206 106.781 53.5586 106.832 54.1266 107.067C54.6356 106.671 53.3006 106.064 54.2916 105.856C55.1516 105.675 54.2866 106.596 54.8146 106.751C55.4616 105.25 56.2016 106.73 57.0396 106.601C56.7626 107.212 56.5696 107.686 56.3376 108.141C55.9086 108.983 55.0056 108.765 54.3256 108.887C53.9116 108.962 53.5486 108.842 53.4876 109.713Z" fill="#FCEFF2"/>
<path d="M188.715 59.6969C188.401 59.4769 188.366 59.1849 188.533 59.0279C188.997 58.5889 188.963 58.1769 188.666 57.6669C188.53 57.4349 189.65 55.6099 189.888 55.6559C190.188 55.7139 190.48 55.8809 190.742 56.0539C192.062 56.9239 192.19 58.1489 191.075 59.1189C190.862 59.3039 190.603 59.5189 190.333 59.3209C189.632 58.8069 189.113 59.0329 188.715 59.6969Z" fill="#FCEFF2"/>
<path d="M76.5269 75.2499C76.8809 74.7349 76.9079 74.1659 77.1189 73.6629C77.4529 72.8679 78.0098 72.7389 78.8338 72.7629C79.5828 72.7839 80.0688 73.1579 80.3188 73.6529C80.6618 74.3309 80.3098 75.1009 79.8548 75.6249C79.5228 76.0069 78.8158 75.8149 78.4198 75.6399C77.8178 75.3719 77.2289 75.3229 76.5269 75.2499Z" fill="#FEF9F5"/>
<path d="M148.468 96.675C148.819 96.225 148.929 95.74 148.48 95.022C149.233 95.373 149.768 95.602 150.283 95.869C150.791 96.132 150.919 96.571 150.652 97.063C150.388 97.552 149.971 97.919 149.391 97.625C148.905 97.379 148.53 97.13 148.086 97.708C147.97 97.859 147.556 97.833 147.289 97.803C147.066 97.778 146.683 97.647 146.67 97.53C146.555 96.521 144.984 96.847 145.019 95.582C146.275 95.707 147.488 95.751 148.468 96.675Z" fill="#FCEEF1"/>
<path d="M155.932 178.756C155.586 178.021 155.978 176.99 156.761 176.697C157.32 176.488 158.03 176.585 158.256 175.795C158.311 175.604 158.552 175.711 158.609 175.848C158.763 176.218 159.236 176.561 158.783 177.016C158.517 177.283 158.704 177.518 158.788 177.779C159.05 178.594 158.871 179.152 158.302 179.367C157.149 179.803 156.325 179.59 155.932 178.756Z" fill="#FDF5F6"/>
<path d="M93.1628 178.977C93.7238 178.663 94.9848 178.845 95.0768 179.341C95.1888 179.942 95.6769 180.429 95.6109 181.006C95.5789 181.287 95.1098 181.546 94.8338 181.771C94.1968 182.293 92.6288 181.922 92.2778 181.264C91.8928 180.541 92.3138 179.453 93.1628 178.977Z" fill="#FCF2F4"/>
<path d="M99.2577 49.529C99.1127 50.062 98.4527 50.718 99.6747 50.877C100.158 50.94 100.318 51.486 100.375 51.896C100.426 52.269 100.061 52.537 99.7097 52.587C99.2797 52.648 98.7687 52.705 98.5587 52.162C98.4537 51.89 98.4077 51.765 98.0337 51.706C96.9117 51.53 96.7287 51.255 96.5747 50.066C96.6437 49.925 96.7557 49.789 96.7747 49.642C96.8207 49.277 96.8917 48.749 97.2807 48.857C97.7607 48.99 98.5487 48.281 98.7477 49.321C98.7877 49.527 99.0487 49.55 99.2577 49.529Z" fill="#FCEDEE"/>
<path d="M154.189 137.374C153.437 137.414 152.695 137.545 151.932 137.355C151.215 137.177 150.854 136.796 150.86 136.055C150.867 135.115 151.234 134.452 151.948 134.362C152.587 134.282 153.228 134.268 153.578 135.083C153.896 135.827 154.235 136.538 154.189 137.374Z" fill="#FCEEF1"/>
<path d="M110.876 96.327C111.327 96.045 112.142 96.709 112.338 95.736C112.382 95.518 112.683 95.697 112.823 95.821C113.392 96.323 113.665 96.956 113.63 97.718C113.613 98.084 113.387 98.419 113.081 98.403C112.052 98.348 111.158 98.854 110.184 98.99C109.675 99.061 109.735 98.542 109.517 98.308C109.226 97.996 109.359 97.699 109.526 97.442C109.701 97.173 109.994 97.345 110.156 97.466C110.499 97.723 110.688 97.563 110.962 97.346C111.47 96.944 110.697 96.684 110.876 96.327Z" fill="#FBECF0"/>
<path d="M15.9417 79.901C17.7087 79.018 19.2687 78.237 20.8307 77.459C21.0827 77.333 21.3946 77.193 21.5716 77.484C21.7136 77.717 21.4846 77.921 21.2636 78.041C21.0456 78.16 20.8697 78.313 20.8017 78.558C20.4037 80.009 19.0927 80.332 17.9367 80.723C17.3107 80.935 16.7127 80.381 15.9417 79.901Z" fill="#FBE7EB"/>
<path d="M150.669 79.0969C151.228 78.7809 152.344 79.2009 152.72 79.8689C153.039 80.4349 152.596 81.7089 151.926 82.1529C151.483 82.4469 150.394 81.9069 149.965 81.1809C149.467 80.3379 149.702 79.6439 150.669 79.0969Z" fill="#FCF1F4"/>
<path d="M39.1398 133.773C38.4738 133.628 37.8578 133.21 37.1218 133.431C36.9878 133.471 36.7998 133.419 36.6638 133.354C36.1008 133.085 34.6278 132.948 33.9918 133.127C34.0278 132.979 34.1288 132.807 34.0858 132.687C34.0018 132.452 33.3918 132.882 33.5628 132.414C33.6868 132.075 33.9888 131.676 34.5138 131.631C35.5738 131.541 35.5718 131.521 35.8538 130.563C36.1268 131.243 36.4748 131.624 37.1938 131.703C38.3568 131.832 38.9018 132.694 39.1398 133.773Z" fill="#FBEEF1"/>
<path d="M112.98 74.5609C113.39 74.1599 113.619 73.8849 113.897 73.6729C114.769 73.0069 115.842 73.1369 116.549 73.9669C117.032 74.5339 116.968 74.9209 116.268 75.6759C115.608 76.3879 115.273 76.4069 114.588 75.9439C113.985 75.5359 113.928 74.6419 112.98 74.5609Z" fill="#FEF9F6"/>
<path d="M49.6749 162.781C48.7579 161.777 48.3999 160.615 48.3289 159.287C49.0499 159.134 49.5699 159.844 50.2609 159.762C50.2859 159.759 50.3189 159.812 50.3469 159.84C50.6619 160.154 51.2539 159.393 51.4449 160.104C51.5599 160.532 51.1749 160.93 51.3099 161.389C51.4169 161.751 51.1069 161.859 50.8629 161.987C50.4159 162.221 49.9289 162.388 49.6749 162.781Z" fill="#FCF1F4"/>
<path d="M143.584 108.03C143.966 107.682 144.04 107.165 144.424 106.806C144.927 106.336 145.392 105.966 146.059 106.509C146.148 106.581 146.334 106.581 146.37 106.662C146.575 107.118 147.614 105.768 147.293 107.015C146.825 108.833 146.094 109.324 145.066 108.85C144.577 108.623 144.119 108.329 143.584 108.03Z" fill="#FCF2F4"/>
<path d="M209.652 43.338C209.209 42.475 209.313 41.31 209.9 41.084C210.288 40.935 210.751 41.089 211.155 40.908C211.284 41.333 211.769 41.455 211.947 41.838C212.389 42.786 212.068 43.622 211.091 44.07C210.596 44.297 209.985 43.986 209.652 43.338Z" fill="#FCF1F4"/>
<path d="M125.453 147.986C124.701 147.698 123.965 148.414 123.135 147.797C122.549 147.361 122.524 146.815 122.596 146.356C122.693 145.737 123.307 145.36 123.829 145.014C123.962 144.925 124.104 145.113 124.24 145.187C125.097 145.656 125.612 146.288 125.366 147.336C125.343 147.434 125.446 147.557 125.471 147.673C125.486 147.746 125.464 147.826 125.453 147.986Z" fill="#FCF3F5"/>
<path d="M162.003 116.161C162.025 116.721 162.311 117.291 162.138 117.877C161.877 118.765 160.158 119.165 159.5 118.51C159.129 118.141 159.255 116.798 159.764 116.575C160.328 116.328 160.944 116.197 161.501 115.904C161.659 115.822 161.886 115.935 162.003 116.161Z" fill="#FBEDF0"/>
<path d="M93.1298 85.6239C93.8738 85.2239 95.2317 85.7309 95.4887 86.3829C95.6167 86.7069 95.5457 87.0899 95.8267 87.3749C95.9537 87.5039 95.8338 87.7839 95.7248 87.7499C94.9358 87.5039 94.3307 88.4099 93.5167 88.0549C93.0397 87.8469 92.5698 87.5439 92.5998 87.0759C92.6318 86.5399 92.9718 86.0229 93.1298 85.6239Z" fill="#FBEDF0"/>
<path d="M151.332 70.727C151.922 70.437 153.161 70.617 153.401 71.027C153.631 71.421 153.041 72.814 152.534 73.072C151.981 73.354 150.662 73.18 150.5 72.804C150.296 72.332 150.842 70.967 151.332 70.727Z" fill="#FEFAF6"/>
<path d="M156.672 90.3269C156.552 90.8019 157.457 90.5889 157.227 91.2479C156.946 92.0519 156.614 92.7539 155.827 93.1479C155.551 93.2859 155.267 93.2209 155.077 92.9799C154.762 92.5809 154.422 92.6969 154.175 92.9819C153.73 93.4969 153.559 93.2019 153.337 92.7959C153.128 92.4159 153.052 92.0209 153.296 91.6739C153.593 91.2519 153.788 90.7919 153.986 90.3259C154.339 90.3469 154.516 90.6029 154.722 90.8449C155.48 91.7359 155.86 91.6829 156.368 90.6269C156.438 90.4829 156.485 90.3409 156.672 90.3269Z" fill="#FCF1F3"/>
<path d="M209.669 114.978C208.845 115.615 208.021 116.252 207.133 116.939C207.061 115.885 206.672 114.678 206.226 114.001C208.795 113.298 208.473 113.384 209.669 114.978Z" fill="#FBEDF1"/>
<path d="M149.805 42.465C149.957 42.695 149.193 44.317 148.772 44.461C148.298 44.623 147.755 44.627 147.359 44.229C147.07 43.939 147.017 42.08 147.242 41.924C147.83 41.519 149.4 41.85 149.805 42.465Z" fill="#FCF1F3"/>
<path d="M94.9626 61.3339C94.8886 61.4129 94.8156 61.4929 94.7416 61.5719C95.2416 61.5999 95.7976 62.1419 96.1456 61.1989C96.3736 60.5799 97.1596 60.8389 97.5956 60.9619C98.1266 61.1119 98.6336 61.0699 99.1486 61.1219C98.3886 61.3559 98.1186 62.0369 97.7306 62.6259C97.5566 62.8899 97.5786 63.4179 97.0756 63.3369C96.6586 63.2689 96.4436 62.9009 96.2756 62.5489C96.1956 62.3799 96.2316 62.1549 95.9196 62.0209C95.6956 62.3469 95.4566 62.6859 94.9346 62.7199C94.3526 62.7589 94.3756 62.8409 94.4966 62.1639C94.5276 61.9909 94.3406 61.7819 94.3626 61.6029C94.4066 61.2449 94.6476 61.1719 94.9626 61.3339Z" fill="#FDF5F4"/>
<path d="M203.225 42.847C202.658 43.112 201.567 42.773 201.369 42.27C201.286 42.06 201.667 40.352 201.817 40.262C202.274 39.985 203.695 40.557 203.957 41.123C204.224 41.7 203.864 42.549 203.225 42.847Z" fill="#FCF2F4"/>
<path d="M188.761 106.343C187.685 106.678 188.582 107.639 188.067 108.331C187.781 107.948 187.223 107.898 187.303 107.19C187.323 107.016 186.664 106.864 186.28 107.022C185.547 107.323 185.53 106.664 185.339 106.301C185.084 105.816 185.535 105.706 185.835 105.535C186.235 105.307 186.779 105.415 187.092 104.952C187.212 104.774 187.446 104.847 187.623 104.982C188.004 105.271 187.651 105.261 187.499 105.422C187.284 105.649 187.598 105.71 187.75 105.786C188.061 105.943 188.458 105.927 188.761 106.343Z" fill="#FCEFF2"/>
<path d="M186.911 1.59591C187.217 2.08791 187.268 2.91091 186.915 3.12991C186.002 3.69691 184.877 3.42491 184.581 2.81391C184.204 2.03591 184.548 1.24591 185.449 0.819907C186.117 0.504907 186.458 0.678907 186.911 1.59591Z" fill="#FAE6EB"/>
<path d="M97.4688 112.916C96.7208 113.183 95.8588 113.046 95.7258 112.639C95.5318 112.049 95.9988 110.703 96.4418 110.573C97.0458 110.396 98.4808 110.77 98.6368 111.144C98.7788 111.488 97.9518 112.744 97.4688 112.916Z" fill="#FBEDF0"/>
<path d="M132.532 53.8279C132.147 54.0879 131.872 54.6089 131.249 54.1329C130.936 53.8929 130.767 54.3149 130.566 54.5569C130.27 54.9139 129.92 55.0479 129.846 54.3649C129.835 54.0279 129.925 53.6869 130.287 53.6559C131.279 53.5679 130.761 53.0649 130.6 52.6489C130.779 52.4899 130.844 52.1489 131.214 52.3069C131.764 52.5429 131.744 52.1309 131.778 51.7889C132.265 51.2259 132.889 51.3959 133.495 51.4699C133.88 52.0399 133.901 52.5439 133.115 52.7039C132.391 52.8529 132.346 53.2579 132.532 53.8279Z" fill="#FBE7EB"/>
<path d="M122.848 64.5299C123.091 65.0889 122.615 66.3169 122.055 66.5729C121.623 66.7709 120.668 66.3699 120.439 65.8949C120.194 65.3869 120.459 64.1599 120.841 64.0359C121.543 63.8089 122.653 64.0819 122.848 64.5299Z" fill="#FBEDEF"/>
<path d="M120.254 103.888C119.887 103.123 120.002 102.534 120.574 102.263C121.314 101.912 122.128 102.251 122.532 103.078C122.775 103.576 122.489 104.39 121.965 104.69C121.37 105.032 120.638 104.688 120.254 103.888Z" fill="#FCF2F4"/>
<path d="M97.8188 44.9929C97.0778 45.3579 96.3768 45.2609 96.1528 44.7639C95.8118 44.0089 96.0398 42.8749 96.5848 42.6149C96.9848 42.4239 98.3878 42.7709 98.4198 43.1139C98.4668 43.6079 98.2308 44.0929 98.3398 44.6199C98.3948 44.8809 97.9168 44.7469 97.8188 44.9929Z" fill="#FEFBF8"/>
<path d="M113.236 71.4109C112.923 70.8289 113.19 69.9559 113.769 69.6659C114.376 69.3619 115.119 69.4939 115.353 69.9469C115.693 70.6039 115.418 71.7779 114.833 72.1719C114.488 72.4049 113.522 71.9439 113.236 71.4109Z" fill="#FCF2F4"/>
<path d="M163.487 9.9259C163.231 10.0969 162.89 10.0459 162.545 9.8939C162.3 9.7859 162.091 9.5659 161.773 9.7029C161.564 9.7929 161.283 9.9229 161.221 9.5479C161.178 9.2889 161.101 8.9459 161.45 8.8269C161.754 8.7229 162.04 8.6819 162.132 8.2859C162.245 7.8019 162.627 7.4429 163.087 7.6459C163.545 7.8479 164.228 7.9099 164.299 8.6289C164.356 9.2139 164.067 9.6089 163.487 9.9259Z" fill="#FDF4F6"/>
<path d="M68.2698 57.85C68.5868 58.454 68.3918 59.493 67.9118 59.762C67.4428 60.024 66.3648 59.679 66.1198 59.187C65.8008 58.547 66.0478 57.826 66.7048 57.481C67.5038 57.063 67.9068 57.158 68.2698 57.85Z" fill="#FBEEF1"/>
<path d="M120.835 51.771C121.272 52.35 121.337 52.948 120.771 53.451C120.476 53.713 118.798 53.053 118.658 52.683C118.56 52.423 119.215 50.879 119.472 50.767C119.824 50.611 120.582 51.17 120.835 51.771Z" fill="#FEFAF7"/>
<path d="M218.562 78.8509C218.244 78.1649 218.092 77.4349 217.327 77.1659C217.043 77.0659 217.078 76.7899 217.206 76.5629C217.537 75.9749 219.131 75.5499 219.565 76.0359C219.904 76.4159 219.92 77.1269 219.606 77.5299C219.295 77.9269 219.123 78.4379 218.562 78.8509Z" fill="#FCF2F4"/>
<path d="M210.87 99.997C211.674 100.369 211.928 101.253 212.545 101.815C212.902 102.14 213.119 102.098 213.447 101.931C213.483 102.223 213.11 102.272 213.088 102.501C213.012 103.315 212.579 103.196 212.089 102.894C211.435 102.491 211.44 102.482 210.672 102.92C211.217 102.199 210.974 101.782 210.479 101.342C209.943 100.865 210.015 100.056 210.546 99.351C210.625 99.533 210.66 99.707 210.544 99.897C210.473 100.013 210.392 100.192 210.625 100.219C210.697 100.229 210.788 100.076 210.87 99.997Z" fill="#FCEEF1"/>
<path d="M156.672 90.327C156.414 90.692 156.989 91.307 156.165 91.57C155.405 91.812 154.926 91.884 154.584 91.165C154.423 90.827 154.108 90.655 153.986 90.326C154.022 90.219 154.058 90.111 154.093 90.004C154.146 89.701 154.471 89.556 154.527 89.255C154.669 89.183 154.811 89.112 154.953 89.04C155.524 89.024 155.962 89.298 156.348 89.683C156.457 89.898 156.564 90.113 156.672 90.327Z" fill="#FAE7EB"/>
<path d="M85.0167 98.1359C84.8007 98.4039 84.5107 98.5359 84.1947 98.5659C83.8877 98.5949 83.8437 98.8149 83.7317 99.0239C83.5997 99.2709 83.8367 99.7709 83.6597 99.7229C83.2317 99.6079 82.8947 99.9459 82.5057 99.8169C82.1027 99.6829 81.5677 98.6309 81.7037 98.2219C81.9117 97.5959 82.6837 97.2449 83.2867 97.6119C83.8337 97.9439 84.5367 97.6429 85.0167 98.1359Z" fill="#FBEDF0"/>
<path d="M121.999 48.3459C122.268 48.8639 121.83 49.9539 121.217 50.2909C120.768 50.5379 119.812 50.0799 119.566 49.4999C119.473 49.2819 120.17 47.9279 120.436 47.8079C120.894 47.6019 121.769 47.9029 121.999 48.3459Z" fill="#FEFAF6"/>
<path d="M157.402 16.6299C157.06 15.9769 157.261 15.4389 157.979 15.0859C158.663 14.7499 159.122 14.9469 159.583 15.7769C159.876 16.3039 159.535 17.2199 158.948 17.4849C158.536 17.6699 157.707 17.2109 157.402 16.6299Z" fill="#FBECF0"/>
<path d="M153.099 97.1389C153.494 97.9619 153.337 98.4989 152.596 98.8569C152 99.1449 151.569 98.9289 151.192 98.1519C150.9 97.5499 151.17 96.6919 151.726 96.4549C152.368 96.1819 152.726 96.3599 153.099 97.1389Z" fill="#FBEBEF"/>
<path d="M145.622 59.2639C145.083 59.5259 145.076 60.3439 144.505 60.4569C144.156 60.5259 143.63 60.4219 143.27 60.1209C142.788 59.7189 142.902 58.9039 143.516 58.3369C144.128 57.7729 144.517 57.9359 145.622 59.2639Z" fill="#FEFAF7"/>
<path d="M166.218 44.2429C166.353 44.5599 166.535 44.6659 166.757 44.7759C167.563 45.1779 167.69 45.5959 167.299 46.3759C167.089 46.7959 166.093 47.0659 165.643 46.8069C165.195 46.5499 165.433 45.9379 165.028 45.6019C164.855 45.4579 165.256 45.2569 165.396 45.0869C165.618 44.8189 165.882 44.5839 166.218 44.2429Z" fill="#FCF3F5"/>
<path d="M53.9199 113.847C53.3599 114.225 53.2409 113.567 52.9309 113.366C52.5789 113.137 52.6709 112.862 52.9759 112.603C53.5409 112.123 54.0169 111.616 53.4609 110.801C53.3419 110.626 53.4219 110.321 53.7559 110.291C54.0669 110.263 54.3109 110.302 54.2469 110.727C54.1489 111.376 54.2429 111.95 54.8749 112.337C55.1349 112.496 55.0049 112.758 54.8809 112.965C54.6519 113.345 54.3229 113.624 53.9199 113.847Z" fill="#FCEEF1"/>
<path d="M137.989 115.76C137.514 115.542 136.978 115.235 136.916 114.758C136.855 114.292 137.063 113.794 136.895 113.276C136.825 113.059 137.195 112.962 137.392 112.841C137.582 112.723 137.914 112.655 137.806 112.366C137.664 111.988 137.377 112.223 137.121 112.283C137.003 112.311 136.846 112.173 136.707 112.11C137.125 111.988 136.916 111.598 137.044 111.269C137.599 111.9 138.409 111.897 139.197 112.277C138.706 112.609 138.359 112.976 137.777 112.994C137.509 113.002 137.198 113.102 137.19 113.463C137.184 113.737 137.449 113.835 137.62 113.997C137.905 114.267 138.519 113.972 138.598 114.509C138.673 115.023 138.274 115.38 137.989 115.76Z" fill="#FCF3F5"/>
<path d="M122.479 135.079C122.801 134.888 124.046 135.233 124.213 135.56C124.413 135.949 124.157 136.85 123.783 137.071C123.382 137.309 122.328 136.994 122.109 136.572C121.858 136.085 122.043 135.338 122.479 135.079Z" fill="#FCF0F3"/>
<path d="M161.56 73.818C161.827 74.373 161.529 75.316 161.021 75.447C160.579 75.561 159.996 75.906 159.634 75.259C159.264 74.597 159.59 73.615 160.297 73.382C160.834 73.206 161.283 73.469 161.56 73.818Z" fill="#FEFAF6"/>
<path d="M157.416 76.9359C157.418 76.6599 156.842 76.3959 157.102 76.3019C157.644 76.1059 157.71 75.4959 158.232 75.3129C158.823 75.1049 158.932 75.5069 159.09 75.8559C159.398 76.5339 159.168 77.5529 158.682 77.7749C158.165 78.0109 157.79 77.7639 157.416 76.9359Z" fill="#FEFAF7"/>
<path d="M56.2048 133.56C55.9858 133.913 55.6598 134.124 55.2858 134.289C54.8518 134.481 54.5348 134.409 54.2758 133.988C53.9108 133.396 53.8218 133.347 53.1758 133.079C54.0228 133.105 54.3398 132.022 55.2408 132.164C55.7448 132.503 56.2158 132.866 56.2048 133.56Z" fill="#FAE5EA"/>
<path d="M167.817 6.78894C168.037 7.25994 169.526 6.94094 168.587 8.08894C168.92 8.32894 169.006 7.96094 169.202 7.89794C169.745 7.72394 170.017 8.10494 170.211 8.48894C170.476 9.01394 170.12 9.27894 169.696 9.50294C169.281 9.72194 168.882 9.77394 168.752 9.24494C168.54 8.38194 167.314 7.97294 167.817 6.78894Z" fill="#FCEFF2"/>
<path d="M81.1488 170.006C81.7128 169.793 82.2398 170.211 82.3958 170.872C82.5548 171.544 82.2248 172.309 81.7038 172.475C81.3468 172.589 80.3268 171.961 80.3898 171.496C80.4648 170.948 80.9068 170.451 81.1488 170.006Z" fill="#FCEDF0"/>
<path d="M67.7707 105.243C67.0587 105.591 66.3887 105.522 66.2047 105.083C66.0027 104.601 66.4137 103.525 66.8657 103.35C67.1517 103.239 68.1577 103.79 68.3307 104.162C68.6087 104.758 68.2397 105.028 67.7707 105.243Z" fill="#FCEEF1"/>
<path d="M153.543 127.378C153.797 128.053 153.854 128.696 154.094 129.314C154.284 129.805 153.828 130.21 153.337 130.315C152.788 130.431 152.217 130.153 152.067 129.685C151.972 129.388 152.072 128.71 152.578 128.554C153.174 128.369 153.522 128.084 153.543 127.378Z" fill="#FBEEF1"/>
<path d="M154.113 86.8289C153.587 87.4179 153.124 87.2389 152.743 86.7219C152.456 86.3329 152.738 85.3339 153.143 85.1339C153.546 84.9349 154.404 85.2779 154.639 85.7219C154.972 86.3499 154.935 86.7899 154.113 86.8289Z" fill="#FCF1F3"/>
<path d="M193.588 6.49791C193.339 6.86291 194.172 7.36091 193.492 7.78291C192.945 8.12291 191.99 7.80491 191.655 7.19391C191.421 6.76891 191.659 6.15491 192.152 5.90891C192.613 5.67991 193.274 5.91791 193.588 6.49791Z" fill="#FBE9ED"/>
<path d="M124.083 94.9819C124.33 94.9529 124.701 95.0509 124.916 95.5189C125.16 96.0489 124.911 96.7849 124.397 97.0579C123.999 97.2689 123.132 96.9309 122.867 96.4619C122.637 96.0569 123.076 95.4509 124.083 94.9819Z" fill="#FBEBEF"/>
<path d="M89.1658 65.305C88.8098 64.968 88.1708 64.816 88.4048 64.096C88.4508 63.954 88.3908 63.709 88.2348 63.712C87.5368 63.726 87.6078 63.082 87.3428 62.728C87.8628 62.633 88.2988 63.012 88.8228 62.984C89.0398 62.972 89.2818 63.21 89.0048 63.482C88.5958 63.883 88.6628 64.209 89.0708 64.572C89.6908 65.124 89.6728 64.147 90.0508 64.172C90.3538 64.31 90.4838 64.592 90.5028 64.847C90.5328 65.26 90.9208 65.829 90.4918 66.06C90.0278 66.31 89.9468 65.644 89.7068 65.369C89.5428 65.18 89.3568 65.236 89.1658 65.305Z" fill="#FBE9ED"/>
<path d="M35.8339 179.055C36.3909 179.676 37.2038 179.236 37.5208 179.933C37.6278 180.168 37.6319 180.384 37.5239 180.619C37.3139 181.079 36.5019 181.557 36.1149 181.396C35.6749 181.212 35.1528 180.996 35.4108 180.376C35.5708 179.993 35.9049 179.683 35.8339 179.055Z" fill="#FCF2F4"/>
<path d="M163.593 95.9319C164.271 95.9129 164.771 96.5329 165.179 95.8409C165.267 95.6909 165.453 95.7389 165.6 95.8349C165.988 96.0869 166.31 96.3909 166.175 96.9019C166.087 97.2329 166.09 97.7469 165.698 97.7849C165.274 97.8249 164.695 97.8969 164.469 97.3209C164.283 96.8469 163.891 96.5009 163.593 95.9319Z" fill="#FCEEF1"/>
<path d="M144.456 72.2819C144.976 71.8289 145.32 72.3229 145.634 72.7109C145.845 72.9709 145.42 74.2189 145.111 74.2959C144.542 74.4369 144.094 74.1999 143.816 73.6989C143.537 73.1999 143.773 72.6509 144.456 72.2819Z" fill="#FCF2F4"/>
<path d="M68.2569 57.0529C67.9009 56.4989 67.4849 56.5199 67.1149 56.4209C66.6699 56.3019 66.4369 56.0389 66.5789 55.5489C66.7619 54.9199 67.2019 54.6629 67.8259 54.7189C68.2929 54.7619 68.5249 55.0289 68.4539 55.5199C68.3929 55.9429 68.3439 56.3669 68.2569 57.0529Z" fill="#FCEEF1"/>
<path d="M196.409 27.5179C196.54 27.0899 196.072 26.8829 195.978 26.5189C195.85 26.0249 196.185 25.5689 196.541 25.7699C197.103 26.0879 197.612 26.5569 197.86 27.1589C198.041 27.5979 197.799 28.0149 197.283 28.1429C196.79 28.2659 196.566 27.9559 196.409 27.5179Z" fill="#FCF1F3"/>
<path d="M191.191 104.43C190.507 104.571 189.558 104.272 189.527 105.439C189.524 105.567 189.266 105.57 189.115 105.498C188.831 105.363 188.802 105.079 188.975 104.915C189.378 104.533 189.589 104.156 189.44 103.57C189.362 103.265 189.63 103.064 189.968 103.115C190.359 103.174 190.889 102.871 191.085 103.462C191.179 103.749 191.156 104.075 191.191 104.43Z" fill="#FCEFF2"/>
<path d="M92.8197 57.579C93.3547 57.997 93.6717 58.763 94.5707 58.564C94.5297 58.978 94.0957 59.351 94.6417 59.618C94.2847 59.795 93.9297 59.975 93.5707 60.147C93.2507 60.301 92.9507 60.291 92.7177 59.99C92.5847 59.818 92.5747 59.608 92.6837 59.429C92.9337 59.019 93.2177 59.262 93.4967 59.406C93.6017 59.46 93.7177 59.469 93.8267 59.31C93.7637 58.931 93.3857 58.959 93.1257 58.846C92.2777 58.479 92.2747 58.485 92.8197 57.579Z" fill="#FCF0F3"/>
<path d="M172.315 37.887C172.123 37.487 171.858 37.12 172.176 36.832C172.495 36.542 172.984 36.499 173.384 36.648C173.801 36.803 173.943 37.213 173.783 37.629C173.609 38.08 173.674 38.825 173.061 38.837C172.697 38.843 172.549 38.158 172.315 37.887Z" fill="#FCF4F5"/>
<path d="M119.503 168.812C119.875 168.969 119.959 169.258 119.925 169.588C119.877 170.052 119.923 170.579 119.711 170.956C119.494 171.343 118.955 171.366 118.551 171.13C118.273 170.967 118.314 169.666 118.599 169.624C119.139 169.545 119.137 168.984 119.503 168.812Z" fill="#FCF3F5"/>
<path d="M205.995 53.191C206.046 53.641 206.107 54.237 205.689 54.426C205.315 54.594 204.719 54.968 204.302 54.37C204.04 53.993 204.393 53.136 204.917 52.878C205.338 52.669 205.665 52.886 205.995 53.191Z" fill="#FCEEF1"/>
<path d="M116.639 62.3189C117.134 62.5499 117.732 61.9629 118.238 62.4779C118.363 62.6049 117.44 63.8099 117.122 63.9349C116.737 64.0859 116.37 64.0249 116.27 63.6009C116.166 63.1619 116.063 62.6549 116.639 62.3189Z" fill="#FCF0F2"/>
<path d="M100.912 43.4709C100.662 43.8939 100.084 43.8949 99.8037 44.3139C99.6097 44.6049 99.2987 44.4559 99.0477 44.3449C98.7217 44.2009 98.8457 43.9009 98.9657 43.7469C99.2197 43.4219 98.6877 42.7499 99.1967 42.7619C99.7767 42.7749 100.685 42.4169 100.912 43.4709Z" fill="#FEFBF8"/>
<path d="M160.49 52.842C159.949 52.369 160.198 52.131 160.59 51.875C161.256 51.441 161.631 51.915 161.973 52.33C162.32 52.75 161.899 53.159 161.658 53.312C161.094 53.668 160.593 53.5 160.49 52.842Z" fill="#FCF1F4"/>
<path d="M116.574 65.9349C116.823 66.3869 116.772 66.7309 116.304 67.0429C115.576 67.5269 115.418 66.7879 115.104 66.4919C114.731 66.1399 114.991 65.7389 115.277 65.4609C115.553 65.1899 116.331 65.5009 116.574 65.9349Z" fill="#FCF2F4"/>
<path d="M165.256 34.242C164.459 34.339 163.655 34.691 163.326 33.757C163.147 33.248 163.579 32.806 164.078 32.751C165.078 32.642 164.901 33.601 165.256 34.242Z" fill="#FCF0F3"/>
<path d="M151.569 33.6429C151.647 34.0809 151.784 34.5709 151.251 34.7689C150.812 34.9319 150.395 34.7449 150.152 34.3129C149.9 33.8639 150.133 33.2009 150.592 33.0129C151.231 32.7499 151.196 33.5029 151.569 33.6429Z" fill="#FCF1F4"/>
<path d="M164.892 86.3789C165.116 86.8109 165.348 87.2689 164.832 87.5459C164.307 87.8279 163.901 87.3999 163.663 87.0229C163.448 86.6819 163.333 86.1069 163.782 85.8809C164.235 85.6539 164.71 85.8589 164.892 86.3789Z" fill="#FCEFF1"/>
<path d="M178.122 102.412C177.657 102.654 177.27 102.595 177.051 102.084C176.878 101.682 176.937 101.214 177.311 101.04C177.727 100.846 178.258 100.828 178.544 101.371C178.807 101.872 178.586 102.195 178.122 102.412Z" fill="#FCEEF1"/>
<path d="M146.116 59.2529C146.527 59.7869 147.681 59.6769 147.361 60.8089C147.135 60.9889 146.917 60.8339 146.693 60.7949C145.286 60.5479 145.286 60.5499 146.116 59.2529Z" fill="#FEFAF7"/>
<path d="M26.0909 192.48C26.3289 192.932 26.2979 193.322 25.7929 193.551C25.4029 193.728 24.9619 193.712 24.7949 193.289C24.6349 192.884 24.4559 192.362 25.0549 192.066C25.5539 191.819 25.8729 192.021 26.0909 192.48Z" fill="#FCF3F5"/>
<path d="M236.791 71.7599C237.265 71.5599 237.89 71.8169 238.058 72.2909C238.195 72.6799 238.111 73.0199 237.688 73.1319C237.144 73.2769 236.651 73.1059 236.388 72.5989C236.189 72.2169 236.43 71.9319 236.791 71.7599Z" fill="#FCF2F4"/>
<path d="M172.044 20.6739C171.783 20.2509 171.82 19.9639 172.251 19.7569C172.729 19.5269 173.125 19.5669 173.327 20.0899C173.466 20.4509 173.621 20.9319 173.144 21.1349C172.665 21.3399 172.183 21.2499 172.044 20.6739Z" fill="#FCEFF2"/>
<path d="M152.042 130.544C152.177 130.962 152.304 131.387 151.915 131.553C151.499 131.731 150.906 131.843 150.647 131.321C150.358 130.74 150.856 130.359 151.267 130.074C151.933 129.611 151.565 130.751 152.042 130.544Z" fill="#FCEFF2"/>
<path d="M181.926 13.373C181.904 12.881 181.827 12.323 182.373 12.129C182.629 12.038 183.075 11.786 183.341 12.228C183.512 12.511 183.198 13.488 182.877 13.62C182.514 13.768 182.183 13.684 181.926 13.373Z" fill="#FCEEF2"/>
<path d="M80.1239 144.739C80.4229 144.987 80.7219 145.227 81.0119 145.479C81.3529 145.775 81.1189 146.066 80.9569 146.318C80.7799 146.593 80.4969 146.593 80.2179 146.455C79.5219 146.106 79.4909 145.676 80.1239 144.739Z" fill="#FCF2F5"/>
<path d="M35.7137 89.3359C35.8437 89.6419 34.9657 89.8219 35.6067 90.1919C35.2497 90.5169 35.2037 90.9739 35.1867 91.5369C34.5607 91.1459 34.5117 90.4509 33.9247 90.1759C33.6327 90.0389 33.8967 89.7189 34.2287 89.6579C34.7277 89.5659 35.2547 89.6059 35.7137 89.3359Z" fill="#FDF4F6"/>
<path d="M170.302 3.8019C170.199 3.8359 169.948 4.1279 169.607 3.9239C169.444 3.8269 169.232 3.7539 169.211 3.5189C169.194 3.3319 169.341 3.2479 169.478 3.1739C169.687 3.0609 169.891 2.9159 170.117 2.8589C170.485 2.7659 170.918 2.1429 171.2 2.6799C171.433 3.1249 170.98 3.5469 170.302 3.8019Z" fill="#FBE9ED"/>
<path d="M144.111 112.969C143.523 113.2 143.734 114.029 143.145 114.259C142.264 113.617 142.264 113.617 142.955 112.244C143.341 112.486 143.726 112.727 144.111 112.969Z" fill="#FCF1F3"/>
<path d="M184.268 10.2649C184.725 9.53388 185.482 9.99188 186.086 9.85388C186.271 9.81188 186.553 10.2869 186.214 10.5979C185.543 11.2119 184.904 11.0959 184.268 10.2649Z" fill="#FCF1F3"/>
<path d="M162.137 14.084C162.59 13.851 162.955 13.861 163.199 14.309C163.432 14.736 163.335 15.083 162.89 15.3C162.437 15.521 162.137 15.337 161.912 14.922C161.7 14.531 161.734 14.239 162.137 14.084Z" fill="#FBEDF0"/>
<path d="M182.843 33.8359C182.726 34.2159 182.529 34.5239 182.181 34.6269C181.797 34.7399 181.279 34.9989 181.014 34.6329C180.766 34.2919 181.334 34.0939 181.488 33.8049C181.792 33.2329 182.174 33.3169 182.605 33.6109C182.694 33.6729 182.765 33.7619 182.843 33.8359Z" fill="#FCF3F5"/>
<path d="M200.991 8.07792C201.205 8.04692 201.475 8.01592 201.742 7.96692C201.952 7.92792 202.133 7.94092 202.225 8.16492C202.321 8.39792 202.2 8.55192 201.996 8.61492C201.77 8.68492 201.586 8.72492 201.498 9.01092C201.412 9.28892 201.129 9.43392 200.837 9.32692C200.554 9.22292 200.466 8.92592 200.43 8.65892C200.38 8.30092 200.715 8.24392 200.991 8.07792Z" fill="#FCEFF2"/>
<path d="M169.241 13.47C169.602 13.642 169.855 13.745 170.091 13.879C170.523 14.125 170.489 14.546 170.358 14.91C170.24 15.238 169.875 15.087 169.628 15.075C169.213 15.055 168.986 14.809 169.056 14.37C169.097 14.105 169.163 13.844 169.241 13.47Z" fill="#FCEEF1"/>
<path d="M161.263 44.0199C160.888 44.2009 160.604 44.2269 160.417 43.9539C160.257 43.7209 160.401 43.5009 160.585 43.3279C160.642 43.2739 160.71 43.2179 160.782 43.1959C161.158 43.0779 160.991 42.2139 161.687 42.5429C161.826 42.6089 162.07 42.6709 161.989 42.8319C161.767 43.2709 161.477 43.6779 161.263 44.0199Z" fill="#FDF4F6"/>
<path d="M74.6409 169.417C74.3089 169.608 73.9739 169.711 73.7839 169.236C73.6219 168.83 73.6879 168.384 74.0649 168.202C74.4409 168.021 74.8339 168.244 75.0539 168.622C75.3159 169.073 74.9949 169.256 74.6409 169.417Z" fill="#FBEEF1"/>
<path d="M200.236 152.801C201.165 152.692 201.803 152.002 202.596 151.621C202.596 151.913 202.343 151.98 202.164 152.123C201.902 152.333 201.648 152.553 202.141 152.823C202.492 153.016 202.262 153.096 202.04 153.127C201.884 153.149 201.73 153.142 201.66 153.329C201.387 154.05 201.031 153.879 200.912 153.305C200.813 152.83 200.434 152.993 200.236 152.801Z" fill="#FDF4F6"/>
<path d="M82.1917 67.4489C83.0697 67.1009 83.4297 67.257 83.6927 68.093C83.7607 68.31 83.8346 68.5259 83.9066 68.7419C82.7986 69.0229 82.5877 68.1129 82.1917 67.4489Z" fill="#FBEBEE"/>
<path d="M169.32 28.5839C169.418 28.8029 169.289 29.1979 168.909 29.3899C168.469 29.6129 168.094 29.2349 167.953 28.9199C167.798 28.5739 168.131 28.2419 168.476 28.1319C168.728 28.0519 169.105 27.9079 169.32 28.5839Z" fill="#FCF0F2"/>
<path d="M142.825 115.762C143.425 116.266 143.735 116.916 143.786 117.693C143.738 117.629 143.702 117.526 143.641 117.508C142.205 117.095 142.205 117.096 142.825 115.762Z" fill="#FCF3F6"/>
<path d="M186.066 47.7579C186.442 47.7349 186.878 47.7279 187.023 48.1859C187.107 48.4519 187.159 48.8739 186.722 48.9679C186.364 49.0449 185.959 48.9759 185.811 48.6039C185.705 48.3389 185.66 47.9689 186.066 47.7579Z" fill="#FDF3F5"/>
<path d="M109.965 60.9449C109.625 61.0379 109.462 60.8229 109.342 60.5599C109.156 60.1519 109.239 59.7499 109.571 59.4939C109.833 59.2919 110.134 59.4779 110.237 59.7599C110.394 60.1869 110.365 60.6159 109.965 60.9449Z" fill="#FCEFF2"/>
<path d="M203.215 25.14C203.147 24.462 203.526 24.091 203.557 23.625C203.573 23.381 203.827 23.258 204.09 23.273C204.25 23.282 204.407 23.332 204.48 23.485C204.601 23.736 204.506 24.019 204.295 24.087C203.806 24.245 203.78 24.84 203.215 25.14Z" fill="#FCF2F4"/>
<path d="M192.648 69.4879C192.819 69.8989 192.666 70.1849 192.301 70.3629C192.076 70.4739 191.75 70.7529 191.609 70.3749C191.483 70.0349 191.43 69.5739 191.833 69.3039C192.147 69.0939 192.428 69.2059 192.648 69.4879Z" fill="#FCF2F5"/>
<path d="M178.688 2.51297C178.795 1.89397 178.353 1.29397 179.206 1.15397C179.484 1.10797 179.818 1.14697 179.837 1.52097C179.871 2.23297 179.302 2.25297 178.688 2.51297Z" fill="#FBEEF1"/>
<path d="M160.489 36.6119C160.154 36.6989 159.868 36.6199 159.743 36.2699C159.619 35.9259 159.782 35.6729 160.093 35.5079C160.467 35.3099 160.682 35.4819 160.801 35.8269C160.917 36.1619 160.826 36.4329 160.489 36.6119Z" fill="#FCF2F4"/>
<path d="M95.0737 50.8179C95.0247 51.2999 94.3247 51.3419 94.3697 51.9489C94.3937 52.2699 94.1247 52.0639 93.9907 51.9349C93.7197 51.6709 93.4887 51.9089 93.2457 51.9969C93.2007 51.5219 93.2367 51.1229 93.8937 51.3109C94.0097 50.4809 94.6937 51.0149 95.0737 50.8179Z" fill="#FCF3F5"/>
<path d="M56.5037 66.228C56.6407 65.901 56.7507 65.648 56.8517 65.392C56.9437 65.158 57.0527 64.946 57.3577 65.01C57.5617 65.053 57.7197 65.171 57.7827 65.382C57.8597 65.637 57.7827 65.855 57.5907 66.025C57.2957 66.285 56.9417 66.292 56.5037 66.228Z" fill="#FDF5F7"/>
<path d="M187.115 33C187.437 32.888 187.778 32.858 187.881 33.255C187.952 33.531 188.022 33.925 187.601 34.047C187.284 34.139 186.922 34.08 186.782 33.769C186.65 33.473 186.729 33.14 187.115 33Z" fill="#FCF2F4"/>
<path d="M0.396751 115.839C0.405751 115.918 0.385749 116.039 0.427749 116.068C1.27775 116.65 1.27975 116.648 0.718749 117.557C0.625749 116.982 -0.619249 116.623 0.396751 115.839Z" fill="#FDF5F7"/>
<path d="M101.62 49.4229C100.509 49.9739 100.509 49.9739 99.5808 49.1019C99.6348 49.0119 99.6898 48.9209 99.7438 48.8309C100.287 49.2879 101.037 49.0889 101.62 49.4229Z" fill="#FEF8F5"/>
<path d="M164.135 36.6319C163.809 36.6539 163.467 36.6149 163.3 36.3149C163.138 36.0239 163.314 35.7599 163.606 35.6509C163.955 35.5209 164.242 35.6499 164.366 36.0119C164.449 36.2569 164.382 36.4819 164.135 36.6319Z" fill="#FCF2F4"/>
<path d="M86.1848 127.206C85.9008 126.756 85.6918 126.441 85.5008 126.115C85.4198 125.977 85.3928 125.81 85.5558 125.7C85.7068 125.598 85.8898 125.644 85.9908 125.752C86.3438 126.129 86.6578 126.534 86.1848 127.206Z" fill="#FCF0F2"/>
<path d="M0.828796 117.771C0.864796 117.842 0.902792 117.912 0.934792 117.984C1.38279 119.009 1.34179 119.061 0.086792 118.929C0.328792 118.511 0.349796 118.015 0.828796 117.771Z" fill="#FDF5F7"/>
<path d="M195.086 137.131C195.42 137.588 194.598 138.194 195.277 138.607C195.071 138.723 194.865 138.839 194.659 138.955C194.643 138.919 194.625 138.883 194.611 138.845C194.302 137.974 194.302 137.974 195.086 137.131Z" fill="#FBECEF"/>
<path d="M223.529 130.699C223.594 130.049 224.046 129.786 224.602 129.627C224.542 129.767 224.413 129.918 224.434 130.045C224.578 130.927 224.532 130.966 223.529 130.699Z" fill="#FCEFF2"/>
<path d="M133.494 51.4709C132.92 51.5709 132.37 51.7949 131.777 51.7899C131.741 51.7189 131.705 51.6469 131.669 51.5749C132.274 50.7959 132.274 50.7959 133.494 51.4709Z" fill="#FCF0F3"/>
<path d="M124.793 105.455C124.497 106.124 124.002 106.561 123.289 106.742C123.18 106.439 122.834 106.109 123.49 105.96C123.939 105.857 124.36 105.628 124.793 105.455Z" fill="#FBECEF"/>
<path d="M52.1968 162.229C52.3148 162.108 52.4807 162.092 52.6217 162.163C52.8807 162.293 53.2997 162.193 53.3597 162.614C53.3817 162.768 53.2637 162.909 53.1097 162.984C52.7267 163.171 52.5337 162.844 52.2967 162.666C52.1677 162.57 52.1278 162.405 52.1968 162.229Z" fill="#FCEEF1"/>
<path d="M33.9898 133.126C34.4888 134.075 33.5838 134.223 33.1318 134.629C32.8828 134.985 32.7808 135.472 32.2698 135.594C32.4668 135.048 32.7398 134.587 33.2488 134.233C33.6028 133.988 33.9598 133.639 33.9898 133.126Z" fill="#FBEEF1"/>
<path d="M184.268 10.265C184.097 10.515 183.899 10.649 183.584 10.484C183.407 10.391 183.213 10.323 183.215 10.09C183.217 9.88797 183.303 9.70997 183.496 9.60997C183.775 9.46597 183.932 9.62297 184.054 9.84797C184.128 9.98497 184.197 10.126 184.268 10.265Z" fill="#FCF1F3"/>
<path d="M208.61 58.7379C208.776 59.0669 208.606 59.2319 208.404 59.3569C208.207 59.4789 207.973 59.6149 207.781 59.3639C207.588 59.1099 207.614 58.8269 207.875 58.6459C208.144 58.4579 208.384 58.6939 208.61 58.7379Z" fill="#FCEDF0"/>
<path d="M56.1399 66.4319C56.2299 66.6979 56.2219 66.9179 55.9909 66.9719C55.7339 67.0319 55.4089 67.1299 55.2219 66.8539C55.0989 66.6709 55.2449 66.4809 55.4209 66.3659C55.7009 66.1829 55.9389 66.2939 56.1399 66.4319Z" fill="#FDF5F7"/>
<path d="M82.7137 128.23C83.0007 128.276 83.3317 128.278 83.4467 128.639C83.4957 128.79 83.4237 128.996 83.2697 129.006C82.9637 129.026 82.6406 128.974 82.5236 128.617C82.4756 128.468 82.5477 128.322 82.7137 128.23Z" fill="#FBECEF"/>
<path d="M196.391 9.46391C196.533 9.72491 196.367 9.88191 196.235 10.0089C196.004 10.2309 195.796 10.0979 195.646 9.88491C195.51 9.69191 195.55 9.49591 195.756 9.38091C195.989 9.25191 196.213 9.31291 196.391 9.46391Z" fill="#FCEEF1"/>
<path d="M86.1948 172.219C86.2718 172.586 86.1168 172.787 85.8538 172.93C85.6778 173.026 85.4608 173.123 85.3408 172.91C85.2478 172.745 85.2758 172.489 85.5228 172.443C85.7508 172.402 85.8308 172.049 86.1948 172.219Z" fill="#FCEFF2"/>
<path d="M79.1617 172.283C79.4127 172.166 79.6467 172.192 79.8137 172.39C79.9347 172.533 79.8477 172.691 79.6937 172.771C79.4607 172.892 79.2227 172.858 79.0557 172.662C78.9337 172.518 79.0317 172.375 79.1617 172.283Z" fill="#FBEDF0"/>
<path d="M20.1486 81.436C20.0826 81.661 20.3066 82.006 19.9066 82.113C19.7526 82.154 19.5576 82.098 19.5576 81.909C19.5566 81.639 19.5946 81.342 19.9056 81.232C20.0186 81.192 20.1096 81.302 20.1486 81.436Z" fill="#FBE9ED"/>
<path d="M158.916 179.801C159.003 179.918 158.978 180.043 158.866 180.097C158.644 180.204 158.385 180.208 158.189 180.076C158.036 179.973 158.103 179.795 158.267 179.706C158.502 179.579 158.721 179.623 158.916 179.801Z" fill="#FDF5F6"/>
<path d="M156.349 89.6839C155.884 89.4699 155.419 89.255 154.954 89.041C155.719 88.604 156.044 89.1239 156.349 89.6839Z" fill="#FCF1F3"/>
<path d="M178.369 79.2729C177.848 78.6989 178.152 78.3349 178.262 77.9619C178.348 77.9659 178.435 77.9699 178.521 77.9739C178.477 78.3509 178.433 78.7269 178.369 79.2729Z" fill="#FBEEF1"/>
<path d="M83.8858 95.969C84.0768 96.796 83.5608 96.825 83.3088 97.089C83.2428 97.029 83.1768 96.97 83.1108 96.91C83.3438 96.628 83.5758 96.346 83.8858 95.969Z" fill="#FBEDF0"/>
<path d="M81.7618 65.5189C81.7828 65.5509 81.7968 65.5929 81.8258 65.6139C82.5618 66.1329 82.5618 66.1329 81.7558 66.5909C81.8528 66.2339 81.5528 65.8749 81.7618 65.5189Z" fill="#FBEBEE"/>
<path d="M154.528 89.2549C154.754 89.7199 154.406 89.8509 154.094 90.0039C153.329 89.2269 154.253 89.4289 154.528 89.2549Z" fill="#FCF1F3"/>
<path d="M55.0368 65.7269C55.0098 65.4789 55.0808 65.2649 55.2518 65.0829C55.2728 65.1169 55.3068 65.1489 55.3118 65.1849C55.3518 65.4929 55.9678 65.2499 55.8228 65.6729C55.6348 66.2239 55.2988 65.6509 55.0368 65.7269Z" fill="#FDF5F7"/>
<path d="M163.199 97.6669C163.688 97.3299 163.965 97.3979 164.347 97.6039C163.961 97.9359 163.673 97.8559 163.199 97.6669Z" fill="#FCEEF1"/>
<path d="M143.038 114.581C142.756 114.936 143.2 115.423 142.825 115.761C142.774 115.66 142.733 115.551 142.669 115.458C142.328 114.968 142.385 114.651 143.038 114.581Z" fill="#FCF3F6"/>
<path d="M83.4069 66.9789C82.8119 66.6589 82.8109 66.1619 82.9359 65.6539C82.9779 65.4809 84.5869 65.152 84.7229 65.272C84.7959 65.336 84.8499 65.4779 84.8349 65.5729C84.7949 65.8269 84.5559 66.1199 84.3799 66.0009C83.4409 65.3639 83.6729 66.29 83.4819 66.638C83.4339 66.727 83.4349 66.8409 83.4069 66.9789Z" fill="#FBEBEE"/>
<path d="M222.797 130.932C222.533 130.685 222.419 130.609 222.43 130.583C222.605 130.142 221.855 130.167 222.016 129.757C222.063 129.637 222.213 129.625 222.318 129.692C222.713 129.944 222.867 130.293 222.797 130.932Z" fill="#FCEFF2"/>
</svg>
