<svg width="239" height="205" viewBox="0 0 239 205" fill="none" xmlns="http://www.w3.org/2000/svg">
<path d="M99.2578 49.5291C99.2468 49.2971 99.4047 49.1921 99.5807 49.1011C100.215 49.4981 100.897 49.5931 101.62 49.4221C102.683 50.1461 103.151 51.3321 103.872 52.3211C104.045 52.6451 104.148 52.6821 104.826 52.6311C104.576 54.1001 104.596 55.5971 104.277 57.0161C104.158 57.5441 104.039 57.9701 104.153 58.5041C104.23 58.8641 103.875 59.0371 103.58 59.1751C103.35 59.2831 103.108 59.4611 103.162 59.6961C103.24 60.0311 103.566 59.7581 103.716 59.8141C104.016 59.9271 104.409 59.9881 104.604 60.4231C103.999 60.6111 103.433 60.3411 102.903 60.2791C101.521 60.1181 100.404 60.8861 99.1468 61.1221C98.5408 61.2741 97.9488 61.4361 97.3048 61.2381C96.9128 61.1171 96.5668 61.2621 96.2418 61.5961C95.8648 61.9831 95.3098 62.1221 94.8068 61.8411C94.3468 61.5841 94.4778 61.3741 94.9608 61.3341C95.6608 60.0251 95.6608 60.0251 94.6388 59.6191C94.0628 58.9111 93.1418 58.5111 92.8168 57.5791C93.5118 56.6741 93.4748 56.5431 92.2548 55.8241C92.8818 55.5831 93.5538 55.3411 92.8178 54.5731C93.4028 54.1671 92.8908 53.3671 93.3728 52.9561C93.8798 52.5241 92.8018 52.3741 93.2438 51.9961C93.9168 51.7021 94.5508 51.3481 95.0718 50.8181C96.0398 50.9961 95.4567 50.1401 95.7057 49.8381C96.0277 49.8281 96.2468 50.1581 96.5738 50.0681C96.9448 51.3071 98.4118 51.2851 99.0628 52.2251C99.2438 52.4871 99.6178 52.3181 99.7818 52.0971C100.114 51.6501 99.7978 51.3561 99.4298 51.1591C98.5548 50.6901 98.5348 50.1561 99.2578 49.5291Z" fill="#FAE6EB"/>
<path d="M39.2498 133.981C40.7558 134.356 42.3948 135.923 42.4058 137.133C42.4168 138.304 42.3008 139.478 42.1998 140.647C42.1818 140.855 41.9718 141.055 41.8298 141.243C41.4758 141.711 41.0038 142.123 40.7698 142.644C40.2808 143.736 39.2738 144.038 38.3158 144.239C37.4058 144.43 36.3758 144.466 35.4898 144.228C34.6808 144.01 33.8488 143.569 33.1478 143.097C32.2318 142.48 31.4448 141.617 31.3608 140.362C31.3478 140.165 31.0438 140.005 31.3518 139.776C31.6458 139.557 31.4398 139.246 31.4028 138.996C31.1598 137.361 30.9608 137.571 32.0818 135.897C32.1478 135.798 32.2068 135.695 32.2698 135.594C32.6368 135.324 32.7048 134.806 33.1158 134.573C33.9038 134.669 34.5588 134.864 34.6368 135.865C34.6648 136.23 35.0948 136.492 35.4748 136.866C36.0208 135.463 37.3148 135.746 38.3048 135.806C39.0928 135.854 39.0918 135.657 39.0698 135.109C39.0528 134.722 38.9098 134.312 39.2498 133.981Z" fill="#FBE9ED"/>
<path d="M132.52 109.104C133.22 109.671 133.989 110.086 134.861 110.355C135.428 110.53 136.055 110.745 136.156 111.518C136.194 111.808 136.498 111.931 136.706 112.108C137.033 112.257 137.295 111.869 137.623 112.003C137.982 112.149 138.173 112.357 137.869 112.714C136.96 113.782 136.955 114.276 137.865 115.432C137.94 115.527 137.982 115.638 137.989 115.76C137.732 115.865 137.48 116.041 137.217 116.061C136.541 116.112 136.253 116.378 136.493 117.065C136.63 117.459 136.518 117.595 136.1 117.447C135.778 117.333 135.723 117.621 135.594 117.815C135.183 118.436 134.276 118.51 133.974 119.267C133.93 119.376 133.716 119.407 133.671 119.307C133.323 118.537 132.722 119.399 132.284 119.073C131.831 118.736 131.17 119.133 130.716 118.703C130.057 119.352 129.606 118.912 129.205 118.388C129.022 118.149 127.875 116.634 127.673 116.472C127.182 116.077 127.157 114.616 127.614 114.047C127.663 113.985 127.597 113.83 127.584 113.718C126.769 113.094 126.83 112.521 127.653 111.943C128.167 111.582 128.76 111.262 128.519 110.415C128.456 110.195 128.79 109.911 129.07 109.865C130.232 109.671 131.229 108.713 132.52 109.104Z" fill="#FAE6EB"/>
<path d="M210.546 99.3532C210.036 98.5242 209.95 97.5922 209.95 96.6592C209.95 95.9722 210.111 95.3232 210.788 94.9282C210.985 94.8132 211.137 94.6102 211.286 94.4282C212.465 92.9782 214.056 92.6692 215.743 93.0432C217.082 93.3402 218.174 94.1152 218.595 95.5642C218.727 96.0172 218.997 96.4162 219.148 96.8762C219.566 98.1522 219.174 99.1152 218.183 99.9332C217.979 100.101 217.879 100.392 217.723 100.622C217.032 101.639 215.468 102.172 214.196 101.826C214.557 100.235 214.12 99.1082 212.419 98.6552C211.933 98.5252 211.86 97.9022 211.53 97.6862C210.917 98.4122 211.163 99.3042 211.027 100.132C210.868 100.318 210.651 100.551 210.437 100.344C210.101 100.017 210.488 99.6852 210.546 99.3532Z" fill="#FBE9ED"/>
<path d="M0.39676 115.839C0.48676 115.358 1.34576 115.365 1.11076 114.616C1.01676 114.317 0.97376 114.34 0.71676 114.267C0.0987596 114.092 0.0237577 113.66 0.386758 113.134C0.929758 112.348 1.76576 111.815 2.22876 110.958C2.30876 110.81 2.56176 110.671 2.73476 110.672C3.62476 110.673 4.57376 109.965 5.39976 110.866C5.47776 110.951 5.59076 111.03 5.69976 111.054C6.34776 111.198 6.47276 111.479 6.40976 112.173C6.35876 112.731 5.88876 113.412 6.69976 113.836C6.21876 114.627 7.09176 115.121 7.13576 115.831C7.27476 118.049 5.37875 119.754 3.22675 119.215C2.69875 119.083 2.21476 119.285 1.62376 119.345C1.68576 118.641 1.75876 117.918 0.828759 117.771H0.829759C0.793759 117.7 0.756757 117.629 0.720757 117.558C0.854757 116.939 0.31476 116.448 0.39676 115.839Z" fill="#FBE9ED"/>
<path d="M132.52 109.104C132.419 109.226 132.334 109.366 132.215 109.468C131.815 109.812 131.295 108.868 131.007 109.5C130.706 110.159 130.17 109.749 129.781 109.932C129.607 110.013 129.404 110.05 129.21 110.066C128.871 110.094 128.667 110.356 128.646 110.594C128.613 110.973 129.128 110.681 129.304 111.054C128.682 111.143 128.504 111.782 127.987 112.041C127.204 112.433 127.018 112.992 127.581 113.72C127.277 113.691 127.021 113.537 126.671 113.576C125.284 113.729 124.074 113.046 123.363 112.046C122.558 110.915 122.174 109.463 122.272 108.002C122.312 107.409 122.872 107.103 123.288 106.743C123.86 106.991 124.43 106.973 125.015 106.767C125.727 106.515 126.446 106.28 127.219 106.517C127.619 106.64 127.848 106.357 128.152 106.161C128.824 105.73 129.564 105.421 130.371 105.887C130.711 106.74 131.036 107.591 131.777 108.214C132.068 108.455 132.396 108.705 132.52 109.104Z" fill="#FBECEF"/>
<path d="M147.016 69.3962C146.956 69.7352 146.796 69.9952 146.426 70.0362C145.749 70.1112 145.178 70.6622 144.42 70.4182C143.462 70.1102 142.52 70.0582 141.606 70.6592C141.182 70.9382 140.291 70.2432 140.035 69.5722C139.828 69.0292 139.978 68.5022 140.181 68.0652C140.675 66.9992 140.891 65.8582 141.246 64.7562C141.484 64.0162 142.258 63.8082 142.779 63.3742C142.669 62.7672 142.105 63.0412 141.807 62.8082C141.49 62.5602 141.409 62.3842 141.664 62.0382C141.922 61.6882 142.209 61.6522 142.601 61.7332C142.964 61.8082 143.293 61.8032 143.288 62.3342C143.285 62.6272 143.471 62.9222 143.572 63.2162C145.26 62.5142 146.979 63.8872 147.769 65.5332C147.724 65.7212 147.718 65.9662 147.438 65.9302C147.109 65.8872 146.879 65.2942 146.437 65.8352C145.927 66.4602 145.37 67.0702 145.202 67.8602C145.104 68.3202 145.675 68.4182 145.998 68.6262C146.356 68.8562 147.031 68.6722 147.016 69.3962Z" fill="#FBEBEF"/>
<path d="M81.7617 65.5192C81.6487 64.0832 81.9897 62.8172 83.0917 61.8082C83.2717 61.6442 83.4147 61.3872 83.6637 61.5102C84.0977 61.7262 84.4537 61.9132 84.6557 61.2512C84.7027 61.0982 85.0007 61.0962 85.0667 61.2112C85.5777 62.1002 86.8147 61.8832 87.3427 62.7272C88.4957 63.2002 88.5967 64.4182 89.1657 65.3042C89.2027 65.4842 89.1297 65.6952 89.3597 65.8192C89.4717 65.8792 89.8257 65.8592 89.4857 66.1712C88.6807 66.9092 87.8907 67.6692 87.1537 68.4732C86.7317 68.9332 86.2087 69.1202 85.6847 69.0152C84.7207 68.8222 85.0947 69.3922 85.1697 69.8042C84.1967 70.0772 84.3817 69.0272 83.9077 68.7422C83.3217 68.3292 83.1667 67.3462 82.1927 67.4492C81.9467 67.2142 81.4827 67.0902 81.7567 66.5902C82.2047 66.2362 81.7537 65.8762 81.7617 65.5192Z" fill="#FAE4E9"/>
<path d="M45.4397 141.086C46.1407 140.835 46.9067 140.904 47.6477 140.795C47.7627 140.778 47.8847 140.773 47.8997 140.941C47.9197 141.175 47.6507 141.561 48.1497 141.556C48.4797 141.553 48.5127 141.181 48.6707 140.963C48.8777 140.675 49.2647 140.641 49.2687 140.998C49.2777 141.874 49.9857 142.187 50.4677 142.631C51.0547 143.171 51.1967 143.727 51.1447 144.49C51.1007 145.15 50.7267 145.696 50.7007 146.365C50.6857 146.752 50.2967 147.03 49.7797 147.181C47.8967 147.73 46.1507 147.598 44.4657 146.56C44.1127 146.343 44.1977 146.014 44.0747 145.745C43.9067 145.377 44.3747 144.767 43.6377 144.599C43.6037 144.591 43.5557 144.435 43.5837 144.393C44.2247 143.419 44.0127 142.025 45.1097 141.278C45.2077 141.211 45.3147 141.157 45.4397 141.086Z" fill="#FBEBEF"/>
<path d="M188.666 147.185C188.702 147.047 188.695 146.895 188.767 146.829C189.222 146.407 189.389 146.002 189.112 145.346C188.861 144.752 189.035 144.17 189.664 143.716C190.345 143.224 190.838 142.57 191.698 142.204C192.886 141.698 193.883 141.991 194.728 142.581C195.655 143.228 195.767 144.421 195.702 145.502C195.67 146.044 195.639 146.405 196.242 146.606C196.534 146.704 196.787 146.953 196.596 147.356C196.45 147.664 196.462 148.084 195.95 148.086C195.601 148.087 195.245 148.279 194.914 148.018C194.639 147.801 194.375 147.923 194.142 148.079C193.736 148.35 193.393 148.841 192.823 148.382C191.793 149.066 191.058 148.488 190.323 147.82C189.869 147.406 189.19 147.5 188.666 147.185Z" fill="#FBE8EC"/>
<path d="M200.236 152.801C199.619 153.209 199.353 152.474 198.894 152.389C197.339 152.102 197.106 150.851 196.955 149.63C196.842 148.721 196.576 147.709 197.665 147.056C198.331 146.656 199.031 146.278 199.565 145.681C199.669 145.565 199.832 145.485 199.997 145.574C200.839 146.028 201.786 145.881 202.677 146.052C202.836 146.083 203.049 146.12 203.058 146.285C203.074 146.611 202.829 146.431 202.665 146.468C202.289 146.553 202.278 146.818 202.583 147.021C203.208 147.438 203.22 148.145 203.451 148.748C203.822 149.72 203.05 150.391 202.786 151.196C202.738 151.343 202.66 151.479 202.596 151.621C201.885 152.166 201.332 153.026 200.236 152.801Z" fill="#FBE9ED"/>
<path d="M48.9927 97.3262C48.8857 96.9792 48.9657 96.4432 48.3337 96.4612C48.2547 96.4632 48.0867 96.2882 48.1017 96.2342C48.3337 95.4002 47.6907 94.7322 47.6897 93.9522C47.6897 93.7542 47.7227 93.5662 47.6547 93.3672C47.3547 92.4922 47.7597 91.7962 48.6397 91.2952C49.1197 91.0222 49.5857 90.7122 50.0857 90.4742C51.3907 89.8522 52.2997 90.1222 53.0887 91.3442C54.2447 93.1322 54.2087 93.9942 52.8907 95.8022C52.7687 95.9702 52.6367 96.1402 52.6907 96.3402C52.8037 96.7512 52.7387 96.8612 52.3467 96.6082C52.2607 96.5532 52.0767 96.4892 52.0757 96.6772C52.0747 96.9002 52.5917 97.1282 52.1397 97.3352C51.8507 97.4682 51.7127 97.0402 51.4767 96.9252C50.9107 96.6482 51.0757 97.6192 50.4787 97.5092C50.1177 97.4432 50.1417 96.5882 49.5777 97.1212C49.4387 97.2542 49.2617 97.3702 48.9927 97.3262Z" fill="#FAE6EB"/>
<path d="M130.372 105.884C129.859 105.897 129.339 106.113 128.863 106.069C128.155 106.004 128.311 106.966 127.694 106.878C127.189 106.806 126.642 106.58 126.189 106.703C125.629 106.854 125.041 106.987 124.508 107.224C123.888 107.501 123.53 107.32 123.289 106.741C123.644 106.14 124.396 106.005 124.793 105.454C125.455 104.954 126.09 104.449 126.244 103.547C126.338 102.999 126.73 102.77 127.285 102.771C127.794 102.772 128.304 102.727 128.993 103.111C128.67 102.464 128.445 102.027 128.232 101.583C128.114 101.338 128.164 100.976 128.414 101.024C129.347 101.203 130.127 100.51 131.113 100.717C131.911 100.885 132.486 101.015 132.76 101.851C132.935 102.383 133.65 102.696 133.426 103.403C133.239 103.997 133.523 104.657 132.659 105.145C132.034 105.497 131.429 105.308 130.869 105.584C130.689 105.672 130.4 105.533 130.372 105.884Z" fill="#FAE7EB"/>
<path d="M86.3757 73.3992C86.4637 73.8422 86.2297 74.3902 86.8647 74.4682C88.2347 74.6362 88.2277 75.7352 88.5967 76.7482C89.0867 78.0942 88.2807 78.6972 87.7247 79.6392C87.1997 80.5282 86.5127 80.6342 85.8607 80.4342C85.2477 80.2452 85.1127 81.0832 84.4757 80.7512C83.9477 80.4752 83.9277 79.7382 83.5367 79.6882C82.5697 79.5642 82.7617 78.8612 82.6167 78.2932C82.4797 77.7582 82.4587 77.1942 82.4087 76.6622C82.3637 76.1752 82.4017 75.6572 83.1017 75.1712C84.1247 74.4602 85.4247 74.3902 86.3757 73.3992Z" fill="#FEF9F5"/>
<path d="M121.314 78.4511C121.635 78.5261 121.863 78.6021 122.096 78.6291C122.466 78.6721 122.648 78.9561 122.502 79.2011C122.148 79.7931 122.269 80.5061 121.93 81.0901C121.832 81.2591 121.763 81.4601 121.735 81.6541C121.633 82.3661 121.205 82.6901 120.545 82.9301C120.122 83.0831 119.558 82.9711 119.264 83.4601C119.234 83.5101 119.098 83.5551 119.052 83.5301C118.404 83.1691 117.734 82.8811 117.021 82.6551C116.658 82.5401 116.616 82.0081 116.433 81.6601C115.627 80.1271 116.588 78.9891 117.255 77.7811C117.411 77.4991 117.626 77.4541 117.951 77.4861C118.835 77.5731 119.769 77.1801 120.597 77.8131C120.758 77.9371 120.978 77.8461 121.153 77.7241C121.345 77.5911 121.499 77.1301 121.785 77.5371C122.082 77.9591 121.535 78.0141 121.379 78.2431C121.359 78.2691 121.357 78.3081 121.314 78.4511Z" fill="#FEF9F5"/>
<path d="M144.111 112.969C145.356 112.698 146.607 112.187 147.768 113.24C148.258 113.685 148.19 112.818 148.521 112.842C148.811 113.084 148.754 113.363 148.592 113.6C148.371 113.925 148.48 114.178 148.643 114.478C149.254 115.607 149.151 116.352 148.296 117.221C147.934 117.589 147.582 117.968 147.198 118.313C146.579 118.869 145.381 118.938 144.676 118.409C144.376 118.183 143.559 118.563 143.787 117.694C143.573 116.997 142.866 116.546 142.826 115.763H142.825C142.931 115.376 142.511 114.894 143.038 114.583C143.134 114.496 143.17 114.388 143.145 114.261C143.372 113.758 143.248 112.994 144.111 112.969Z" fill="#FAE4E9"/>
<path d="M223.529 130.699C223.386 131.07 222.312 131.087 223.105 131.853C223.192 131.937 222.886 132.477 222.5 132.378C222.018 132.255 221.66 132.479 221.249 132.626C220.315 132.96 218.893 132.216 218.598 131.263C218.521 131.014 218.614 130.734 218.127 130.796C217.867 130.829 218.049 130.524 218.192 130.407C219.149 129.622 219.639 128.559 220.075 127.432C220.525 126.271 221.275 125.995 222.817 126.253C223.734 126.407 224.899 127.363 224.834 128.076C224.788 128.58 224.426 129.054 224.79 129.573C224.795 129.58 224.748 129.64 224.719 129.647C224.684 129.656 224.642 129.635 224.603 129.627C224.047 129.786 224.117 130.571 223.529 130.699Z" fill="#FBE7EB"/>
<path d="M125.853 53.9562C126.416 54.6382 126.611 55.2292 126.211 55.8972C125.925 56.3762 126.34 56.4862 126.644 56.6652C127.272 57.0342 127.533 57.5232 127.217 58.2642C127.009 58.7502 126.893 59.1502 126.207 59.2382C125.482 59.3312 124.895 59.1072 124.736 58.5462C124.328 57.1062 122.94 56.5492 122.196 55.4412C121.807 54.8612 121.467 54.1272 121.607 53.4912C121.787 52.6702 122.178 51.7992 123.171 51.5472C123.798 51.3882 124.331 51.7002 124.848 51.9872C125.011 52.0772 125.156 52.3802 125.32 52.2742C126.119 51.7582 126.379 52.4162 126.813 52.8442C127.045 53.0732 127.334 53.1472 127.165 53.5682C126.997 53.9852 126.72 53.9362 126.389 53.8632C126.288 53.8422 126.169 53.8982 125.853 53.9562Z" fill="#FDF6F4"/>
<path d="M156.863 49.5583C156.849 49.4483 156.553 49.2673 156.35 49.0383C155.418 47.9853 155.571 46.3463 156.703 45.5043C158.231 44.3673 159.457 44.3653 160.607 45.4953C161.685 46.5543 161.567 48.6723 160.352 49.5543C159.912 49.8733 159.454 50.0483 159.281 50.7143C159.141 51.2543 158.416 51.2133 157.958 50.9923C157.473 50.7573 156.959 50.4503 156.863 49.5583Z" fill="#FEF9F6"/>
<path d="M35.7137 89.3362C35.0407 88.3692 35.5427 87.3782 35.8967 86.5592C36.4307 85.3242 37.4417 84.4672 38.9487 84.4962C39.0977 84.4992 39.3127 84.3782 39.3907 84.5052C39.7817 85.1432 40.3587 84.8182 40.9637 84.7532C40.8517 85.7062 40.7877 86.5492 41.0277 87.4492C41.3427 88.6262 39.9537 90.1112 38.7087 90.2032C38.0057 90.2542 37.3167 90.4152 36.6277 90.0182C36.3377 89.8512 35.9257 89.9922 35.6067 90.1922C34.4907 89.7632 35.7917 89.6362 35.7137 89.3362Z" fill="#FBE9ED"/>
<path d="M212.535 90.8452C211.389 91.5292 210.18 91.3902 209.346 90.5282C209.291 90.4712 209.172 90.3852 209.181 90.3692C209.67 89.5272 209.008 89.6832 208.556 89.6192C208.401 89.5972 208.277 89.4152 208.375 89.2492C208.69 88.7132 208.33 88.1532 208.46 87.6102C208.56 87.1912 208.403 86.5662 208.793 86.3932C209.42 86.1142 209.82 85.5392 210.447 85.3122C210.621 85.2492 210.868 85.2522 211.035 85.3282C212.439 85.9612 213.716 86.7362 214.171 88.3582C214.294 88.7962 213.686 90.2102 213.214 90.5012C212.978 90.6472 212.717 90.7552 212.535 90.8452Z" fill="#FBECEF"/>
<path d="M155.716 105.601C155.572 105.788 155.355 105.926 155.039 105.805C154.073 105.436 152.75 105.564 152.678 103.991C152.653 103.439 152.267 103.6 151.887 103.704C150.366 104.119 149.486 103.323 149.7 101.767C149.782 101.175 150.748 100.302 151.281 100.473C151.885 100.667 152.646 100.529 153.058 101.243C153.242 101.562 153.595 101.508 153.914 101.361C155.106 100.815 155.931 101.417 156.656 102.269C157.336 103.067 156.864 103.938 156.748 104.769C156.678 105.272 156.098 105.298 155.716 105.601Z" fill="#FCF0F3"/>
<path d="M182.917 119.603C182.64 119.996 182.351 119.97 182.017 119.681C181.724 119.427 181.327 119.55 180.983 119.461C179.298 119.023 178.702 117.761 179.523 116.218C179.997 115.328 180.571 114.491 181.771 114.591C182.133 114.621 182.281 114.275 182.621 114.23C182.972 114.184 183.35 113.807 183.224 114.559C183.212 114.633 183.245 114.781 183.247 114.781C183.901 114.721 184.094 115.442 184.445 115.579C185.233 115.888 184.874 116.577 184.807 116.738C184.415 117.69 183.875 118.582 183.358 119.478C183.302 119.574 183.065 119.565 182.917 119.603Z" fill="#FAE7EB"/>
<path d="M93.1977 174.248C92.9767 174.244 92.7117 174.351 92.7587 174.544C93.0127 175.602 92.0347 175.777 91.5187 176.154C90.8537 176.641 89.9168 176.533 89.1258 176.503C88.5218 176.48 87.9707 175.847 87.8137 175.25C87.5707 174.324 87.4637 173.335 88.2477 172.52C89.1327 171.601 89.8307 171.398 90.8667 172.108C91.4117 172.482 92.3458 172.378 92.5008 173.32C92.5358 173.533 92.8357 173.433 93.0297 173.41C93.3307 173.375 93.6137 173.448 93.6957 173.771C93.7957 174.173 93.4837 174.214 93.1977 174.248Z" fill="#FCF0F2"/>
<path d="M62.5667 196.558C62.3237 197.111 62.9797 197.014 63.0857 197.367C63.4027 198.422 62.5857 199.719 61.4667 199.82C60.7787 199.882 60.1407 200.207 59.3947 199.853C57.9167 199.152 57.5647 197.182 58.5737 195.894C59.1667 195.137 59.5277 194.956 60.3807 195.452C60.7667 195.676 61.4007 195.441 61.8767 195.814C62.1657 196.039 62.3847 196.285 62.5667 196.558Z" fill="#FCF1F3"/>
<path d="M55.0368 65.7272C54.5758 66.7472 53.5938 66.9362 52.6718 67.0462C51.7758 67.1532 51.1438 66.6222 50.7628 65.7812C50.3768 64.9292 50.4888 64.1802 51.0288 63.4362C51.3748 62.9592 52.1068 62.7752 52.0508 61.9492C52.0368 61.7462 52.6908 61.3152 53.0078 61.7672C53.5038 62.4742 53.8588 62.0442 54.3488 61.6612C54.3628 62.4022 54.4788 62.9762 55.1158 63.4352C55.6178 63.7972 55.4608 64.5052 55.2518 65.0832C55.2078 65.3082 55.2048 65.5452 55.0368 65.7272Z" fill="#FBECEF"/>
<path d="M118.749 166.371C119.395 167.578 118.636 169.692 117.37 170.209C116.855 170.42 115.134 169.705 114.763 169.126C113.733 167.522 113.828 167.073 115.429 165.925C115.772 165.679 115.997 165.161 116.492 165.263C117.109 165.39 117.704 165.633 118.304 165.838C118.55 165.922 118.641 166.159 118.749 166.371Z" fill="#FCF2F4"/>
<path d="M25.3138 81.0601C25.5668 82.4071 24.8168 83.1261 23.8668 83.7221C23.6958 83.8291 23.5228 83.9251 23.4938 84.1501C23.4658 84.3661 23.3548 84.5711 23.1408 84.5631C22.7058 84.5481 23.0438 84.1931 22.9548 84.0541C22.7268 83.7011 22.5128 83.2951 22.2398 83.0231C21.3278 82.1141 21.4778 80.9991 21.5338 79.9331C21.5978 78.7061 22.4168 78.3061 23.5688 78.6961C24.0298 78.8521 24.3958 79.1091 24.8028 79.3291C25.0868 79.4821 25.2528 79.6301 25.1538 79.9721C25.0288 80.4031 25.1678 80.5751 25.6308 80.4571C25.8748 80.3951 26.1678 80.4451 26.2198 80.7121C26.2758 81.0031 26.5148 81.4011 26.2488 81.6031C25.7598 81.9751 25.7228 81.2731 25.3138 81.0601Z" fill="#FBEBEE"/>
<path d="M60.3078 110.918C60.0578 111.36 59.8188 111.06 59.5178 110.979C58.6408 110.742 57.9918 110.047 57.0548 109.901C56.3378 109.79 56.6408 109.171 56.9188 108.904C57.3048 108.534 57.5048 108.171 57.6728 107.648C58.1628 106.118 60.6228 105.716 61.6318 106.913C62.3878 107.809 61.7908 108.728 61.5268 109.498C61.3638 109.972 61.1018 110.8 60.3078 110.918Z" fill="#FBEAEE"/>
<path d="M112.456 65.7402C112.085 66.1492 111.871 66.7252 111.121 66.6782C110.892 66.6632 110.987 67.3841 110.462 67.3531C110.388 67.3481 110.318 67.5442 110.22 67.5952C110.041 67.6872 107.137 66.8731 107.051 66.6871C106.811 66.1681 106.472 65.7492 105.99 65.4392C105.747 65.2822 105.749 64.9942 105.831 64.7942C106.034 64.3002 106.289 63.8682 106.216 63.2622C106.19 63.0482 107.003 62.8802 106.985 62.3062C107.538 62.6322 107.95 63.1842 108.76 63.0492C109.218 62.9732 109.424 63.4542 109.234 63.9042C109.041 64.3622 108.916 64.8042 109.125 65.2252C109.168 64.8852 108.814 64.2681 109.306 64.1181C109.858 63.9491 110.51 63.6482 111.115 64.1132C111.688 64.5522 112.09 65.1292 112.456 65.7402Z" fill="#FCECEE"/>
<path d="M99.9317 96.0223C98.9357 95.9473 98.5887 96.4723 98.1997 97.0393C97.5527 97.9803 96.7217 98.0953 95.8137 97.4003C95.3487 97.0453 95.2177 97.3663 94.9517 97.7523C94.8197 97.1343 94.8407 96.5963 94.4977 96.0833C93.9037 95.1933 94.6057 93.7933 95.6597 93.7143C96.2467 93.6703 96.1947 93.1653 96.2357 92.9903C96.4197 92.2013 96.7447 92.2973 97.3247 92.5823C97.8997 92.8653 98.1477 93.3153 98.2677 93.8703C98.4987 94.9413 98.8807 95.5133 99.9317 96.0223Z" fill="#FCEFF2"/>
<path d="M183.868 128.504C183.834 128.235 184 126.864 184.14 126.658C185.371 124.847 186.738 124.749 188.247 126.368C188.381 126.512 188.459 126.743 188.619 126.825C189.564 127.307 188.77 128.278 188.678 128.313C188.013 128.562 187.67 129.24 186.952 129.435C186.341 129.601 185.783 129.639 185.199 129.494C184.616 129.348 184.255 128.903 183.868 128.504Z" fill="#FBE9ED"/>
<path d="M110.515 49.2602C111.746 48.7592 112.873 48.8742 113.488 49.5622C114.654 50.8692 114.195 52.5692 112.529 53.1192C112.183 53.2332 111.895 53.4192 111.673 53.7272C111.476 54.0012 111.316 54.3532 110.831 54.1992C110.345 54.0452 110.011 53.6752 110.049 53.2612C110.106 52.6282 109.892 52.1162 109.709 51.5532C109.484 50.8662 110.035 49.4552 110.515 49.2602Z" fill="#FEF8F4"/>
<path d="M130.6 52.6502C130.308 52.4652 130.047 52.6182 129.83 52.7732C128.657 53.6042 127.685 52.8952 126.794 52.2902C125.998 51.7502 126.438 49.1402 127.314 48.7272C128.48 48.1772 130.128 48.8402 130.655 50.0952C130.894 50.6642 131.009 51.3032 131.67 51.5762C131.773 51.6162 131.853 51.6812 131.909 51.7772C131.994 52.8492 131.181 52.5752 130.6 52.6502Z" fill="#FEF9F6"/>
<path d="M22.9007 86.5061C22.3017 86.9071 21.9157 87.5461 21.4597 88.1271C20.7527 89.0271 19.4857 89.0371 18.7617 88.1661C17.7347 86.9311 17.7047 85.9921 18.5357 84.5551C18.7577 84.1711 18.9497 84.6121 19.1017 84.4641C20.1707 83.4231 21.2837 84.0971 22.5177 84.4301C21.5827 84.8621 22.1867 85.5821 22.1307 86.1811C22.0687 86.8451 22.7277 85.9831 22.9007 86.5061Z" fill="#FBE9ED"/>
<path d="M39.2498 133.981C39.2868 134.373 39.2678 134.78 39.3738 135.153C39.5398 135.738 39.3468 136.146 38.9178 136.483C38.7068 136.547 38.6298 136.401 38.5238 136.285C38.2918 136.03 38.2838 136.027 37.7338 136.265C37.5528 136.343 37.4528 136.204 37.3138 136.169C36.4628 135.953 36.0848 136.205 35.9118 137.095C35.8818 137.251 35.8818 137.422 35.7048 137.471C35.5358 137.518 35.3148 137.406 35.3048 137.29C35.2388 136.485 33.7508 136.37 34.3338 135.269C33.8928 135.133 33.4758 134.95 33.1318 134.63C33.4198 134.13 34.1978 133.91 33.9898 133.127C34.4478 132.394 35.3408 132.569 35.8058 132.699C36.9208 133.01 38.2188 132.858 39.1388 133.774C39.1768 133.842 39.2128 133.911 39.2498 133.981Z" fill="#FAE4E9"/>
<path d="M89.9308 128.858C89.4078 129.723 89.0368 130.359 88.6428 130.98C88.1438 131.766 87.9008 131.808 86.9528 131.48C86.5848 131.353 86.2008 131.28 85.8278 131.135C84.8138 130.74 84.5038 130.457 84.5138 129.458C84.5208 128.757 84.9008 128.138 85.2338 127.531C85.3268 127.361 85.4968 127.359 85.6278 127.483C85.9378 127.778 86.2208 127.529 86.5028 127.448C87.2648 127.228 87.8638 127.375 88.3938 128.023C88.7328 128.436 89.1028 128.9 89.9308 128.858Z" fill="#FCEEF1"/>
<path d="M18.3327 135.544C18.5207 134.997 17.7237 134.512 18.1407 133.904C18.6997 133.089 19.3537 132.215 20.3577 132.114C21.0627 132.043 21.6837 132.749 21.9827 133.405C22.1657 133.806 22.3297 134.26 22.4687 134.703C22.7057 135.459 22.5807 136.045 21.8627 136.391C21.3627 136.632 21.1057 137.188 20.3977 137.201C19.2047 137.222 19.0437 136.143 18.3327 135.544Z" fill="#FCEEF1"/>
<path d="M162.79 81.6351C162.052 81.9361 161.313 82.1771 160.549 81.7021C160.485 81.6621 160.389 81.6781 160.32 81.6431C159.915 81.4381 159.333 82.0431 159.058 81.4431C158.656 80.5671 158.189 79.6511 158.869 78.6941C159.321 78.0571 159.781 77.4651 160.727 77.5431C161.606 77.6151 162.064 78.1181 162.351 78.8521C162.425 79.0421 162.43 79.2641 162.681 79.2531C163.42 79.2201 163.266 79.8481 163.434 80.2381C163.439 80.2901 163.444 80.3421 163.449 80.3951C163.241 80.8131 162.61 81.0081 162.79 81.6351Z" fill="#FEF9F5"/>
<path d="M192.439 4.03517C191.779 4.37017 189.432 3.71617 189.462 3.09117C189.487 2.56717 188.87 2.25217 189.187 1.82717C189.624 1.24217 190.083 0.635174 190.657 0.201174C191.383 -0.347826 193.191 0.309174 193.68 1.19517C194.127 2.00517 193.468 3.51317 192.439 4.03517Z" fill="#FAE6EB"/>
<path d="M102.087 201.666C101.581 202.11 101.394 202.62 101.244 203.147C101.038 203.872 100.487 204.145 99.8078 204.15C99.2718 204.154 98.3288 203.16 98.2878 202.635C98.2718 202.428 98.3098 202.221 98.4758 202.094C99.2298 201.516 98.9938 200.889 98.6428 200.197C98.2598 199.441 98.4008 199.185 99.1958 198.921C99.4198 198.847 99.6778 198.804 99.8528 198.663C100.741 197.951 101.085 198.851 101.501 199.267C101.946 199.71 101.539 200.106 101.193 200.455C100.95 200.7 100.658 200.943 100.844 201.376C101.095 201.958 101.548 201.458 102.087 201.666Z" fill="#FCF3F5"/>
<path d="M70.4537 122.946C69.6667 123.363 68.4448 122.765 68.2348 121.832C68.1148 121.3 68.1257 120.757 67.4667 120.494C67.1477 120.367 67.2228 119.918 67.3068 119.619C67.4148 119.239 67.8038 119.366 68.0258 119.412C68.6258 119.535 69.1397 119.47 69.5467 118.991C69.7497 118.752 69.9218 118.878 70.1648 118.925C71.1488 119.116 71.5898 120.031 72.3628 120.495C72.5918 120.632 72.4198 120.831 72.3258 121.008C72.0068 121.612 71.0187 122.646 70.4537 122.946Z" fill="#FBEDF0"/>
<path d="M91.9097 151.99C92.4747 152.285 92.7497 152.657 92.6107 153.11C92.3847 153.844 92.7707 153.936 93.3217 153.959C93.9177 153.984 94.1767 154.181 93.9467 154.859C93.7837 155.341 94.0197 155.862 94.1347 156.364C94.2517 156.876 94.1917 157.128 93.4457 157.159C92.6177 157.194 91.8567 157.124 91.0447 157.003C90.1057 156.862 90.0957 156.245 90.0767 155.64C90.0557 154.966 89.8647 153.999 90.8107 153.876C92.0587 153.715 91.9017 152.908 91.9097 151.99Z" fill="#FCF0F3"/>
<path d="M163.435 80.2381C163.811 79.8211 163.593 79.2441 163.853 78.7731C164.407 77.7691 165.453 77.1231 166.224 77.4021C167.163 77.7431 167.908 78.9811 167.674 80.0131C167.557 80.5281 167.596 81.0091 167.685 81.5161C166.726 81.5571 165.831 81.5961 164.936 81.6351C164.58 81.0151 163.834 80.8131 163.434 80.2401L163.435 80.2381Z" fill="#FEF9F5"/>
<path d="M112.456 65.7401C112.316 65.7921 112.104 65.9051 112.067 65.7001C111.941 65.0051 111.239 64.8061 110.916 64.2891C110.803 64.1091 110.614 63.9421 110.45 64.1691C110.096 64.6581 109.702 64.3201 109.373 64.1771C109.089 64.6971 109.407 65.0571 109.498 65.4111C109.597 65.7951 109.508 65.9241 109.196 65.9991C108.845 66.0841 108.815 65.8451 108.812 65.5841C108.805 65.0031 108.71 64.4311 109.032 63.8701C109.261 63.4721 108.988 63.0121 108.592 63.2201C107.472 63.8081 107.336 62.9211 106.984 62.3051C107.202 62.0751 107.451 61.8671 107.63 61.6101C108.013 61.0611 108.496 61.1381 108.997 61.3551C109.532 61.5861 109.952 62.0711 110.613 62.0291C110.825 62.0161 110.886 62.2471 110.974 62.4381C111.24 63.0131 111.685 63.3021 112.35 63.3981C113.494 63.5641 113.607 63.9351 112.903 64.8001C112.682 65.0731 112.402 65.3301 112.456 65.7401Z" fill="#FAE4E9"/>
<path d="M89.0718 71.0222C88.6258 70.1542 88.9168 68.6362 89.8458 68.2962C90.3568 68.1082 89.9898 67.4382 90.3458 67.6352C91.0338 68.0162 91.8838 68.1012 92.4328 68.7212C92.9988 69.3592 92.9608 71.1732 92.3738 71.7122C92.1728 71.8972 91.9058 72.0752 91.6278 72.0402C90.9268 71.9532 90.2268 71.8402 89.5398 71.6802C89.2548 71.6132 89.2138 71.2552 89.0718 71.0222Z" fill="#FEF9F4"/>
<path d="M202.05 49.3792C201.591 49.4842 200.922 49.6062 200.453 49.0382C199.914 48.3842 199.407 47.6622 199.549 46.7372C199.609 46.3462 199.295 46.2822 199.126 46.0912C199.002 45.9502 198.981 45.8132 199.071 45.6652C199.171 45.5022 199.338 45.4802 199.48 45.5812C199.93 45.9002 200.211 45.7182 200.621 45.4082C201.129 45.0252 201.756 45.4392 202.164 45.7112C202.726 46.0872 203.623 46.2372 203.586 47.2452C203.55 48.2342 203.041 48.8632 202.05 49.3792Z" fill="#FCEFF2"/>
<path d="M154.978 13.3961C154.384 12.1001 154.823 11.0941 156.174 10.6111C158.056 9.93707 158.157 9.99607 158.56 12.0001C158.718 12.7891 158.342 13.7561 157.65 14.1521C156.909 14.5771 156.111 14.4331 155.357 14.1871C155.042 14.0831 155.192 13.6041 154.978 13.3961Z" fill="#FBE9ED"/>
<path d="M125.606 33.9481C124.642 34.4131 124.135 34.1981 123.797 33.1931C123.695 32.8901 123.513 32.6431 123.297 32.3971C122.732 31.7551 122.718 31.0881 123.184 30.3391C123.685 29.5351 124.242 29.2841 125.03 29.5061C125.664 29.6851 126.233 30.4541 126.275 31.2331C126.284 31.3951 126.315 31.5091 126.393 31.6551C126.863 32.5441 126.519 33.5071 125.606 33.9481Z" fill="#FEF9F5"/>
<path d="M165.882 135.102C165.255 135.243 164.449 135.082 163.881 135.7C163.854 135.729 163.725 135.688 163.658 135.653C163.193 135.407 163.518 134.994 163.511 134.686C163.501 134.209 162.497 134.813 162.904 134.06C163.082 133.732 162.839 133.417 162.962 133.047C163.28 132.094 163.859 131.559 164.838 131.544C165.376 131.536 165.896 131.689 166.311 131.967C166.692 132.223 167.138 132.487 167.02 133.19C166.887 133.984 166.703 134.655 165.882 135.102Z" fill="#FBECF0"/>
<path d="M230.338 49.8361C229.932 49.0731 230.268 47.5261 230.907 47.2121C231.779 46.7841 233.339 47.5041 233.936 48.6101C234.236 49.1671 233.434 50.8841 232.716 51.2221C231.842 51.6341 231.048 51.1721 230.338 49.8361Z" fill="#FCF1F4"/>
<path d="M180.357 37.8703C179.838 36.8413 180.222 35.5933 181.195 35.1523C181.938 34.8153 183.339 35.2503 183.676 35.9223C184.202 36.9723 183.931 38.3263 183.111 38.7463C182.089 39.2693 180.867 38.8803 180.357 37.8703Z" fill="#FCF3F5"/>
<path d="M101.494 83.5332C101.196 84.4562 100.115 84.1552 99.9828 84.4812C99.5758 85.4862 98.8598 84.7032 98.3858 84.9022C98.3608 84.9882 98.3278 85.0382 98.3418 85.0622C99.0778 86.3722 99.0788 86.3722 100.334 85.2782C100.459 85.5722 100.505 85.8812 100.243 86.0282C99.2418 86.5902 98.2558 87.2222 97.0238 87.1372C96.1998 87.0802 96.1948 86.3662 96.0688 85.8492C95.9408 85.3232 96.1118 84.7712 96.8088 84.7402C97.5908 84.7062 97.9688 84.4102 98.1808 83.5852C98.4398 82.5742 99.1288 82.3792 100.109 82.8202C100.573 83.0292 101.015 83.2852 101.494 83.5332Z" fill="#FCEFF1"/>
<path d="M165.242 168.107C165.297 168.047 165.359 167.92 165.458 167.878C166.062 167.62 166.902 167.47 167.231 167.902C167.636 168.433 168.45 168.947 168.204 169.77C168.031 170.349 167.678 170.881 166.951 171.093C165.348 171.559 164.974 171.466 164.314 170.16C163.842 169.227 164.048 168.644 164.996 168.229C165.068 168.197 165.137 168.159 165.242 168.107Z" fill="#FCF3F5"/>
<path d="M186.29 102.407C186.398 102.834 186.533 103.491 186.86 104.089C186.969 104.289 186.853 104.54 186.637 104.543C185.628 104.56 184.691 105.111 183.653 104.917C183.058 104.805 182.849 104.262 182.604 103.873C182.37 103.503 182.478 102.922 182.83 102.543C183.466 101.858 184.28 101.511 185.203 101.392C185.83 101.31 186.018 101.745 186.29 102.407Z" fill="#FBEBEF"/>
<path d="M190.221 140.638C190.123 140.096 189.667 139.602 190.048 138.994C190.131 138.861 190.074 138.722 190.016 138.56C189.727 137.756 189.744 137.798 190.663 137.766C191.053 137.753 191.404 137.398 191.835 137.39C193.296 137.362 193.95 138.242 193.259 139.524C192.887 140.214 192.642 141.15 191.608 141.337C190.928 141.461 190.435 141.392 190.221 140.638Z" fill="#FBECEF"/>
<path d="M210.87 99.9972C210.953 99.8522 211.002 99.6892 210.9 99.5502C210.564 99.0872 210.53 98.6682 210.997 98.2622C211.107 98.1662 211.152 97.9922 211.22 97.8502C211.336 97.6102 210.403 97.5692 211.086 97.2512C211.467 97.0742 211.931 97.4122 211.98 97.6572C212.132 98.4152 212.909 98.4132 213.26 98.8912C213.49 99.2042 213.815 99.2302 214.098 99.0352C214.654 98.6522 214.723 98.9232 214.654 99.4082C214.538 100.22 214.632 101.073 214.194 101.825C213.961 101.975 213.697 101.909 213.446 101.931C213.066 102.464 212.677 102.312 212.284 101.948C211.683 101.393 211.178 100.767 210.87 99.9972Z" fill="#FAE4E9"/>
<path d="M125.38 75.7681C125.581 75.7171 125.749 75.6521 125.923 75.5351C126.438 75.1891 127.127 74.9521 127.623 75.2361C128.499 75.7371 128.711 76.6941 128.454 77.6051C128.242 78.3581 127.919 78.9151 127.026 78.9591C126.652 78.9781 126.301 79.0551 126.096 78.6601C125.796 78.0801 124.669 78.1021 124.956 77.0801C124.984 76.9801 124.698 76.9501 124.557 76.8861C124.041 76.6531 124.113 76.3241 124.571 76.1861C124.889 76.0911 125.165 76.0021 125.38 75.7681Z" fill="#FEF9F4"/>
<path d="M86.5248 188.279C86.1388 188.195 85.9318 187.711 85.3208 187.993C84.7528 188.256 83.7318 186.885 83.8188 186.173C83.8858 185.629 84.0878 185.092 83.8408 184.415C84.3858 184.622 84.8038 184.473 85.2288 184.44C86.4068 184.348 87.0258 185.204 87.6218 185.961C87.7468 186.119 87.9208 186.968 87.2608 187.282C86.8138 187.495 86.8278 187.523 86.5248 188.279Z" fill="#FCF1F4"/>
<path d="M171.212 60.7912C172.322 60.2492 172.82 60.5202 173.206 61.6952C173.452 62.4432 173.18 63.1262 173.046 63.7832C172.873 64.6302 171.456 65.0272 170.672 64.6052C170.14 64.3192 169.71 64.0262 170.191 63.3412C170.372 63.0842 170.415 62.7752 170.363 62.4322C170.195 61.3302 170.246 61.2632 171.212 60.7912Z" fill="#FEF9F5"/>
<path d="M103.872 52.3212C103.27 52.2102 102.947 51.6332 102.765 51.2482C102.45 50.5802 101.877 50.1022 101.62 49.4232C102.205 49.1102 102.867 48.8872 103.355 48.4632C104.032 47.8762 104.443 48.2122 104.983 48.6232C105.487 49.0062 105.582 49.6092 105.927 50.0712C106.15 50.3692 105.922 50.6352 105.691 50.8922C105.164 51.4762 104.531 51.9132 103.872 52.3212Z" fill="#FEF8F5"/>
<path d="M56.2047 133.56C56.4017 134.131 55.9537 135.144 55.3557 135.599C54.6197 136.158 53.8027 136.064 53.1047 135.707C52.3677 135.329 51.7087 134.628 51.8677 133.737C52.0107 132.936 52.2677 132.136 53.2807 131.734C54.1617 131.384 54.6657 131.676 55.2407 132.165C54.8997 132.613 54.3077 132.737 54.0277 133.077C54.5357 134.234 55.3567 133.973 56.2047 133.56Z" fill="#FCEEF1"/>
<path d="M71.5958 73.4971C71.4788 74.0761 71.1958 74.4711 71.6188 75.0011C72.0298 75.5151 71.6448 76.3091 71.3188 76.7601C71.0128 77.1841 70.5818 77.5011 70.4308 78.0631C70.3758 78.2661 70.0328 78.4051 69.8798 78.0841C69.6278 77.5551 69.1148 77.3381 68.7068 76.9981C68.0188 76.4231 67.9708 75.3981 68.6408 74.8101C68.8778 74.6021 69.1418 74.4321 69.3678 74.2001C69.6508 73.9101 69.9228 73.5151 70.4628 73.8971C70.8398 74.1631 71.1318 73.6461 71.5958 73.4971Z" fill="#FBEDF0"/>
<path d="M180.852 75.3633C181.449 76.4303 181.256 77.1753 180.201 77.7563C179.893 77.9263 179.355 78.2903 179.262 78.1373C178.899 77.5383 178.143 77.4123 177.828 76.8113C177.487 76.1613 177.536 74.8683 177.902 74.6723C179.497 73.8173 180.061 73.9493 180.852 75.3633Z" fill="#FBEEF1"/>
<path d="M132.532 53.8282C132.869 53.7592 133.197 54.1242 133.52 53.7302C133.685 54.3772 133.267 54.5032 132.94 54.7082C132.544 54.9572 132.347 55.2532 132.795 55.6472C132.881 55.7222 132.995 55.8332 132.994 55.9262C132.99 56.3272 132.426 56.7302 133.175 57.1272C133.479 57.2882 133.514 57.9592 133.659 58.3622C132.199 59.4622 131.547 58.2342 130.763 57.3532C130.786 57.1102 131.075 57.2272 131.204 57.1142C131.678 56.6992 131.623 56.3352 131.028 56.1122C130.535 55.9272 130.064 55.7242 129.774 55.2682C129.584 54.9692 129.37 54.6292 129.846 54.3662C130.71 54.0312 131.586 53.7542 132.532 53.8282Z" fill="#FCF0F3"/>
<path d="M222.886 110.359C222.276 110.652 220.896 110.339 220.637 109.848C220.283 109.178 220.905 107.284 221.577 106.991C222.34 106.658 223.744 107.015 224.006 107.608C224.371 108.437 223.759 109.939 222.886 110.359Z" fill="#FBEEF1"/>
<path d="M195.086 137.131C194.98 136.919 194.874 136.707 194.68 136.319C195.339 136.478 195.866 136.318 196.327 136.129C197.211 135.767 197.689 136.217 198.122 136.814C198.494 137.327 198.346 138.57 197.926 139.06C197.589 139.454 197.141 139.709 196.662 139.574C195.991 139.385 195.087 139.905 194.658 138.954C194.782 138.845 194.818 138.53 194.768 138.328C194.657 137.876 195.028 137.543 195.086 137.131Z" fill="#FBEAED"/>
<path d="M163.435 80.2402C164.062 80.5692 165.052 80.5072 164.937 81.6352C164.724 81.7752 164.58 81.8972 164.777 82.1932C165.527 83.3232 165.322 84.2582 164.24 85.0852C163.956 85.3022 163.759 85.2642 163.5 85.1192C162.798 84.7232 162.429 83.7762 162.754 82.9742C162.943 82.5082 163.102 82.0922 162.792 81.6352C162.64 81.3302 162.488 81.0262 162.302 80.6552C162.78 80.6312 163.236 80.7312 163.435 80.2402Z" fill="#FCEEF1"/>
<path d="M143.885 135.62C143.304 136.018 142.431 135.473 141.942 136.227C141.883 136.317 141.608 136.222 141.578 136.044C141.418 135.104 141.244 134.165 141.151 133.218C141.114 132.839 142.671 132.186 143.005 132.439C143.596 132.886 144.176 133.358 144.704 133.876C145.039 134.203 144.486 135.323 143.885 135.62Z" fill="#FCF2F4"/>
<path d="M31.0027 116.539C30.1567 116.792 30.2557 117.623 29.7697 118.071C29.0117 118.769 27.9287 119.024 27.1137 118.496C26.9437 118.386 26.9377 118.265 26.9377 118.105C26.9407 117.142 27.4247 116.231 27.2147 115.233C27.1747 115.041 27.4527 114.757 27.6027 114.665C28.6637 115.387 29.5487 116.294 31.0027 116.539Z" fill="#FBEDF0"/>
<path d="M147.016 69.3961C146.263 68.8751 145.186 68.9351 144.676 68.0051C145.225 67.3031 145.436 66.3031 146.199 65.6341C146.638 65.2491 146.944 64.7621 147.332 65.6751C147.453 65.9591 147.627 65.6171 147.767 65.5321C148.59 67.1871 148.453 67.8951 147.016 69.3961Z" fill="#FDF4F1"/>
<path d="M202.398 92.6932C201.619 93.0892 200.457 92.7832 200.138 92.0972C199.628 91.0002 199.824 89.9562 200.61 89.5732C201.503 89.1382 202.655 89.5042 203.078 90.3562C203.523 91.2542 203.226 92.2722 202.398 92.6932Z" fill="#FBEDF0"/>
<path d="M152.573 44.0123C152.262 43.3693 152.585 42.1753 153.128 41.9583C153.968 41.6213 155.396 42.1683 155.805 42.9833C156.119 43.6093 155.536 44.9863 154.821 45.3053C154.197 45.5863 153.002 44.8983 152.573 44.0123Z" fill="#FEFAF7"/>
<path d="M189.454 25.2272C188.537 24.7702 187.629 24.9582 187.041 24.1842C186.642 23.6592 186.438 23.2142 186.684 22.5712C186.94 21.9022 187.379 21.5542 188.091 21.5482C188.17 21.5472 188.264 21.5312 188.325 21.5672C188.852 21.8722 189.654 20.9872 189.925 21.7462C190.179 22.4562 189.934 23.2992 189.52 23.9902C189.304 24.3512 188.973 24.6502 189.454 25.2272Z" fill="#FBECEF"/>
<path d="M208.066 25.8421C209.801 25.4381 209.961 25.2481 209.206 24.4281C209.655 24.2681 210.125 24.2431 210.521 23.9361C210.95 23.6031 211.702 23.8491 211.912 24.2971C212.261 25.0431 212.043 26.0201 211.422 26.1231C210.833 26.2201 210.462 26.3521 210.405 27.0201C210.37 27.4251 210.164 27.8771 209.649 27.7241C209.117 27.5651 208.348 27.6481 208.224 26.8751C208.17 26.5351 207.947 26.2071 208.066 25.8421Z" fill="#FCF3F5"/>
<path d="M183.864 91.0802C183.718 90.7232 183.556 90.4572 183.5 90.1322C183.328 89.1302 183.48 88.7692 184.44 88.6882C185.118 88.6302 185.949 88.6102 186.404 89.2582C186.767 89.7752 186.853 90.4362 186.367 91.0052C186.014 91.4192 186.683 92.1512 185.93 92.4292C185.317 92.6552 185.224 91.7722 184.646 91.8222C184.127 91.8662 183.868 91.5232 183.864 91.0802Z" fill="#FBEDF0"/>
<path d="M53.4878 109.713C53.0538 108.839 53.3498 108.498 53.5728 108.153C52.3298 107.625 52.3298 107.625 52.2758 106.66C52.9208 106.781 53.5588 106.832 54.1268 107.067C54.6358 106.671 53.3008 106.064 54.2918 105.856C55.1518 105.675 54.2868 106.596 54.8148 106.751C55.4618 105.25 56.2018 106.73 57.0398 106.601C56.7628 107.212 56.5698 107.686 56.3378 108.141C55.9088 108.983 55.0058 108.765 54.3258 108.887C53.9118 108.962 53.5488 108.842 53.4878 109.713Z" fill="#FCEFF2"/>
<path d="M188.715 59.6971C188.401 59.4771 188.366 59.1851 188.533 59.0281C188.997 58.5891 188.963 58.1771 188.666 57.6671C188.53 57.4351 189.65 55.6101 189.888 55.6561C190.188 55.7141 190.48 55.8811 190.742 56.0541C192.062 56.9241 192.19 58.1491 191.075 59.1191C190.862 59.3041 190.603 59.5191 190.333 59.3211C189.632 58.8071 189.113 59.0331 188.715 59.6971Z" fill="#FCEFF2"/>
<path d="M76.5267 75.2501C76.8807 74.7351 76.9077 74.1661 77.1187 73.6631C77.4527 72.8681 78.0097 72.7391 78.8337 72.7631C79.5827 72.7841 80.0687 73.1581 80.3187 73.6531C80.6617 74.3311 80.3097 75.1011 79.8547 75.6251C79.5227 76.0071 78.8157 75.8151 78.4197 75.6401C77.8177 75.3721 77.2287 75.3231 76.5267 75.2501Z" fill="#FEF9F5"/>
<path d="M148.468 96.6752C148.819 96.2252 148.929 95.7402 148.48 95.0222C149.233 95.3732 149.768 95.6022 150.283 95.8692C150.791 96.1322 150.919 96.5712 150.652 97.0632C150.388 97.5522 149.971 97.9192 149.391 97.6252C148.905 97.3792 148.53 97.1302 148.086 97.7082C147.97 97.8592 147.556 97.8332 147.289 97.8032C147.066 97.7782 146.683 97.6472 146.67 97.5302C146.555 96.5212 144.984 96.8472 145.019 95.5822C146.275 95.7072 147.488 95.7512 148.468 96.6752Z" fill="#FCEEF1"/>
<path d="M155.932 178.756C155.586 178.021 155.978 176.99 156.761 176.697C157.32 176.488 158.03 176.585 158.256 175.795C158.311 175.604 158.552 175.711 158.609 175.848C158.763 176.218 159.236 176.561 158.783 177.016C158.517 177.283 158.704 177.518 158.788 177.779C159.05 178.594 158.871 179.152 158.302 179.367C157.149 179.803 156.325 179.59 155.932 178.756Z" fill="#FDF5F6"/>
<path d="M93.1627 178.977C93.7237 178.663 94.9847 178.845 95.0767 179.341C95.1887 179.942 95.6767 180.429 95.6107 181.006C95.5787 181.287 95.1097 181.546 94.8337 181.771C94.1967 182.293 92.6287 181.922 92.2777 181.264C91.8927 180.541 92.3137 179.453 93.1627 178.977Z" fill="#FCF2F4"/>
<path d="M99.2578 49.5291C99.1128 50.0621 98.4528 50.7181 99.6748 50.8771C100.158 50.9401 100.318 51.4861 100.375 51.8961C100.426 52.2691 100.061 52.5371 99.7098 52.5871C99.2798 52.6481 98.7688 52.7051 98.5588 52.1621C98.4538 51.8901 98.4078 51.7651 98.0338 51.7061C96.9118 51.5301 96.7288 51.2551 96.5748 50.0661C96.6438 49.9251 96.7558 49.7891 96.7748 49.6421C96.8208 49.2771 96.8918 48.7491 97.2808 48.8571C97.7608 48.9901 98.5488 48.2811 98.7478 49.3211C98.7878 49.5271 99.0488 49.5501 99.2578 49.5291Z" fill="#FCEDEE"/>
<path d="M154.189 137.374C153.437 137.414 152.695 137.545 151.932 137.355C151.215 137.177 150.854 136.796 150.86 136.055C150.867 135.115 151.234 134.452 151.948 134.362C152.587 134.282 153.228 134.268 153.578 135.083C153.896 135.827 154.235 136.538 154.189 137.374Z" fill="#FCEEF1"/>
<path d="M110.876 96.3272C111.327 96.0452 112.142 96.7092 112.338 95.7362C112.382 95.5182 112.683 95.6972 112.823 95.8212C113.392 96.3232 113.665 96.9562 113.63 97.7182C113.613 98.0842 113.387 98.4192 113.081 98.4032C112.052 98.3482 111.158 98.8542 110.184 98.9902C109.675 99.0612 109.735 98.5422 109.517 98.3082C109.226 97.9962 109.359 97.6992 109.526 97.4422C109.701 97.1732 109.994 97.3452 110.156 97.4662C110.499 97.7232 110.688 97.5632 110.962 97.3462C111.47 96.9442 110.697 96.6842 110.876 96.3272Z" fill="#FBECF0"/>
<path d="M15.9418 79.9012C17.7088 79.0182 19.2688 78.2372 20.8308 77.4592C21.0828 77.3332 21.3948 77.1932 21.5718 77.4842C21.7138 77.7172 21.4848 77.9212 21.2638 78.0412C21.0458 78.1602 20.8698 78.3132 20.8018 78.5582C20.4038 80.0092 19.0928 80.3322 17.9368 80.7232C17.3108 80.9352 16.7128 80.3812 15.9418 79.9012Z" fill="#FBE7EB"/>
<path d="M150.669 79.0972C151.228 78.7812 152.344 79.2012 152.72 79.8692C153.039 80.4352 152.596 81.7092 151.926 82.1532C151.483 82.4472 150.394 81.9072 149.965 81.1812C149.467 80.3382 149.702 79.6442 150.669 79.0972Z" fill="#FCF1F4"/>
<path d="M39.1397 133.773C38.4737 133.628 37.8577 133.21 37.1217 133.431C36.9877 133.471 36.7997 133.419 36.6637 133.354C36.1007 133.085 34.6277 132.948 33.9917 133.127C34.0277 132.979 34.1287 132.807 34.0857 132.687C34.0017 132.452 33.3917 132.882 33.5627 132.414C33.6867 132.075 33.9887 131.676 34.5137 131.631C35.5737 131.541 35.5717 131.521 35.8537 130.563C36.1267 131.243 36.4747 131.624 37.1937 131.703C38.3567 131.832 38.9017 132.694 39.1397 133.773Z" fill="#FBEEF1"/>
<path d="M112.98 74.5613C113.39 74.1603 113.619 73.8853 113.897 73.6733C114.769 73.0073 115.842 73.1373 116.549 73.9673C117.032 74.5343 116.968 74.9213 116.268 75.6763C115.608 76.3883 115.273 76.4073 114.588 75.9443C113.985 75.5363 113.928 74.6423 112.98 74.5613Z" fill="#FEF9F6"/>
<path d="M49.6747 162.781C48.7577 161.777 48.3997 160.615 48.3287 159.287C49.0497 159.134 49.5697 159.844 50.2607 159.762C50.2857 159.759 50.3187 159.812 50.3467 159.84C50.6617 160.154 51.2537 159.393 51.4447 160.104C51.5597 160.532 51.1747 160.93 51.3097 161.389C51.4167 161.751 51.1067 161.859 50.8627 161.987C50.4157 162.221 49.9287 162.388 49.6747 162.781Z" fill="#FCF1F4"/>
<path d="M143.584 108.03C143.966 107.682 144.04 107.165 144.424 106.806C144.927 106.336 145.392 105.966 146.059 106.509C146.148 106.581 146.334 106.581 146.37 106.662C146.575 107.118 147.614 105.768 147.293 107.015C146.825 108.833 146.094 109.324 145.066 108.85C144.577 108.623 144.119 108.329 143.584 108.03Z" fill="#FCF2F4"/>
<path d="M209.652 43.3382C209.209 42.4752 209.313 41.3102 209.9 41.0842C210.288 40.9352 210.751 41.0892 211.155 40.9082C211.284 41.3332 211.769 41.4552 211.947 41.8382C212.389 42.7862 212.068 43.6222 211.091 44.0702C210.596 44.2972 209.985 43.9862 209.652 43.3382Z" fill="#FCF1F4"/>
<path d="M125.453 147.986C124.701 147.698 123.965 148.414 123.135 147.797C122.549 147.361 122.524 146.815 122.596 146.356C122.693 145.737 123.307 145.36 123.829 145.014C123.962 144.925 124.104 145.113 124.24 145.187C125.097 145.656 125.612 146.288 125.366 147.336C125.343 147.434 125.446 147.557 125.471 147.673C125.486 147.746 125.464 147.826 125.453 147.986Z" fill="#FCF3F5"/>
<path d="M162.003 116.161C162.025 116.721 162.311 117.291 162.138 117.877C161.877 118.765 160.158 119.165 159.5 118.51C159.129 118.141 159.255 116.798 159.764 116.575C160.328 116.328 160.944 116.197 161.501 115.904C161.659 115.822 161.886 115.935 162.003 116.161Z" fill="#FBEDF0"/>
<path d="M93.1298 85.6243C93.8738 85.2243 95.2317 85.7313 95.4887 86.3833C95.6167 86.7073 95.5457 87.0903 95.8267 87.3753C95.9537 87.5043 95.8338 87.7843 95.7248 87.7503C94.9358 87.5043 94.3307 88.4103 93.5167 88.0553C93.0397 87.8473 92.5698 87.5443 92.5998 87.0763C92.6318 86.5403 92.9718 86.0233 93.1298 85.6243Z" fill="#FBEDF0"/>
<path d="M151.332 70.7272C151.922 70.4372 153.161 70.6172 153.401 71.0272C153.631 71.4212 153.041 72.8142 152.534 73.0722C151.981 73.3542 150.662 73.1802 150.5 72.8042C150.296 72.3322 150.842 70.9672 151.332 70.7272Z" fill="#FEFAF6"/>
<path d="M156.672 90.3272C156.552 90.8022 157.457 90.5892 157.227 91.2482C156.946 92.0522 156.614 92.7542 155.827 93.1482C155.551 93.2862 155.267 93.2212 155.077 92.9802C154.762 92.5812 154.422 92.6972 154.175 92.9822C153.73 93.4972 153.559 93.2022 153.337 92.7962C153.128 92.4162 153.052 92.0212 153.296 91.6742C153.593 91.2522 153.788 90.7922 153.986 90.3262C154.339 90.3472 154.516 90.6032 154.722 90.8452C155.48 91.7362 155.86 91.6832 156.368 90.6272C156.438 90.4832 156.485 90.3412 156.672 90.3272Z" fill="#FCF1F3"/>
<path d="M209.669 114.978C208.845 115.615 208.021 116.252 207.133 116.939C207.061 115.885 206.672 114.678 206.226 114.001C208.795 113.298 208.473 113.384 209.669 114.978Z" fill="#FBEDF1"/>
<path d="M149.805 42.4651C149.957 42.6951 149.193 44.3171 148.772 44.4611C148.298 44.6231 147.755 44.6271 147.359 44.2291C147.07 43.9391 147.017 42.0801 147.242 41.9241C147.83 41.5191 149.4 41.8501 149.805 42.4651Z" fill="#FCF1F3"/>
<path d="M94.9628 61.3341C94.8888 61.4131 94.8158 61.4931 94.7418 61.5721C95.2418 61.6001 95.7978 62.1421 96.1458 61.1991C96.3738 60.5801 97.1598 60.8391 97.5958 60.9621C98.1268 61.1121 98.6338 61.0701 99.1488 61.1221C98.3888 61.3561 98.1188 62.0371 97.7308 62.6261C97.5568 62.8901 97.5788 63.4181 97.0758 63.3371C96.6588 63.2691 96.4438 62.9011 96.2758 62.5491C96.1958 62.3801 96.2318 62.1551 95.9198 62.0211C95.6958 62.3471 95.4568 62.6861 94.9348 62.7201C94.3528 62.7591 94.3758 62.8411 94.4968 62.1641C94.5278 61.9911 94.3408 61.7821 94.3628 61.6031C94.4068 61.2451 94.6478 61.1721 94.9628 61.3341Z" fill="#FDF5F4"/>
<path d="M203.225 42.8472C202.658 43.1122 201.567 42.7732 201.369 42.2702C201.286 42.0602 201.667 40.3522 201.817 40.2622C202.274 39.9852 203.695 40.5572 203.957 41.1232C204.224 41.7002 203.864 42.5492 203.225 42.8472Z" fill="#FCF2F4"/>
<path d="M188.761 106.343C187.685 106.678 188.582 107.639 188.067 108.331C187.781 107.948 187.223 107.898 187.303 107.19C187.323 107.016 186.664 106.864 186.28 107.022C185.547 107.323 185.53 106.664 185.339 106.301C185.084 105.816 185.535 105.706 185.835 105.535C186.235 105.307 186.779 105.415 187.092 104.952C187.212 104.774 187.446 104.847 187.623 104.982C188.004 105.271 187.651 105.261 187.499 105.422C187.284 105.649 187.598 105.71 187.75 105.786C188.061 105.943 188.458 105.927 188.761 106.343Z" fill="#FCEFF2"/>
<path d="M186.911 1.59615C187.217 2.08815 187.268 2.91115 186.915 3.13015C186.002 3.69715 184.877 3.42515 184.581 2.81415C184.204 2.03615 184.548 1.24615 185.449 0.820151C186.117 0.505151 186.458 0.679151 186.911 1.59615Z" fill="#FAE6EB"/>
<path d="M97.4688 112.916C96.7208 113.183 95.8588 113.046 95.7258 112.639C95.5318 112.049 95.9988 110.703 96.4418 110.573C97.0458 110.396 98.4808 110.77 98.6368 111.144C98.7788 111.488 97.9518 112.744 97.4688 112.916Z" fill="#FBEDF0"/>
<path d="M132.532 53.8283C132.147 54.0883 131.872 54.6093 131.249 54.1333C130.936 53.8933 130.767 54.3153 130.566 54.5573C130.27 54.9143 129.92 55.0483 129.846 54.3653C129.835 54.0283 129.925 53.6873 130.287 53.6563C131.279 53.5683 130.761 53.0653 130.6 52.6493C130.779 52.4903 130.844 52.1493 131.214 52.3073C131.764 52.5433 131.744 52.1313 131.778 51.7893C132.265 51.2263 132.889 51.3963 133.495 51.4703C133.88 52.0403 133.901 52.5443 133.115 52.7043C132.391 52.8533 132.346 53.2583 132.532 53.8283Z" fill="#FBE7EB"/>
<path d="M122.848 64.5302C123.091 65.0892 122.615 66.3172 122.055 66.5732C121.623 66.7712 120.668 66.3702 120.439 65.8952C120.194 65.3872 120.459 64.1602 120.841 64.0362C121.543 63.8092 122.653 64.0822 122.848 64.5302Z" fill="#FBEDEF"/>
<path d="M120.254 103.888C119.887 103.123 120.002 102.534 120.574 102.263C121.314 101.912 122.128 102.251 122.532 103.078C122.775 103.576 122.489 104.39 121.965 104.69C121.37 105.032 120.638 104.688 120.254 103.888Z" fill="#FCF2F4"/>
<path d="M97.8188 44.9932C97.0778 45.3582 96.3768 45.2612 96.1528 44.7642C95.8118 44.0092 96.0398 42.8752 96.5848 42.6152C96.9848 42.4242 98.3878 42.7712 98.4198 43.1142C98.4668 43.6082 98.2308 44.0932 98.3398 44.6202C98.3948 44.8812 97.9168 44.7472 97.8188 44.9932Z" fill="#FEFBF8"/>
<path d="M113.236 71.4112C112.923 70.8292 113.19 69.9562 113.769 69.6662C114.376 69.3622 115.119 69.4942 115.353 69.9472C115.693 70.6042 115.418 71.7782 114.833 72.1722C114.488 72.4052 113.522 71.9442 113.236 71.4112Z" fill="#FCF2F4"/>
<path d="M163.487 9.92626C163.231 10.0973 162.89 10.0463 162.545 9.89426C162.3 9.78626 162.091 9.56626 161.773 9.70326C161.564 9.79326 161.283 9.92326 161.221 9.54826C161.178 9.28926 161.101 8.94626 161.45 8.82726C161.754 8.72326 162.04 8.68226 162.132 8.28626C162.245 7.80226 162.627 7.44326 163.087 7.64626C163.545 7.84826 164.228 7.91026 164.299 8.62926C164.356 9.21426 164.067 9.60926 163.487 9.92626Z" fill="#FDF4F6"/>
<path d="M68.2698 57.8502C68.5868 58.4542 68.3918 59.4932 67.9118 59.7622C67.4428 60.0242 66.3648 59.6792 66.1198 59.1872C65.8008 58.5472 66.0478 57.8262 66.7048 57.4812C67.5038 57.0632 67.9068 57.1582 68.2698 57.8502Z" fill="#FBEEF1"/>
<path d="M120.835 51.7712C121.272 52.3502 121.337 52.9482 120.771 53.4512C120.476 53.7132 118.798 53.0532 118.658 52.6832C118.56 52.4232 119.215 50.8792 119.472 50.7672C119.824 50.6112 120.582 51.1702 120.835 51.7712Z" fill="#FEFAF7"/>
<path d="M218.562 78.8511C218.244 78.1651 218.092 77.4351 217.327 77.1661C217.043 77.0661 217.078 76.7901 217.206 76.5631C217.537 75.9751 219.131 75.5501 219.565 76.0361C219.904 76.4161 219.92 77.1271 219.606 77.5301C219.295 77.9271 219.123 78.4381 218.562 78.8511Z" fill="#FCF2F4"/>
<path d="M210.87 99.9971C211.674 100.369 211.928 101.253 212.545 101.815C212.902 102.14 213.119 102.098 213.447 101.931C213.483 102.223 213.11 102.272 213.088 102.501C213.012 103.315 212.579 103.196 212.089 102.894C211.435 102.491 211.44 102.482 210.672 102.92C211.217 102.199 210.974 101.782 210.479 101.342C209.943 100.865 210.015 100.056 210.546 99.3511C210.625 99.5331 210.66 99.7071 210.544 99.8971C210.473 100.013 210.392 100.192 210.625 100.219C210.697 100.229 210.788 100.076 210.87 99.9971Z" fill="#FCEEF1"/>
<path d="M156.672 90.3272C156.414 90.6922 156.989 91.3072 156.165 91.5702C155.405 91.8122 154.926 91.8842 154.584 91.1652C154.423 90.8272 154.108 90.6552 153.986 90.3262C154.022 90.2192 154.058 90.1112 154.093 90.0042C154.146 89.7012 154.471 89.5562 154.527 89.2552C154.669 89.1832 154.811 89.1122 154.953 89.0402C155.524 89.0242 155.962 89.2982 156.348 89.6832C156.457 89.8982 156.564 90.1132 156.672 90.3272Z" fill="#FAE7EB"/>
<path d="M85.0167 98.1363C84.8007 98.4043 84.5107 98.5363 84.1947 98.5663C83.8877 98.5953 83.8437 98.8153 83.7317 99.0243C83.5997 99.2713 83.8367 99.7713 83.6597 99.7233C83.2317 99.6083 82.8947 99.9463 82.5057 99.8173C82.1027 99.6833 81.5677 98.6313 81.7037 98.2223C81.9117 97.5963 82.6837 97.2453 83.2867 97.6123C83.8337 97.9443 84.5367 97.6433 85.0167 98.1363Z" fill="#FBEDF0"/>
<path d="M121.999 48.3462C122.268 48.8642 121.83 49.9542 121.217 50.2912C120.768 50.5382 119.812 50.0802 119.566 49.5002C119.473 49.2822 120.17 47.9282 120.436 47.8082C120.894 47.6022 121.769 47.9032 121.999 48.3462Z" fill="#FEFAF6"/>
<path d="M157.402 16.6303C157.06 15.9773 157.261 15.4393 157.979 15.0863C158.663 14.7503 159.122 14.9473 159.583 15.7773C159.876 16.3043 159.535 17.2203 158.948 17.4853C158.536 17.6703 157.707 17.2113 157.402 16.6303Z" fill="#FBECF0"/>
<path d="M153.099 97.1393C153.494 97.9623 153.337 98.4993 152.596 98.8573C152 99.1453 151.569 98.9293 151.192 98.1523C150.9 97.5503 151.17 96.6923 151.726 96.4553C152.368 96.1823 152.726 96.3603 153.099 97.1393Z" fill="#FBEBEF"/>
<path d="M145.622 59.2643C145.083 59.5263 145.076 60.3443 144.505 60.4573C144.156 60.5263 143.63 60.4223 143.27 60.1213C142.788 59.7193 142.902 58.9043 143.516 58.3373C144.128 57.7733 144.517 57.9363 145.622 59.2643Z" fill="#FEFAF7"/>
<path d="M166.218 44.2432C166.353 44.5602 166.535 44.6662 166.757 44.7762C167.563 45.1782 167.69 45.5962 167.299 46.3762C167.089 46.7962 166.093 47.0662 165.643 46.8072C165.195 46.5502 165.433 45.9382 165.028 45.6022C164.855 45.4582 165.256 45.2572 165.396 45.0872C165.618 44.8192 165.882 44.5842 166.218 44.2432Z" fill="#FCF3F5"/>
<path d="M53.9197 113.847C53.3597 114.225 53.2407 113.567 52.9307 113.366C52.5787 113.137 52.6707 112.862 52.9757 112.603C53.5407 112.123 54.0167 111.616 53.4607 110.801C53.3417 110.626 53.4217 110.321 53.7557 110.291C54.0667 110.263 54.3107 110.302 54.2467 110.727C54.1487 111.376 54.2427 111.95 54.8747 112.337C55.1347 112.496 55.0047 112.758 54.8807 112.965C54.6517 113.345 54.3227 113.624 53.9197 113.847Z" fill="#FCEEF1"/>
<path d="M137.989 115.76C137.514 115.542 136.978 115.235 136.916 114.758C136.855 114.292 137.063 113.794 136.895 113.276C136.825 113.059 137.195 112.962 137.392 112.841C137.582 112.723 137.914 112.655 137.806 112.366C137.664 111.988 137.377 112.223 137.121 112.283C137.003 112.311 136.846 112.173 136.707 112.11C137.125 111.988 136.916 111.598 137.044 111.269C137.599 111.9 138.409 111.897 139.197 112.277C138.706 112.609 138.359 112.976 137.777 112.994C137.509 113.002 137.198 113.102 137.19 113.463C137.184 113.737 137.449 113.835 137.62 113.997C137.905 114.267 138.519 113.972 138.598 114.509C138.673 115.023 138.274 115.38 137.989 115.76Z" fill="#FCF3F5"/>
<path d="M122.479 135.079C122.801 134.888 124.046 135.233 124.213 135.56C124.413 135.949 124.157 136.85 123.783 137.071C123.382 137.309 122.328 136.994 122.109 136.572C121.858 136.085 122.043 135.338 122.479 135.079Z" fill="#FCF0F3"/>
<path d="M161.56 73.8181C161.827 74.3731 161.529 75.3161 161.021 75.4471C160.579 75.5611 159.996 75.9061 159.634 75.2591C159.264 74.5971 159.59 73.6151 160.297 73.3821C160.834 73.2061 161.283 73.4691 161.56 73.8181Z" fill="#FEFAF6"/>
<path d="M157.416 76.9361C157.418 76.6601 156.842 76.3962 157.102 76.3022C157.644 76.1062 157.71 75.4961 158.232 75.3131C158.823 75.1051 158.932 75.5072 159.09 75.8562C159.398 76.5342 159.168 77.5532 158.682 77.7752C158.165 78.0112 157.79 77.7641 157.416 76.9361Z" fill="#FEFAF7"/>
<path d="M56.2047 133.56C55.9857 133.913 55.6597 134.124 55.2857 134.289C54.8517 134.481 54.5347 134.409 54.2757 133.988C53.9107 133.396 53.8217 133.347 53.1757 133.079C54.0227 133.105 54.3397 132.022 55.2407 132.164C55.7447 132.503 56.2157 132.866 56.2047 133.56Z" fill="#FAE5EA"/>
<path d="M167.817 6.78906C168.037 7.26006 169.526 6.94106 168.587 8.08906C168.92 8.32906 169.006 7.96106 169.202 7.89806C169.745 7.72406 170.017 8.10506 170.211 8.48906C170.476 9.01406 170.12 9.27906 169.696 9.50306C169.281 9.72206 168.882 9.77406 168.752 9.24506C168.54 8.38206 167.314 7.97306 167.817 6.78906Z" fill="#FCEFF2"/>
<path d="M81.1488 170.006C81.7128 169.793 82.2398 170.211 82.3958 170.872C82.5548 171.544 82.2248 172.309 81.7038 172.475C81.3468 172.589 80.3268 171.961 80.3898 171.496C80.4648 170.948 80.9068 170.451 81.1488 170.006Z" fill="#FCEDF0"/>
<path d="M67.7707 105.243C67.0587 105.591 66.3887 105.522 66.2047 105.083C66.0027 104.601 66.4137 103.525 66.8657 103.35C67.1517 103.239 68.1577 103.79 68.3307 104.162C68.6087 104.758 68.2397 105.028 67.7707 105.243Z" fill="#FCEEF1"/>
<path d="M153.543 127.378C153.797 128.053 153.854 128.696 154.094 129.314C154.284 129.805 153.828 130.21 153.337 130.315C152.788 130.431 152.217 130.153 152.067 129.685C151.972 129.388 152.072 128.71 152.578 128.554C153.174 128.369 153.522 128.084 153.543 127.378Z" fill="#FBEEF1"/>
<path d="M154.113 86.8291C153.587 87.4181 153.124 87.2391 152.743 86.7221C152.456 86.3331 152.738 85.3341 153.143 85.1341C153.546 84.9351 154.404 85.2781 154.639 85.7221C154.972 86.3501 154.935 86.7901 154.113 86.8291Z" fill="#FCF1F3"/>
<path d="M193.588 6.49816C193.339 6.86316 194.172 7.36116 193.492 7.78316C192.945 8.12316 191.99 7.80516 191.655 7.19416C191.421 6.76916 191.659 6.15516 192.152 5.90916C192.613 5.68016 193.274 5.91816 193.588 6.49816Z" fill="#FBE9ED"/>
<path d="M124.083 94.9822C124.33 94.9532 124.701 95.0512 124.916 95.5192C125.16 96.0492 124.911 96.7852 124.397 97.0582C123.999 97.2692 123.132 96.9312 122.867 96.4622C122.637 96.0572 123.076 95.4512 124.083 94.9822Z" fill="#FBEBEF"/>
<path d="M89.1658 65.3052C88.8098 64.9682 88.1708 64.8162 88.4048 64.0962C88.4508 63.9542 88.3908 63.7092 88.2348 63.7122C87.5368 63.7262 87.6078 63.0822 87.3428 62.7282C87.8628 62.6332 88.2988 63.0122 88.8228 62.9842C89.0398 62.9722 89.2818 63.2102 89.0048 63.4822C88.5958 63.8832 88.6628 64.2092 89.0708 64.5722C89.6908 65.1242 89.6728 64.1472 90.0508 64.1722C90.3538 64.3102 90.4838 64.5922 90.5028 64.8472C90.5328 65.2602 90.9208 65.8292 90.4918 66.0602C90.0278 66.3102 89.9468 65.6442 89.7068 65.3692C89.5428 65.1802 89.3568 65.2362 89.1658 65.3052Z" fill="#FBE9ED"/>
<path d="M35.8337 179.055C36.3907 179.676 37.2037 179.236 37.5207 179.933C37.6277 180.168 37.6317 180.384 37.5237 180.619C37.3137 181.079 36.5017 181.557 36.1147 181.396C35.6747 181.212 35.1527 180.996 35.4107 180.376C35.5707 179.993 35.9047 179.683 35.8337 179.055Z" fill="#FCF2F4"/>
<path d="M163.593 95.9323C164.271 95.9133 164.771 96.5333 165.179 95.8413C165.267 95.6913 165.453 95.7393 165.6 95.8353C165.988 96.0873 166.31 96.3913 166.175 96.9023C166.087 97.2333 166.09 97.7473 165.698 97.7853C165.274 97.8253 164.695 97.8973 164.469 97.3213C164.283 96.8473 163.891 96.5013 163.593 95.9323Z" fill="#FCEEF1"/>
<path d="M144.456 72.2823C144.976 71.8293 145.32 72.3233 145.634 72.7113C145.845 72.9713 145.42 74.2193 145.111 74.2963C144.542 74.4373 144.094 74.2003 143.816 73.6993C143.537 73.2003 143.773 72.6513 144.456 72.2823Z" fill="#FCF2F4"/>
<path d="M68.2567 57.0531C67.9007 56.4991 67.4847 56.5201 67.1147 56.4211C66.6697 56.3021 66.4367 56.0391 66.5787 55.5491C66.7617 54.9201 67.2017 54.6631 67.8257 54.7191C68.2927 54.7621 68.5247 55.0291 68.4537 55.5201C68.3927 55.9431 68.3437 56.3671 68.2567 57.0531Z" fill="#FCEEF1"/>
<path d="M196.409 27.5181C196.54 27.0901 196.072 26.8831 195.978 26.5191C195.85 26.0251 196.185 25.5691 196.541 25.7701C197.103 26.0881 197.612 26.5571 197.86 27.1591C198.041 27.5981 197.799 28.0151 197.283 28.1431C196.79 28.2661 196.566 27.9561 196.409 27.5181Z" fill="#FCF1F3"/>
<path d="M191.191 104.43C190.507 104.571 189.558 104.272 189.527 105.439C189.524 105.567 189.266 105.57 189.115 105.498C188.831 105.363 188.802 105.079 188.975 104.915C189.378 104.533 189.589 104.156 189.44 103.57C189.362 103.265 189.63 103.064 189.968 103.115C190.359 103.174 190.889 102.871 191.085 103.462C191.179 103.749 191.156 104.075 191.191 104.43Z" fill="#FCEFF2"/>
<path d="M92.8198 57.5791C93.3548 57.9971 93.6718 58.7631 94.5708 58.5641C94.5298 58.9781 94.0958 59.3511 94.6418 59.6181C94.2848 59.7951 93.9298 59.9751 93.5708 60.1471C93.2508 60.3011 92.9508 60.2911 92.7178 59.9901C92.5848 59.8181 92.5748 59.6081 92.6838 59.4291C92.9338 59.0191 93.2177 59.2621 93.4967 59.4061C93.6017 59.4601 93.7177 59.4691 93.8267 59.3101C93.7637 58.9311 93.3858 58.9591 93.1258 58.8461C92.2778 58.4791 92.2748 58.4851 92.8198 57.5791Z" fill="#FCF0F3"/>
<path d="M172.315 37.8872C172.123 37.4872 171.858 37.1202 172.176 36.8322C172.495 36.5422 172.984 36.4992 173.384 36.6482C173.801 36.8032 173.943 37.2132 173.783 37.6292C173.609 38.0802 173.674 38.8252 173.061 38.8372C172.697 38.8432 172.549 38.1582 172.315 37.8872Z" fill="#FCF4F5"/>
<path d="M119.503 168.812C119.875 168.969 119.959 169.258 119.925 169.588C119.877 170.052 119.923 170.579 119.711 170.956C119.494 171.343 118.955 171.366 118.551 171.13C118.273 170.967 118.314 169.666 118.599 169.624C119.139 169.545 119.137 168.984 119.503 168.812Z" fill="#FCF3F5"/>
<path d="M205.995 53.1912C206.046 53.6412 206.107 54.2372 205.689 54.4262C205.315 54.5942 204.719 54.9682 204.302 54.3702C204.04 53.9932 204.393 53.1362 204.917 52.8782C205.338 52.6692 205.665 52.8862 205.995 53.1912Z" fill="#FCEEF1"/>
<path d="M116.639 62.3191C117.134 62.5501 117.732 61.9631 118.238 62.4781C118.363 62.6051 117.44 63.8101 117.122 63.9351C116.737 64.0861 116.37 64.0251 116.27 63.6011C116.166 63.1621 116.063 62.6551 116.639 62.3191Z" fill="#FCF0F2"/>
<path d="M100.912 43.4712C100.662 43.8942 100.084 43.8952 99.8037 44.3142C99.6097 44.6052 99.2987 44.4562 99.0477 44.3452C98.7217 44.2012 98.8457 43.9012 98.9657 43.7472C99.2197 43.4222 98.6877 42.7502 99.1967 42.7622C99.7767 42.7752 100.685 42.4172 100.912 43.4712Z" fill="#FEFBF8"/>
<path d="M160.49 52.8421C159.949 52.3691 160.198 52.1311 160.59 51.8751C161.256 51.4411 161.631 51.9151 161.973 52.3301C162.32 52.7501 161.899 53.1591 161.658 53.3121C161.094 53.6681 160.593 53.5001 160.49 52.8421Z" fill="#FCF1F4"/>
<path d="M116.574 65.9353C116.823 66.3873 116.772 66.7313 116.304 67.0433C115.576 67.5273 115.418 66.7883 115.104 66.4923C114.731 66.1403 114.991 65.7393 115.277 65.4613C115.553 65.1903 116.331 65.5013 116.574 65.9353Z" fill="#FCF2F4"/>
<path d="M165.256 34.2422C164.459 34.3392 163.655 34.6912 163.326 33.7572C163.147 33.2482 163.579 32.8062 164.078 32.7512C165.078 32.6422 164.901 33.6012 165.256 34.2422Z" fill="#FCF0F3"/>
<path d="M151.569 33.6431C151.647 34.0811 151.784 34.5711 151.251 34.7691C150.812 34.9321 150.395 34.7451 150.152 34.3131C149.9 33.8641 150.133 33.2011 150.592 33.0131C151.231 32.7501 151.196 33.5031 151.569 33.6431Z" fill="#FCF1F4"/>
<path d="M164.892 86.3793C165.116 86.8113 165.348 87.2693 164.832 87.5463C164.307 87.8283 163.901 87.4003 163.663 87.0233C163.448 86.6823 163.333 86.1073 163.782 85.8813C164.235 85.6543 164.71 85.8593 164.892 86.3793Z" fill="#FCEFF1"/>
<path d="M178.122 102.412C177.657 102.654 177.27 102.595 177.051 102.084C176.878 101.682 176.937 101.214 177.311 101.04C177.727 100.846 178.258 100.828 178.544 101.371C178.807 101.872 178.586 102.195 178.122 102.412Z" fill="#FCEEF1"/>
<path d="M146.116 59.2532C146.527 59.7872 147.681 59.6772 147.361 60.8092C147.135 60.9892 146.917 60.8342 146.693 60.7952C145.286 60.5482 145.286 60.5502 146.116 59.2532Z" fill="#FEFAF7"/>
<path d="M26.0907 192.48C26.3287 192.932 26.2977 193.322 25.7927 193.551C25.4027 193.728 24.9617 193.712 24.7947 193.289C24.6347 192.884 24.4557 192.362 25.0547 192.066C25.5537 191.819 25.8727 192.021 26.0907 192.48Z" fill="#FCF3F5"/>
<path d="M236.791 71.7603C237.265 71.5603 237.89 71.8173 238.058 72.2913C238.195 72.6803 238.111 73.0203 237.688 73.1323C237.144 73.2773 236.651 73.1063 236.388 72.5993C236.189 72.2173 236.43 71.9323 236.791 71.7603Z" fill="#FCF2F4"/>
<path d="M172.044 20.6742C171.783 20.2512 171.82 19.9642 172.251 19.7572C172.729 19.5272 173.125 19.5672 173.327 20.0902C173.466 20.4512 173.621 20.9322 173.144 21.1352C172.665 21.3402 172.183 21.2502 172.044 20.6742Z" fill="#FCEFF2"/>
<path d="M152.042 130.544C152.177 130.962 152.304 131.387 151.915 131.553C151.499 131.731 150.906 131.843 150.647 131.321C150.358 130.74 150.856 130.359 151.267 130.074C151.933 129.611 151.565 130.751 152.042 130.544Z" fill="#FCEFF2"/>
<path d="M181.926 13.3731C181.904 12.8811 181.827 12.3231 182.373 12.1291C182.629 12.0381 183.075 11.7861 183.341 12.2281C183.512 12.5111 183.198 13.4881 182.877 13.6201C182.514 13.7681 182.183 13.6841 181.926 13.3731Z" fill="#FCEEF2"/>
<path d="M80.1237 144.739C80.4227 144.987 80.7217 145.227 81.0117 145.479C81.3527 145.775 81.1187 146.066 80.9567 146.318C80.7797 146.593 80.4967 146.593 80.2177 146.455C79.5217 146.106 79.4907 145.676 80.1237 144.739Z" fill="#FCF2F5"/>
<path d="M35.7138 89.3362C35.8438 89.6422 34.9657 89.8222 35.6067 90.1922C35.2497 90.5172 35.2037 90.9742 35.1867 91.5372C34.5607 91.1462 34.5118 90.4512 33.9248 90.1762C33.6328 90.0392 33.8968 89.7192 34.2288 89.6582C34.7278 89.5662 35.2548 89.6062 35.7138 89.3362Z" fill="#FDF4F6"/>
<path d="M170.302 3.80214C170.199 3.83614 169.948 4.12814 169.607 3.92414C169.444 3.82714 169.232 3.75414 169.211 3.51914C169.194 3.33214 169.341 3.24814 169.478 3.17414C169.687 3.06114 169.891 2.91614 170.117 2.85914C170.485 2.76614 170.918 2.14314 171.2 2.68014C171.433 3.12514 170.98 3.54714 170.302 3.80214Z" fill="#FBE9ED"/>
<path d="M144.111 112.969C143.523 113.2 143.734 114.029 143.145 114.259C142.264 113.617 142.264 113.617 142.955 112.244C143.341 112.486 143.726 112.727 144.111 112.969Z" fill="#FCF1F3"/>
<path d="M184.268 10.2651C184.725 9.53413 185.482 9.99213 186.086 9.85413C186.271 9.81213 186.553 10.2871 186.214 10.5981C185.543 11.2121 184.904 11.0961 184.268 10.2651Z" fill="#FCF1F3"/>
<path d="M162.137 14.0842C162.59 13.8512 162.955 13.8612 163.199 14.3092C163.432 14.7362 163.335 15.0832 162.89 15.3002C162.437 15.5212 162.137 15.3372 161.912 14.9222C161.7 14.5312 161.734 14.2392 162.137 14.0842Z" fill="#FBEDF0"/>
<path d="M182.843 33.8362C182.726 34.2162 182.529 34.5242 182.181 34.6272C181.797 34.7402 181.279 34.9992 181.014 34.6332C180.766 34.2922 181.334 34.0942 181.488 33.8052C181.792 33.2332 182.174 33.3172 182.605 33.6112C182.694 33.6732 182.765 33.7622 182.843 33.8362Z" fill="#FCF3F5"/>
<path d="M200.991 8.07829C201.205 8.04729 201.475 8.01629 201.742 7.96729C201.952 7.92829 202.133 7.94129 202.225 8.16529C202.321 8.39829 202.2 8.55229 201.996 8.61529C201.77 8.68529 201.586 8.72529 201.498 9.01129C201.412 9.28929 201.129 9.43429 200.837 9.32729C200.554 9.22329 200.466 8.92629 200.43 8.65929C200.38 8.30129 200.715 8.24429 200.991 8.07829Z" fill="#FCEFF2"/>
<path d="M169.241 13.4702C169.602 13.6422 169.855 13.7452 170.091 13.8792C170.523 14.1252 170.489 14.5462 170.358 14.9102C170.24 15.2382 169.875 15.0872 169.628 15.0752C169.213 15.0552 168.986 14.8092 169.056 14.3702C169.097 14.1052 169.163 13.8442 169.241 13.4702Z" fill="#FCEEF1"/>
<path d="M161.263 44.0202C160.888 44.2012 160.604 44.2272 160.417 43.9542C160.257 43.7212 160.401 43.5012 160.585 43.3282C160.642 43.2742 160.71 43.2182 160.782 43.1962C161.158 43.0782 160.991 42.2142 161.687 42.5432C161.826 42.6092 162.07 42.6712 161.989 42.8322C161.767 43.2712 161.477 43.6782 161.263 44.0202Z" fill="#FDF4F6"/>
<path d="M74.6407 169.417C74.3087 169.608 73.9737 169.711 73.7837 169.236C73.6217 168.83 73.6877 168.384 74.0647 168.202C74.4407 168.021 74.8337 168.244 75.0537 168.622C75.3157 169.073 74.9947 169.256 74.6407 169.417Z" fill="#FBEEF1"/>
<path d="M200.236 152.801C201.165 152.692 201.803 152.002 202.596 151.621C202.596 151.913 202.343 151.98 202.164 152.123C201.902 152.333 201.648 152.553 202.141 152.823C202.492 153.016 202.262 153.096 202.04 153.127C201.884 153.149 201.73 153.142 201.66 153.329C201.387 154.05 201.031 153.879 200.912 153.305C200.813 152.83 200.434 152.993 200.236 152.801Z" fill="#FDF4F6"/>
<path d="M82.1918 67.4492C83.0698 67.1012 83.4298 67.2572 83.6928 68.0932C83.7608 68.3102 83.8348 68.5262 83.9068 68.7422C82.7988 69.0232 82.5878 68.1132 82.1918 67.4492Z" fill="#FBEBEE"/>
<path d="M169.32 28.5842C169.418 28.8032 169.289 29.1982 168.909 29.3902C168.469 29.6132 168.094 29.2352 167.953 28.9202C167.798 28.5742 168.131 28.2422 168.476 28.1322C168.728 28.0522 169.105 27.9082 169.32 28.5842Z" fill="#FCF0F2"/>
<path d="M142.825 115.762C143.425 116.266 143.735 116.916 143.786 117.693C143.738 117.629 143.702 117.526 143.641 117.508C142.205 117.095 142.205 117.096 142.825 115.762Z" fill="#FCF3F6"/>
<path d="M186.066 47.7581C186.442 47.7351 186.878 47.7281 187.023 48.1861C187.107 48.4521 187.159 48.8741 186.722 48.9681C186.364 49.0451 185.959 48.9761 185.811 48.6041C185.705 48.3391 185.66 47.9691 186.066 47.7581Z" fill="#FDF3F5"/>
<path d="M109.965 60.9452C109.625 61.0382 109.462 60.8232 109.342 60.5602C109.156 60.1522 109.239 59.7502 109.571 59.4942C109.833 59.2922 110.134 59.4782 110.237 59.7602C110.394 60.1872 110.365 60.6162 109.965 60.9452Z" fill="#FCEFF2"/>
<path d="M203.215 25.1402C203.147 24.4622 203.526 24.0912 203.557 23.6252C203.573 23.3812 203.827 23.2582 204.09 23.2732C204.25 23.2822 204.407 23.3322 204.48 23.4852C204.601 23.7362 204.506 24.0192 204.295 24.0872C203.806 24.2452 203.78 24.8402 203.215 25.1402Z" fill="#FCF2F4"/>
<path d="M192.648 69.4883C192.819 69.8993 192.666 70.1853 192.301 70.3633C192.076 70.4743 191.75 70.7533 191.609 70.3753C191.483 70.0353 191.43 69.5743 191.833 69.3043C192.147 69.0943 192.428 69.2063 192.648 69.4883Z" fill="#FCF2F5"/>
<path d="M178.688 2.51309C178.795 1.89409 178.353 1.29409 179.206 1.15409C179.484 1.10809 179.818 1.14709 179.837 1.52109C179.871 2.23309 179.302 2.25309 178.688 2.51309Z" fill="#FBEEF1"/>
<path d="M160.489 36.6123C160.154 36.6993 159.868 36.6203 159.743 36.2703C159.619 35.9263 159.782 35.6733 160.093 35.5083C160.467 35.3103 160.682 35.4823 160.801 35.8273C160.917 36.1623 160.826 36.4333 160.489 36.6123Z" fill="#FCF2F4"/>
<path d="M95.0738 50.8181C95.0248 51.3001 94.3248 51.3421 94.3698 51.9491C94.3938 52.2701 94.1248 52.0641 93.9908 51.9351C93.7198 51.6711 93.4888 51.9091 93.2458 51.9971C93.2008 51.5221 93.2368 51.1231 93.8938 51.3111C94.0098 50.4811 94.6938 51.0151 95.0738 50.8181Z" fill="#FCF3F5"/>
<path d="M56.5037 66.2281C56.6407 65.9011 56.7507 65.6481 56.8517 65.3921C56.9437 65.1581 57.0527 64.9461 57.3577 65.0101C57.5617 65.0531 57.7197 65.1711 57.7827 65.3821C57.8597 65.6371 57.7827 65.8551 57.5907 66.0251C57.2957 66.2851 56.9417 66.2921 56.5037 66.2281Z" fill="#FDF5F7"/>
<path d="M187.115 33.0002C187.437 32.8882 187.778 32.8582 187.881 33.2552C187.952 33.5312 188.022 33.9252 187.601 34.0472C187.284 34.1392 186.922 34.0802 186.782 33.7692C186.65 33.4732 186.729 33.1402 187.115 33.0002Z" fill="#FCF2F4"/>
<path d="M0.396751 115.839C0.405751 115.918 0.385749 116.039 0.427749 116.068C1.27775 116.65 1.27975 116.648 0.718749 117.557C0.625749 116.982 -0.619249 116.623 0.396751 115.839Z" fill="#FDF5F7"/>
<path d="M101.62 49.4231C100.509 49.9741 100.509 49.9741 99.5807 49.1021C99.6347 49.0121 99.6898 48.9211 99.7438 48.8311C100.287 49.2881 101.037 49.0891 101.62 49.4231Z" fill="#FEF8F5"/>
<path d="M164.135 36.6322C163.809 36.6542 163.467 36.6152 163.3 36.3152C163.138 36.0242 163.314 35.7602 163.606 35.6512C163.955 35.5212 164.242 35.6502 164.366 36.0122C164.449 36.2572 164.382 36.4822 164.135 36.6322Z" fill="#FCF2F4"/>
<path d="M86.1848 127.206C85.9008 126.756 85.6918 126.441 85.5008 126.115C85.4198 125.977 85.3928 125.81 85.5558 125.7C85.7068 125.598 85.8898 125.644 85.9908 125.752C86.3438 126.129 86.6578 126.534 86.1848 127.206Z" fill="#FCF0F2"/>
<path d="M0.828735 117.771C0.864735 117.842 0.902731 117.912 0.934731 117.984C1.38273 119.009 1.34173 119.061 0.086731 118.929C0.328731 118.511 0.349735 118.015 0.828735 117.771Z" fill="#FDF5F7"/>
<path d="M195.086 137.131C195.42 137.588 194.598 138.194 195.277 138.607C195.071 138.723 194.865 138.839 194.659 138.955C194.643 138.919 194.625 138.883 194.611 138.845C194.302 137.974 194.302 137.974 195.086 137.131Z" fill="#FBECEF"/>
<path d="M223.529 130.699C223.594 130.049 224.046 129.786 224.602 129.627C224.542 129.767 224.413 129.918 224.434 130.045C224.578 130.927 224.532 130.966 223.529 130.699Z" fill="#FCEFF2"/>
<path d="M133.494 51.4712C132.92 51.5712 132.37 51.7952 131.777 51.7902C131.741 51.7192 131.705 51.6472 131.669 51.5752C132.274 50.7962 132.274 50.7962 133.494 51.4712Z" fill="#FCF0F3"/>
<path d="M124.793 105.455C124.497 106.124 124.002 106.561 123.289 106.742C123.18 106.439 122.834 106.109 123.49 105.96C123.939 105.857 124.36 105.628 124.793 105.455Z" fill="#FBECEF"/>
<path d="M52.1968 162.229C52.3148 162.108 52.4807 162.092 52.6217 162.163C52.8807 162.293 53.2997 162.193 53.3597 162.614C53.3817 162.768 53.2637 162.909 53.1097 162.984C52.7267 163.171 52.5337 162.844 52.2967 162.666C52.1677 162.57 52.1278 162.405 52.1968 162.229Z" fill="#FCEEF1"/>
<path d="M33.9898 133.126C34.4888 134.075 33.5838 134.223 33.1318 134.629C32.8828 134.985 32.7808 135.472 32.2698 135.594C32.4668 135.048 32.7398 134.587 33.2488 134.233C33.6028 133.988 33.9598 133.639 33.9898 133.126Z" fill="#FBEEF1"/>
<path d="M184.268 10.2651C184.097 10.5151 183.899 10.6491 183.584 10.4841C183.407 10.3911 183.213 10.3231 183.215 10.0901C183.217 9.88809 183.303 9.71009 183.496 9.61009C183.775 9.46609 183.932 9.62309 184.054 9.84809C184.128 9.98509 184.197 10.1261 184.268 10.2651Z" fill="#FCF1F3"/>
<path d="M208.61 58.7382C208.776 59.0672 208.606 59.2322 208.404 59.3572C208.207 59.4792 207.973 59.6152 207.781 59.3642C207.588 59.1102 207.614 58.8272 207.875 58.6462C208.144 58.4582 208.384 58.6942 208.61 58.7382Z" fill="#FCEDF0"/>
<path d="M56.1397 66.4322C56.2297 66.6982 56.2217 66.9182 55.9907 66.9722C55.7337 67.0322 55.4087 67.1302 55.2217 66.8542C55.0987 66.6712 55.2447 66.4812 55.4207 66.3662C55.7007 66.1832 55.9387 66.2942 56.1397 66.4322Z" fill="#FDF5F7"/>
<path d="M82.7138 128.23C83.0008 128.276 83.3318 128.278 83.4468 128.639C83.4958 128.79 83.4238 128.996 83.2698 129.006C82.9638 129.026 82.6408 128.974 82.5238 128.617C82.4758 128.468 82.5478 128.322 82.7138 128.23Z" fill="#FBECEF"/>
<path d="M196.391 9.46428C196.533 9.72528 196.367 9.88228 196.235 10.0093C196.004 10.2313 195.796 10.0983 195.646 9.88528C195.51 9.69228 195.55 9.49628 195.756 9.38128C195.989 9.25228 196.213 9.31328 196.391 9.46428Z" fill="#FCEEF1"/>
<path d="M86.1947 172.219C86.2717 172.586 86.1167 172.787 85.8537 172.93C85.6777 173.026 85.4607 173.123 85.3407 172.91C85.2477 172.745 85.2757 172.489 85.5227 172.443C85.7507 172.402 85.8307 172.049 86.1947 172.219Z" fill="#FCEFF2"/>
<path d="M79.1618 172.283C79.4128 172.166 79.6468 172.192 79.8138 172.39C79.9348 172.533 79.8478 172.691 79.6938 172.771C79.4608 172.892 79.2228 172.858 79.0558 172.662C78.9338 172.518 79.0318 172.375 79.1618 172.283Z" fill="#FBEDF0"/>
<path d="M20.1488 81.4362C20.0828 81.6612 20.3068 82.0062 19.9068 82.1132C19.7528 82.1542 19.5578 82.0982 19.5578 81.9092C19.5568 81.6392 19.5948 81.3422 19.9058 81.2322C20.0188 81.1922 20.1098 81.3022 20.1488 81.4362Z" fill="#FBE9ED"/>
<path d="M158.916 179.801C159.003 179.918 158.978 180.043 158.866 180.097C158.644 180.204 158.385 180.208 158.189 180.076C158.036 179.973 158.103 179.795 158.267 179.706C158.502 179.579 158.721 179.623 158.916 179.801Z" fill="#FDF5F6"/>
<path d="M156.349 89.6841C155.884 89.4701 155.419 89.2551 154.954 89.0411C155.719 88.6041 156.044 89.1241 156.349 89.6841Z" fill="#FCF1F3"/>
<path d="M178.369 79.2732C177.848 78.6992 178.152 78.3352 178.262 77.9622C178.348 77.9662 178.435 77.9702 178.521 77.9742C178.477 78.3512 178.433 78.7272 178.369 79.2732Z" fill="#FBEEF1"/>
<path d="M83.8858 95.9692C84.0768 96.7962 83.5608 96.8252 83.3088 97.0892C83.2428 97.0292 83.1768 96.9702 83.1108 96.9102C83.3438 96.6282 83.5758 96.3462 83.8858 95.9692Z" fill="#FBEDF0"/>
<path d="M81.7618 65.5193C81.7828 65.5513 81.7968 65.5933 81.8258 65.6143C82.5618 66.1333 82.5618 66.1333 81.7558 66.5913C81.8528 66.2343 81.5528 65.8753 81.7618 65.5193Z" fill="#FBEBEE"/>
<path d="M154.528 89.2551C154.754 89.7201 154.406 89.8511 154.094 90.0041C153.329 89.2271 154.253 89.4291 154.528 89.2551Z" fill="#FCF1F3"/>
<path d="M55.0368 65.7272C55.0098 65.4792 55.0808 65.2653 55.2518 65.0833C55.2728 65.1173 55.3068 65.1492 55.3118 65.1852C55.3518 65.4932 55.9678 65.2502 55.8228 65.6732C55.6348 66.2242 55.2988 65.6512 55.0368 65.7272Z" fill="#FDF5F7"/>
<path d="M163.199 97.6673C163.688 97.3303 163.965 97.3983 164.347 97.6043C163.961 97.9363 163.673 97.8563 163.199 97.6673Z" fill="#FCEEF1"/>
<path d="M143.038 114.581C142.756 114.936 143.2 115.423 142.825 115.761C142.774 115.66 142.733 115.551 142.669 115.458C142.328 114.968 142.385 114.651 143.038 114.581Z" fill="#FCF3F6"/>
<path d="M83.4067 66.9791C82.8117 66.6591 82.8107 66.1621 82.9357 65.6541C82.9777 65.4811 84.5867 65.1521 84.7227 65.2721C84.7957 65.3361 84.8497 65.4781 84.8347 65.5731C84.7947 65.8271 84.5557 66.1201 84.3797 66.0011C83.4407 65.3641 83.6727 66.2901 83.4817 66.6381C83.4337 66.7271 83.4347 66.8411 83.4067 66.9791Z" fill="#FBEBEE"/>
<path d="M222.797 130.932C222.533 130.685 222.419 130.609 222.43 130.583C222.605 130.142 221.855 130.167 222.016 129.757C222.063 129.637 222.213 129.625 222.318 129.692C222.713 129.944 222.867 130.293 222.797 130.932Z" fill="#FCEFF2"/>
</svg>
