<svg width="46" height="46" viewBox="0 0 46 46" fill="none" xmlns="http://www.w3.org/2000/svg">
<path d="M41.868 39.9621L37.0419 33.7577C38.6057 33.2904 39.9566 32.2903 40.8599 30.931C41.9965 28.9665 41.4825 26.569 40.9852 24.2531C40.6846 23.0634 40.5046 21.8464 40.4483 20.6207C40.5044 19.3939 40.6843 18.1758 40.9852 16.9851C41.4793 14.6677 41.9965 12.2717 40.8599 10.3103C39.683 8.27683 37.3132 7.52417 35.0211 6.79769C33.8801 6.48332 32.7751 6.05059 31.7242 5.50652C30.7705 4.8879 29.885 4.17014 29.0823 3.36514C27.3819 1.78686 25.4539 0 23 0C20.5462 0 18.6181 1.78686 16.9169 3.36434C16.1146 4.16954 15.2293 4.8876 14.2759 5.50652C13.225 6.0495 12.1203 6.48114 10.9798 6.79452C8.68769 7.521 6.3179 8.27366 5.14094 10.3072C4.00442 12.2717 4.51835 14.6692 5.01562 16.9851C5.31631 18.1758 5.49595 19.3939 5.55176 20.6207C5.49565 21.8475 5.31581 23.0656 5.01483 24.2563C4.52073 26.5737 4.00362 28.9697 5.14014 30.931C6.04468 32.2908 7.39702 33.2906 8.96211 33.7569L4.13211 39.9613C3.86325 40.3071 3.9256 40.8054 4.2715 41.0742C4.43765 41.2034 4.64822 41.2612 4.857 41.235L10.5277 40.5268L11.9275 45.425C12.0095 45.7121 12.2459 45.9288 12.539 45.9857C12.5887 45.9951 12.6391 46 12.6897 46C12.9346 46.0002 13.1659 45.8872 13.3162 45.6939L18.381 39.1793C19.6274 40.3927 21.2645 41.1236 23 41.2414C24.7355 41.1236 26.3727 40.3927 27.6191 39.1793L32.6838 45.6915C32.8337 45.8857 33.065 45.9996 33.3104 46C33.3609 46 33.4114 45.9951 33.4611 45.9857C33.7542 45.9288 33.9906 45.7121 34.0726 45.425L35.4724 40.5276L41.1431 41.2358C41.5777 41.2904 41.9742 40.9822 42.0288 40.5476C42.0549 40.3388 41.9971 40.1283 41.868 39.9621ZM13.0228 43.4867L11.8657 39.4371C11.7581 39.0614 11.3929 38.8201 11.0051 38.8684L6.56376 39.4236L10.5443 34.3065L10.9829 34.4469C12.1224 34.7604 13.226 35.1921 14.2759 35.7349C15.2296 36.3535 16.1151 37.0712 16.9177 37.8762L17.1906 38.1284L13.0228 43.4867ZM23 39.6552C21.168 39.6552 19.627 38.2276 17.9948 36.7143C17.1068 35.8272 16.1259 35.0383 15.069 34.3612C13.9191 33.7592 12.7086 33.2807 11.458 32.9336C9.36183 32.2682 7.38145 31.6401 6.51221 30.1379C5.68263 28.7032 6.1109 26.7038 6.56535 24.5862C6.8924 23.2876 7.08434 21.9588 7.13797 20.6207C7.08463 19.2826 6.893 17.9538 6.56614 16.6552C6.11169 14.5384 5.68342 12.539 6.513 11.1034C7.38542 9.60131 9.36262 8.97317 11.4588 8.30776C12.7092 7.96058 13.9193 7.48204 15.069 6.88017C16.1256 6.20306 17.1063 5.41412 17.994 4.52703C19.627 3.01379 21.168 1.58621 23 1.58621C24.8321 1.58621 26.3731 3.01379 28.0053 4.52703C28.8933 5.41422 29.8742 6.20306 30.9311 6.88017C32.081 7.48214 33.2914 7.96068 34.5421 8.30776C36.6382 8.97317 38.6186 9.60131 39.4879 11.1034C40.3175 12.5382 39.8892 14.5376 39.4347 16.6552C39.1077 17.9538 38.9157 19.2826 38.8621 20.6207C38.9154 21.9588 39.1071 23.2876 39.4339 24.5862C39.8884 26.703 40.3167 28.7024 39.4871 30.1379C38.6147 31.6401 36.6375 32.2682 34.5413 32.9336C33.2909 33.2808 32.0808 33.7593 30.9311 34.3612C29.8745 35.0383 28.8938 35.8273 28.0061 36.7143C26.3731 38.2276 24.8321 39.6552 23 39.6552ZM34.9989 38.8684C34.6112 38.8201 34.2459 39.0614 34.1384 39.4371L32.9773 43.4867L28.8103 38.1292L29.0831 37.877C29.8855 37.0718 30.7708 36.3538 31.7242 35.7349C32.775 35.1919 33.8797 34.7602 35.0203 34.4469L35.4589 34.3065L39.4403 39.4236L34.9989 38.8684Z" fill="#F78E9B"/>
<path d="M23 6.34473C15.1156 6.34473 8.72412 12.7362 8.72412 20.6206C8.72412 28.5049 15.1156 34.8965 23 34.8965C30.8843 34.8965 37.2758 28.5049 37.2758 20.6206C37.2667 12.74 30.8806 6.35395 23 6.34473ZM23 33.3102C15.9917 33.3102 10.3103 27.6288 10.3103 20.6206C10.3103 13.6123 15.9917 7.93093 23 7.93093C30.0082 7.93093 35.6896 13.6123 35.6896 20.6206C35.6813 27.6255 30.0049 33.3019 23 33.3102Z" fill="#F78E9B"/>
<path d="M32.1508 17.3079C31.8524 16.8979 31.3762 16.6553 30.8692 16.6551H26.0138L24.5069 12.0337C24.2334 11.2015 23.337 10.7486 22.5047 11.0221C22.026 11.1794 21.6504 11.555 21.4931 12.0337L19.9902 16.6551H15.1308C14.2547 16.6547 13.5442 17.3645 13.5438 18.2405C13.5435 18.7481 13.7862 19.2251 14.1965 19.5238L18.1272 22.379L16.6258 27.0004C16.355 27.8335 16.8109 28.7284 17.644 28.9992C18.1271 29.1562 18.6561 29.0723 19.067 28.7737L23 25.9194L26.9314 28.7745C27.4852 29.186 28.243 29.186 28.7968 28.7745C29.3588 28.3751 29.5928 27.6546 29.3726 27.0012L27.8712 22.379L31.8019 19.5238C32.5102 19.0083 32.6664 18.0161 32.1508 17.3079ZM26.4722 21.4352C26.194 21.6373 26.0777 21.9957 26.1843 22.3226L27.8641 27.4921L23.4663 24.2975C23.1885 24.0957 22.8123 24.0957 22.5344 24.2975L18.1367 27.4921L19.8157 22.3226C19.9219 21.9959 19.8057 21.638 19.5278 21.436L15.1308 18.2413H20.566C20.9096 18.2413 21.214 18.0201 21.3202 17.6933L23 12.5239L24.6798 17.6925C24.786 18.0193 25.0904 18.2405 25.434 18.2405L30.8692 18.2413L26.4722 21.4352Z" fill="#F78E9B"/>
</svg>
