<svg width="113" height="16" viewBox="0 0 113 16" fill="none" xmlns="http://www.w3.org/2000/svg">
<path d="M8.37845 0.263541L10.4137 5.31475L15.6241 5.78413C15.9854 5.81685 16.1325 6.28968 15.8581 6.53858L11.906 10.1291L13.0903 15.4706C13.1724 15.8418 12.7889 16.1337 12.4784 15.9365L8.00064 13.1047L3.52284 15.9365C3.21157 16.1329 2.82883 15.8409 2.91096 15.4706L4.0953 10.1291L0.142319 6.53772C-0.132 6.28882 0.0141937 5.81599 0.376393 5.78326L5.5868 5.31389L7.62202 0.263541C7.76328 -0.0878471 8.23718 -0.0878471 8.37845 0.263541V0.263541Z" fill="#FFB932"/>
<path d="M32.3788 0.263541L34.4141 5.31475L39.6245 5.78413C39.9858 5.81685 40.1329 6.28968 39.8585 6.53858L35.9064 10.1291L37.0907 15.4706C37.1728 15.8418 36.7893 16.1337 36.4788 15.9365L32.001 13.1047L27.5232 15.9365C27.212 16.1329 26.8292 15.8409 26.9114 15.4706L28.0957 10.1291L24.1427 6.53772C23.8684 6.28882 24.0146 5.81599 24.3768 5.78326L29.5872 5.31389L31.6224 0.263541C31.7637 -0.0878471 32.2376 -0.0878471 32.3788 0.263541V0.263541Z" fill="#FFB932"/>
<path d="M56.3792 0.263541L58.4145 5.31475L63.6249 5.78413C63.9862 5.81685 64.1333 6.28968 63.8589 6.53858L59.9068 10.1291L61.0911 15.4706C61.1732 15.8418 60.7897 16.1337 60.4792 15.9365L56.0014 13.1047L51.5236 15.9365C51.2124 16.1329 50.8296 15.8409 50.9118 15.4706L52.0961 10.1291L48.1431 6.53772C47.8688 6.28882 48.015 5.81599 48.3772 5.78326L53.5876 5.31389L55.6228 0.263541C55.7641 -0.0878471 56.238 -0.0878471 56.3792 0.263541V0.263541Z" fill="#FFB932"/>
<path d="M80.3796 0.263541L82.4148 5.31475L87.6252 5.78413C87.9866 5.81685 88.1336 6.28968 87.8593 6.53858L83.9071 10.1291L85.0915 15.4706C85.1736 15.8418 84.7901 16.1337 84.4796 15.9365L80.0018 13.1047L75.524 15.9365C75.2127 16.1329 74.83 15.8409 74.9121 15.4706L76.0965 10.1291L72.1435 6.53772C71.8692 6.28882 72.0154 5.81599 72.3776 5.78326L77.588 5.31389L79.6232 0.263541C79.7644 -0.0878471 80.2383 -0.0878471 80.3796 0.263541V0.263541Z" fill="#FFB932"/>
<path d="M104.38 0.263541L106.415 5.31475L111.626 5.78413C111.987 5.81685 112.134 6.28968 111.86 6.53858L107.908 10.1291L109.092 15.4706C109.174 15.8418 108.79 16.1337 108.48 15.9365L104.002 13.1047L99.5244 15.9365C99.2132 16.1329 98.8304 15.8409 98.9126 15.4706L100.097 10.1291L96.1439 6.53772C95.8696 6.28882 96.0158 5.81599 96.378 5.78326L101.588 5.31389L103.624 0.263541C103.765 -0.0878471 104.239 -0.0878471 104.38 0.263541V0.263541Z" fill="#FFB932"/>
</svg>
