<svg width="40" height="40" viewBox="0 0 40 40" fill="none" xmlns="http://www.w3.org/2000/svg">
<path d="M30.5889 9.00539L32.2906 6.04531C32.3684 5.90997 32.3892 5.74928 32.3485 5.59858C32.3078 5.44788 32.209 5.31952 32.0736 5.24171L29.6676 3.85955C29.5322 3.78181 29.3715 3.76102 29.2208 3.80178C29.0701 3.84253 28.9417 3.94147 28.864 4.07685L27.1649 7.03391C25.633 6.37312 24.0123 5.94086 22.3548 5.75098V3.95172H23.5489C23.7051 3.95172 23.8548 3.8897 23.9652 3.7793C24.0756 3.66891 24.1376 3.51918 24.1376 3.36306V0.588654C24.1376 0.511338 24.1224 0.434772 24.0929 0.363333C24.0633 0.291895 24.0199 0.226985 23.9653 0.172314C23.9106 0.117644 23.8457 0.0742856 23.7742 0.0447187C23.7028 0.0151517 23.6262 -4.4122e-05 23.5489 9.62254e-08H17.209C17.1316 -4.4122e-05 17.0551 0.0151517 16.9836 0.0447187C16.9122 0.0742856 16.8473 0.117644 16.7926 0.172314C16.738 0.226985 16.6946 0.291895 16.665 0.363333C16.6355 0.434772 16.6203 0.511338 16.6203 0.588654V3.36306C16.6203 3.51918 16.6823 3.66891 16.7927 3.7793C16.9031 3.8897 17.0528 3.95172 17.209 3.95172H18.4031V5.7493C16.7456 5.93918 15.1249 6.37143 13.5929 7.03223L11.8939 4.07517C11.8555 4.0081 11.8041 3.94928 11.7429 3.90206C11.6817 3.85483 11.6118 3.82014 11.5372 3.79996C11.4625 3.77978 11.3847 3.77451 11.308 3.78444C11.2313 3.79438 11.1573 3.81933 11.0903 3.85787L8.68425 5.24003C8.54893 5.31784 8.45005 5.4462 8.40937 5.5969C8.36868 5.7476 8.38951 5.90829 8.46729 6.04362L10.169 9.00539C7.26099 11.1544 5.10525 14.1663 4.00881 17.612C2.91237 21.0577 2.93115 24.7615 4.06248 28.1959C5.1938 31.6303 7.37998 34.6201 10.3096 36.7396C13.2393 38.859 16.763 40 20.3789 40C23.9949 40 27.5186 38.859 30.4483 36.7396C33.3779 34.6201 35.5641 31.6303 36.6954 28.1959C37.8267 24.7615 37.8455 21.0577 36.7491 17.612C35.6526 14.1663 33.4969 11.1544 30.5889 9.00539ZM29.5915 5.17073L30.9764 5.96828L29.6148 8.33836C29.1663 8.05177 28.7051 7.78582 28.2312 7.54049L29.5915 5.17073ZM17.7976 1.17731H22.9603V2.77441H17.7976V1.17731ZM19.5804 3.95172H21.1775V5.65276C20.9128 5.64031 20.648 5.6319 20.3789 5.6319C20.1098 5.6319 19.8451 5.63998 19.5804 5.65242V3.95172ZM9.7815 5.96828L11.1663 5.17275L12.5266 7.54049C12.0524 7.78537 11.5912 8.05133 11.1431 8.33836L9.7815 5.96828ZM20.3789 38.8128C17.2141 38.8128 14.1203 37.8743 11.4889 36.116C8.85742 34.3577 6.80645 31.8586 5.59534 28.9347C4.38422 26.0107 4.06736 22.7933 4.68481 19.6893C5.30226 16.5853 6.82631 13.7341 9.06421 11.4962C11.3021 9.25834 14.1534 7.73436 17.2574 7.11697C20.3614 6.49958 23.5788 6.81652 26.5027 8.02769C29.4266 9.23887 31.9257 11.2899 33.684 13.9214C35.4422 16.5529 36.3806 19.6467 36.3806 22.8115C36.3757 27.0539 34.6882 31.1211 31.6884 34.1208C28.6885 37.1206 24.6213 38.808 20.3789 38.8128Z" fill="#F78E9B"/>
<path d="M31.9534 29.4341C33.1176 27.4081 33.7272 25.1111 33.7208 22.7745C33.7144 20.438 33.0923 18.1443 31.9171 16.1248C31.9093 16.1046 31.9003 16.085 31.8902 16.0659C31.8797 16.0502 31.8685 16.0351 31.8565 16.0205C30.6984 14.0721 29.0661 12.4484 27.1116 11.3005C27.0956 11.2873 27.0787 11.275 27.0612 11.2638C27.0421 11.2539 27.0224 11.2452 27.0023 11.2376C24.9765 10.0734 22.6797 9.4637 20.3432 9.47002C18.0067 9.47634 15.7131 10.0984 13.6937 11.2736C13.6732 11.2817 13.6533 11.2909 13.6338 11.3012C13.6183 11.3116 13.6034 11.3228 13.5891 11.3348C11.6404 12.4929 10.0164 14.1252 8.86808 16.0797C8.84018 16.1115 8.81891 16.1486 8.80551 16.1887C7.64134 18.2146 7.03173 20.5115 7.0381 22.848C7.04448 25.1846 7.66663 27.4782 8.84184 29.4976C8.8497 29.5179 8.85869 29.5376 8.86875 29.5568C8.87615 29.5696 8.88725 29.579 8.89532 29.5905C10.0536 31.5435 11.6881 33.1711 13.6459 34.3212C13.6624 34.3346 13.6796 34.3471 13.6974 34.3586C13.7122 34.367 13.7283 34.3703 13.7435 34.3777C15.7729 35.5467 18.0752 36.1587 20.4172 36.1521C22.7592 36.1454 25.0579 35.5202 27.0807 34.3397C27.0951 34.3327 27.1106 34.3296 27.1248 34.3212C27.1389 34.3128 27.1544 34.2994 27.1695 34.2876C29.1226 33.1269 30.7495 31.4901 31.8982 29.5299C31.9073 29.5168 31.9187 29.5071 31.9268 29.4929C31.937 29.4739 31.9459 29.4543 31.9534 29.4341ZM27.0272 32.9902L26.2707 31.7009C26.1917 31.5662 26.0625 31.4683 25.9114 31.4289C25.7604 31.3895 25.5998 31.4117 25.4651 31.4907C25.3304 31.5696 25.2325 31.6988 25.1931 31.8499C25.1537 32.001 25.1759 32.1616 25.2549 32.2963L26.0124 33.5886C24.451 34.4093 22.7287 34.878 20.9668 34.9617V33.4598C20.9668 33.3037 20.9047 33.1539 20.7943 33.0435C20.684 32.9331 20.5342 32.8711 20.3781 32.8711C20.222 32.8711 20.0723 32.9331 19.9619 33.0435C19.8515 33.1539 19.7895 33.3037 19.7895 33.4598V34.9617C18.051 34.8783 16.3512 34.42 14.8064 33.6182L15.5565 32.3222C15.6323 32.1872 15.6518 32.0278 15.6109 31.8786C15.57 31.7293 15.472 31.6021 15.338 31.5246C15.2041 31.4471 15.045 31.4254 14.8952 31.4643C14.7454 31.5032 14.6169 31.5996 14.5377 31.7325L13.7885 33.0272C12.3574 32.1003 11.1353 30.885 10.2005 29.459L11.4911 28.7028C11.6251 28.6235 11.7222 28.4944 11.7612 28.3437C11.8002 28.193 11.778 28.033 11.6993 27.8987C11.6206 27.7643 11.4919 27.6666 11.3414 27.627C11.1909 27.5873 11.0307 27.6089 10.8961 27.6869L9.60373 28.4445C8.7829 26.8831 8.3141 25.1608 8.23031 23.3989H9.73222C9.88834 23.3989 10.0381 23.3368 10.1485 23.2264C10.2589 23.116 10.3209 22.9663 10.3209 22.8102C10.3209 22.6541 10.2589 22.5043 10.1485 22.394C10.0381 22.2836 9.88834 22.2215 9.73222 22.2215H8.23031C8.31331 20.4827 8.77126 18.7824 9.57278 17.2372L10.8692 17.9869C11.004 18.0611 11.1626 18.0795 11.3109 18.0382C11.4592 17.9969 11.5854 17.8991 11.6624 17.7659C11.7395 17.6327 11.7613 17.4745 11.7232 17.3254C11.6851 17.1762 11.5901 17.048 11.4585 16.9681L10.1641 16.219C11.091 14.7883 12.306 13.5667 13.7317 12.6322L14.4882 13.9229C14.5675 14.0568 14.6966 14.154 14.8473 14.193C14.998 14.232 15.158 14.2097 15.2923 14.131C15.4267 14.0524 15.5244 13.9237 15.564 13.7731C15.6037 13.6226 15.5821 13.4625 15.5041 13.3278L14.7465 12.0355C16.3079 11.2146 18.0301 10.7459 19.7921 10.6624V12.164C19.7921 12.3201 19.8542 12.4698 19.9646 12.5802C20.075 12.6906 20.2247 12.7526 20.3808 12.7526C20.5369 12.7526 20.6866 12.6906 20.797 12.5802C20.9074 12.4698 20.9695 12.3201 20.9695 12.164V10.6624C22.7082 10.7453 24.4085 11.2031 25.9538 12.0045L25.2024 13.3013C25.1624 13.3682 25.1362 13.4424 25.1252 13.5196C25.1141 13.5968 25.1186 13.6754 25.1382 13.7508C25.1578 13.8263 25.1922 13.8971 25.2393 13.9591C25.2865 14.0212 25.3456 14.0733 25.4131 14.1123C25.4805 14.1514 25.5551 14.1766 25.6324 14.1866C25.7097 14.1966 25.7882 14.1912 25.8634 14.1706C25.9386 14.15 26.009 14.1146 26.0704 14.0666C26.1318 14.0186 26.1831 13.9589 26.2213 13.8909L26.9704 12.5949C28.4016 13.522 29.6237 14.7375 30.5585 16.1638L29.2678 16.92C29.2007 16.9588 29.142 17.0106 29.095 17.0722C29.048 17.1339 29.0136 17.2042 28.9939 17.2792C28.9741 17.3541 28.9693 17.4322 28.9799 17.5091C28.9904 17.5859 29.016 17.6598 29.0551 17.7267C29.0943 17.7936 29.1463 17.8521 29.2082 17.8988C29.27 17.9456 29.3405 17.9796 29.4155 17.9991C29.4906 18.0185 29.5687 18.0229 29.6455 18.0121C29.7223 18.0012 29.7961 17.9753 29.8628 17.9358L31.1555 17.1783C31.9761 18.7398 32.4447 20.462 32.5286 22.2239H31.0267C30.8706 22.2239 30.7208 22.2859 30.6104 22.3963C30.5001 22.5067 30.438 22.6564 30.438 22.8126C30.438 22.9687 30.5001 23.1184 30.6104 23.2288C30.7208 23.3392 30.8706 23.4012 31.0267 23.4012H32.5286C32.4454 25.1395 31.9875 26.8394 31.1861 28.3842L29.8901 27.6341C29.7549 27.5559 29.5942 27.5346 29.4434 27.5749C29.2925 27.6152 29.1638 27.7137 29.0856 27.8489C29.0074 27.9841 28.9861 28.1447 29.0264 28.2956C29.0667 28.4465 29.1653 28.5751 29.3004 28.6533L30.5948 29.4024C29.6681 30.8335 28.453 32.0554 27.0272 32.9902Z" fill="#F78E9B"/>
<path d="M29.2568 22.8116C29.2568 22.6555 29.1948 22.5057 29.0844 22.3954C28.974 22.285 28.8243 22.2229 28.6682 22.2229H23.0003C22.8879 21.7267 22.6373 21.2723 22.2775 20.9125C21.9177 20.5527 21.4635 20.302 20.9672 20.1896V14.522C20.9672 14.3659 20.9052 14.2162 20.7948 14.1058C20.6844 13.9954 20.5347 13.9333 20.3786 13.9333C20.2224 13.9333 20.0727 13.9954 19.9623 14.1058C19.8519 14.2162 19.7899 14.3659 19.7899 14.522V20.1896C19.3203 20.2947 18.8875 20.5241 18.5367 20.8536C18.186 21.1832 17.9302 21.6009 17.796 22.0631C17.6618 22.5253 17.6541 23.015 17.7739 23.4812C17.8936 23.9473 18.1362 24.3728 18.4765 24.7131C18.8168 25.0535 19.2423 25.2962 19.7084 25.416C20.1746 25.5357 20.6643 25.5281 21.1265 25.394C21.5887 25.2598 22.0064 25.0041 22.336 24.6534C22.6656 24.3027 22.895 23.8699 23.0003 23.4002H28.6682C28.8242 23.4002 28.9739 23.3381 29.0843 23.2277C29.1947 23.1174 29.2567 22.9677 29.2568 22.8116ZM20.3786 24.3229C20.0795 24.323 19.7872 24.2344 19.5386 24.0683C19.29 23.9022 19.0961 23.6661 18.9817 23.3899C18.8672 23.1137 18.8373 22.8097 18.8956 22.5164C18.9539 22.2232 19.0979 21.9538 19.3093 21.7423C19.5207 21.5309 19.7901 21.3869 20.0834 21.3286C20.3767 21.2703 20.6806 21.3003 20.9569 21.4147C21.2331 21.5292 21.4692 21.723 21.6353 21.9716C21.8013 22.2203 21.8899 22.5126 21.8899 22.8116C21.8893 23.2122 21.7298 23.5963 21.4465 23.8796C21.1632 24.1629 20.7792 24.3223 20.3786 24.3229Z" fill="#F78E9B"/>
</svg>
