<svg width="30" height="30" viewBox="0 0 30 30" fill="none" xmlns="http://www.w3.org/2000/svg">
<g clip-path="url(#clip0_1_853)">
<path d="M15.0001 1.29449C23.1485 1.29449 30.0001 6.88785 30.0001 14.0723C30.0001 18.0633 27.8473 21.7676 24.1832 24.1798L26.5855 27.0626C27.2085 27.8102 26.4952 28.9308 25.5477 28.6657L18.0915 26.5785C8.8786 28.22 6.10352e-05 22.293 6.10352e-05 14.0723C6.10352e-05 6.87883 6.86279 1.29449 15.0001 1.29449ZM17.9484 24.571C18.1008 24.5416 18.2578 24.5481 18.4072 24.5899L22.9908 25.873L21.9017 24.5661C21.4998 24.0839 21.637 23.3539 22.1866 23.0505C25.8268 21.0411 28 17.6847 28 14.0723C28 8.12946 22.1682 3.29453 15 3.29453C7.83176 3.29453 1.99998 8.1294 1.99998 14.0723C2.00004 21.0432 9.85834 26.1294 17.9484 24.571Z" fill="white"/>
<path d="M14.9918 8.11783C15.6491 8.11783 16.1621 8.4705 16.1621 9.0957C16.1621 11.0033 15.9377 13.7446 15.9377 15.6523C15.9378 16.1493 15.5049 16.3577 14.9919 16.3577C14.6072 16.3577 14.0621 16.1493 14.0621 15.6523C14.0621 13.7446 13.8376 11.0034 13.8376 9.0957C13.8376 8.4705 14.3667 8.11783 14.9918 8.11783Z" fill="white"/>
<path d="M14.9759 17.4638C15.6813 17.4638 16.2103 18.025 16.2103 18.6982C16.2103 19.3554 15.6813 19.9326 14.9759 19.9326C14.3187 19.9326 13.7576 19.3555 13.7576 18.6982C13.7576 18.025 14.3187 17.4638 14.9759 17.4638Z" fill="white"/>
</g>
<defs>
<clipPath id="clip0_1_853">
<rect width="30" height="30" fill="white" transform="matrix(-1 0 0 1 30.0001 0)"/>
</clipPath>
</defs>
</svg>
