<svg width="46" height="46" viewBox="0 0 46 46" fill="none" xmlns="http://www.w3.org/2000/svg">
<g clip-path="url(#clip0_12_811)">
<path d="M33.9488 32.9712H34.5C40.8483 32.9641 45.9928 27.8195 46 21.4712C45.9962 18.5089 43.5956 16.1084 40.6333 16.1046H38.2298C38.295 15.0864 38.3333 14.0637 38.3333 13.0379C38.3333 12.6145 37.9901 12.2712 37.5667 12.2712H0.766676C0.343284 12.2712 9.35034e-06 12.6145 9.35034e-06 13.0379C-0.00574065 22.194 2.6406 31.1558 7.61914 38.8401L7.79087 39.1046H0.766676C0.343284 39.1046 9.35034e-06 39.4478 9.35034e-06 39.8712C0.00250102 41.9872 1.71734 43.7021 3.83334 43.7046H34.5C36.616 43.7021 38.3308 41.9872 38.3333 39.8712C38.3333 39.4478 37.9901 39.1046 37.5667 39.1046H30.5425L30.7142 38.8401C31.9288 36.9621 33.0096 35.001 33.9488 32.9712ZM38.1049 17.6379H40.6333C42.7493 17.6404 44.4642 19.3552 44.4667 21.4712C44.4592 26.9218 40.0781 31.3572 34.628 31.4318C34.8458 30.9135 35.0543 30.3917 35.2536 29.8662C39.5982 29.4728 42.9273 25.8337 42.9333 21.4712C42.9333 20.201 41.9036 19.1712 40.6333 19.1712H37.9301C37.9971 18.6602 38.0553 18.1491 38.1049 17.6379ZM37.7054 20.7046H40.6333C41.0567 20.7046 41.4 21.0478 41.4 21.4712C41.3956 24.7643 39.0677 27.5966 35.8378 28.2386C36.6656 25.7826 37.2902 23.2628 37.7054 20.7046ZM36.6689 40.6379C36.3428 41.5562 35.4744 42.1701 34.5 42.1712H3.83334C2.85891 42.1701 1.99056 41.5562 1.66444 40.6379H36.6689ZM29.4262 38.0075L28.7163 39.1046H9.61707L8.90714 38.0075C4.23048 30.7903 1.67738 22.4034 1.53948 13.8046H36.7939C36.656 22.4035 34.1029 30.7903 29.4262 38.0075Z" fill="#B487CA"/>
<path d="M20.0557 6.64574C19.9146 6.50449 19.7598 6.3776 19.5938 6.26672C18.9042 5.80787 18.7173 4.87704 19.1761 4.18752C19.2309 4.10511 19.2938 4.02834 19.3638 3.95829L19.7088 3.61329C20.0133 3.31918 20.0217 2.83378 19.7276 2.52922C19.4335 2.22467 18.9481 2.21623 18.6436 2.51034C18.6371 2.51648 18.6309 2.5228 18.6247 2.52922L18.2797 2.87422C17.0947 4.05815 17.0938 5.97846 18.2778 7.16344C18.4188 7.30469 18.5736 7.43158 18.7397 7.54246C19.4292 8.00131 19.6162 8.93214 19.1573 9.62166C19.1025 9.70407 19.0396 9.78084 18.9697 9.85089L18.6247 10.1959C18.3201 10.49 18.3117 10.9754 18.6058 11.28C18.8999 11.5845 19.3853 11.5929 19.6899 11.2988C19.6963 11.2927 19.7025 11.2864 19.7088 11.28L20.0538 10.935C21.2387 9.75103 21.2396 7.83072 20.0557 6.64574Z" fill="#B487CA"/>
<path d="M24.6556 6.64598C24.5145 6.50472 24.3598 6.37783 24.1937 6.26695C23.5042 5.8081 23.3172 4.87728 23.776 4.18776C23.8309 4.10534 23.8937 4.02858 23.9637 3.95852L24.3087 3.61352C24.6132 3.31931 24.6217 2.83401 24.3275 2.52946C24.0333 2.2249 23.548 2.21646 23.2434 2.51067C23.237 2.51681 23.2307 2.52313 23.2246 2.52946L22.8796 2.87446C21.6946 4.05838 21.6939 5.97869 22.8777 7.16367C23.0188 7.30493 23.1735 7.43181 23.3396 7.54269C24.0291 8.00154 24.2161 8.93237 23.7573 9.62189C23.7024 9.70431 23.6396 9.78107 23.5696 9.85112L23.2246 10.1961C22.9201 10.4903 22.9116 10.9756 23.2058 11.2802C23.5 11.5847 23.9853 11.5932 24.2899 11.299C24.2963 11.2928 24.3025 11.2865 24.3087 11.2802L24.6537 10.9352C25.8387 9.75126 25.8395 7.83096 24.6556 6.64598Z" fill="#B487CA"/>
<path d="M15.4557 6.64574C15.3146 6.50449 15.1598 6.3776 14.9938 6.26672C14.3042 5.80787 14.1173 4.87704 14.5761 4.18752C14.6309 4.10511 14.6938 4.02834 14.7638 3.95829L15.1088 3.61329C15.4133 3.31918 15.4218 2.83378 15.1276 2.52922C14.8335 2.22467 14.3481 2.21623 14.0436 2.51034C14.0372 2.51648 14.0309 2.5228 14.0247 2.52922L13.6797 2.87422C12.4947 4.05815 12.4939 5.97846 13.6778 7.16344C13.8189 7.30469 13.9736 7.43158 14.1397 7.54246C14.8292 8.00131 15.0162 8.93214 14.5573 9.62166C14.5025 9.70407 14.4397 9.78084 14.3697 9.85089L14.0247 10.1959C13.7201 10.49 13.7117 10.9754 14.0058 11.28C14.2999 11.5845 14.7853 11.5929 15.0899 11.2988C15.0963 11.2927 15.1025 11.2864 15.1088 11.28L15.4538 10.935C16.6387 9.75103 16.6396 7.83072 15.4557 6.64574Z" fill="#B487CA"/>
<path d="M7.4152 28.8606H7.41674C6.55999 26.6545 5.87459 24.3855 5.36667 22.074C5.28665 21.6582 4.88463 21.386 4.46891 21.4661C4.05308 21.5462 3.78092 21.9482 3.86103 22.3639C3.86353 22.3767 3.86631 22.3895 3.86937 22.4021C4.3932 24.7909 5.10064 27.1357 5.98537 29.4156C6.09989 29.7104 6.38366 29.9047 6.69991 29.9048C7.1233 29.9051 7.46686 29.5622 7.46724 29.1388C7.46724 29.0436 7.4497 28.9493 7.4152 28.8606Z" fill="#B487CA"/>
<path d="M9.11951 32.7153C8.98151 32.4378 8.84609 32.1585 8.71317 31.8774C8.54058 31.4908 8.08719 31.3172 7.7005 31.4899C7.31391 31.6625 7.14035 32.1159 7.31304 32.5026C7.31745 32.5126 7.32215 32.5224 7.32704 32.5322C7.4635 32.822 7.60332 33.1103 7.7464 33.397C7.94305 33.772 8.40651 33.9165 8.7815 33.7198C9.14462 33.5293 9.29364 33.0867 9.11951 32.7153Z" fill="#B487CA"/>
</g>
<defs>
<clipPath id="clip0_12_811">
<rect width="46" height="46" fill="white"/>
</clipPath>
</defs>
</svg>
