<svg width="18" height="18" viewBox="0 0 18 18" fill="none" xmlns="http://www.w3.org/2000/svg">
<path d="M15.3631 2.63508C11.8478 -0.879104 6.14932 -0.87826 2.63514 2.63701C-0.879043 6.15229 -0.878199 11.8508 2.63707 15.3649C6.15235 18.8791 11.8508 18.8783 15.365 15.363C17.0527 13.6748 18.0006 11.3852 18.0001 8.99808C17.9996 6.61132 17.051 4.32251 15.3631 2.63508ZM13.6303 12.5369C13.6299 12.5373 13.6295 12.5377 13.6291 12.5381V12.5351L13.173 12.9881C12.5833 13.5853 11.7244 13.831 10.908 13.6361C10.0856 13.416 9.30368 13.0655 8.59205 12.5981C7.9309 12.1756 7.3182 11.6816 6.76505 11.1251C6.25609 10.6199 5.79885 10.0651 5.40004 9.4691C4.96382 8.82778 4.61855 8.12916 4.37404 7.39309C4.09374 6.52839 4.32602 5.57956 4.97405 4.9421L5.50804 4.40811C5.6565 4.25898 5.89775 4.25845 6.04684 4.40692C6.04723 4.40731 6.04765 4.40769 6.04804 4.40811L7.73403 6.0941C7.88316 6.24257 7.88369 6.48381 7.73522 6.63291C7.73484 6.6333 7.73445 6.63368 7.73403 6.6341L6.74403 7.6241C6.45997 7.90507 6.42425 8.35156 6.66004 8.67412C7.01811 9.16553 7.41435 9.62794 7.84505 10.0571C8.32525 10.5394 8.84729 10.9781 9.40504 11.3681C9.72732 11.5929 10.1642 11.555 10.443 11.2781L11.4 10.3061C11.5485 10.157 11.7897 10.1565 11.9388 10.3049C11.9392 10.3053 11.9396 10.3057 11.94 10.3061L13.629 11.9981C13.7782 12.1466 13.7787 12.3878 13.6303 12.5369Z" fill="#F895A1"/>
</svg>
