<svg width="20" height="20" viewBox="0 0 20 20" fill="none" xmlns="http://www.w3.org/2000/svg">
<g clip-path="url(#clip0_1_937)">
<path d="M14.6978 11.3349C17.2882 8.74534 17.2882 4.53178 14.6978 1.94221C12.1074 -0.647403 7.8926 -0.647403 5.30217 1.94221C2.71178 4.53178 2.71178 8.74534 5.30217 11.3349C6.39865 12.431 7.78619 13.063 9.21834 13.2312V15.4548H7.65514C7.22346 15.4548 6.87354 15.8046 6.87354 16.2362C6.87354 16.6677 7.22346 17.0175 7.65514 17.0175H9.21834V19.2186C9.21838 19.6502 9.5683 20 10 20C10.4317 20 10.7816 19.6502 10.7816 19.2186V17.0175H12.3449C12.7765 17.0175 13.1265 16.6677 13.1265 16.2362C13.1265 15.8046 12.7765 15.4548 12.3449 15.4548H10.7816V13.2313C12.2138 13.063 13.6013 12.431 14.6978 11.3349ZM6.40756 10.2299C4.42666 8.2496 4.42666 5.02748 6.40756 3.04721C8.38842 1.06701 11.6115 1.0669 13.5925 3.04721C15.5734 5.02748 15.5734 8.2496 13.5925 10.2299C11.6116 12.2101 8.38846 12.2101 6.40756 10.2299Z" fill="#E56BAE"/>
</g>
<defs>
<clipPath id="clip0_1_937">
<rect width="20" height="20" fill="white"/>
</clipPath>
</defs>
</svg>
