<svg width="278" height="278" viewBox="0 0 278 278" fill="none" xmlns="http://www.w3.org/2000/svg">
<circle cx="136" cy="137" r="66" fill="#ECEFF4"/>
<path d="M74.847 77.9916C72.9172 76.7706 70.7915 77.2523 69.3345 78.9762C67.6176 81.0076 67.8051 83.7894 70.3188 85.9139C72.8286 88.0352 75.5905 87.7788 77.3235 85.7284C78.8864 83.8793 78.7269 81.6419 77.4252 80.1707L76.2174 81.5843C76.9778 82.533 76.8614 83.7105 76.0752 84.6408C75.0097 85.9014 73.3004 86.006 71.5158 84.4976C69.7616 83.015 69.5431 81.2941 70.6182 80.0221C71.4173 79.0766 72.5785 78.7887 73.6468 79.4117L74.847 77.9916Z" fill="#293951"/>
<path d="M75.1436 72.8323L81.8242 80.516L83.1598 79.3547L78.5604 74.0647L78.6317 74.0027L85.335 77.424L86.333 76.5563L83.8865 69.4537L83.9578 69.3917L88.5474 74.6705L89.883 73.5092L83.2025 65.8255L81.4991 67.3065L84.0589 74.8575L83.9688 74.9357L76.8469 71.3514L75.1436 72.8323Z" fill="#293951"/>
<path d="M96.9066 62.9953C95.1459 60.2147 92.4117 59.6511 90.1561 61.0793C87.8963 62.5102 87.2408 65.2202 89.0015 68.0008C90.7595 70.7772 93.4922 71.3477 95.752 69.9168C98.0076 68.4886 98.6673 65.776 96.9066 62.9953ZM95.3399 63.9874C96.5793 65.9448 96.2693 67.6298 94.8663 68.5181C93.4676 69.4038 91.8076 68.9661 90.5683 67.0087C89.3289 65.0514 89.6431 63.3637 91.0418 62.478C92.4447 61.5897 94.1005 62.03 95.3399 63.9874Z" fill="#293951"/>
<path d="M97.0165 58.9717L99.8763 57.6581L103.481 65.5055L105.143 64.7418L101.539 56.8944L104.399 55.5809L103.753 54.1758L96.3711 57.5667L97.0165 58.9717Z" fill="#293951"/>
<path d="M110.652 62.4233L112.409 61.8616L111.361 58.5847L113.217 57.9912C115.457 57.275 116.23 55.5456 115.633 53.6798C115.041 51.8283 113.418 50.8492 111.188 51.5623L107.551 52.7251L110.652 62.4233ZM110.899 57.1403L109.777 53.6314L111.387 53.1166C112.704 52.6957 113.513 53.2198 113.843 54.2521C114.173 55.2845 113.826 56.2047 112.519 56.6226L110.899 57.1403Z" fill="#293951"/>
<path d="M120.459 59.5506L126.997 58.2735L126.701 56.756L121.973 57.6795L121.44 54.952L125.792 54.1018L125.496 52.5844L121.143 53.4345L120.614 50.7215L125.303 49.8057L125.006 48.2882L118.507 49.5576L120.459 59.5506Z" fill="#293951"/>
<path d="M127.861 49.4356L131 49.2176L131.598 57.8325L133.423 57.7058L132.825 49.0909L135.965 48.8729L135.858 47.3304L127.754 47.8931L127.861 49.4356Z" fill="#293951"/>
<path d="M141.433 51.3052L141.662 47.3793L139.816 47.2713L139.221 57.4358L143.028 57.6585C145.366 57.7953 146.836 56.5815 146.946 54.7104C147.055 52.8443 145.731 51.5566 143.393 51.4199L141.433 51.3052ZM141.345 52.804L143.305 52.9187C144.536 52.9907 145.176 53.7254 145.125 54.584C145.073 55.4773 144.347 56.2217 143.116 56.1497L141.156 56.035L141.345 52.804Z" fill="#293951"/>
<path d="M154.268 58.9631L158.268 59.9565C160.531 60.5185 161.927 59.641 162.309 58.1018C162.68 56.606 161.837 55.4643 160.798 55.1499L160.822 55.0534C161.844 55.0663 162.774 54.5802 163.072 53.3788C163.438 51.9071 162.647 50.553 160.505 50.021L156.722 49.0815L154.268 58.9631ZM156.429 57.9119L157.148 55.0169L159.122 55.507C160.227 55.7815 160.744 56.6271 160.525 57.5101C160.329 58.2966 159.652 58.7124 158.354 58.3901L156.429 57.9119ZM157.468 53.7286L158.145 51.0025L159.955 51.4519C161.006 51.7131 161.414 52.4034 161.225 53.1658C161.009 54.0343 160.17 54.3997 159.239 54.1684L157.468 53.7286Z" fill="#293951"/>
<path d="M168.882 52.4516L165.114 61.9106L166.639 62.5177L173.662 57.85L173.741 57.8813L171.174 64.3243L172.888 65.0069L176.655 55.5478L175.122 54.937L168.101 59.6112L168.018 59.5781L170.586 53.1304L168.882 52.4516Z" fill="#293951"/>
<path d="M173.514 68.0597L175.053 68.9339L176.266 66.7985L181.907 70.0032L180.699 72.13L182.238 73.0043L184.19 69.5677L183.204 69.0078L187.49 61.4646L181.831 58.25L179.471 61.8609C177.973 64.166 176.934 64.8167 176.063 64.9509L175.471 64.6144L173.514 68.0597ZM177.931 66.0118C178.841 65.5057 179.873 64.485 181.01 62.7352L182.511 60.4146L185.187 61.9347L181.665 68.1335L177.931 66.0118Z" fill="#293951"/>
<path d="M185.428 72.4346L190.741 76.454L191.674 75.221L187.832 72.3144L189.509 70.0981L193.045 72.7737L193.978 71.5407L190.441 68.865L192.109 66.6606L195.919 69.5432L196.852 68.3102L191.571 64.3148L185.428 72.4346Z" fill="#293951"/>
<path d="M202.713 80.857C205.015 78.5053 204.936 75.7147 203.028 73.847C201.117 71.9759 198.329 71.9598 196.027 74.3116C193.728 76.6598 193.8 79.4504 195.711 81.3216C197.619 83.1892 200.41 83.2088 202.713 80.857ZM201.387 79.5598C199.767 81.2153 198.056 81.3002 196.869 80.1386C195.686 78.9804 195.731 77.2643 197.352 75.6088C198.973 73.9533 200.687 73.8719 201.87 75.03C203.057 76.1916 203.008 77.9043 201.387 79.5598Z" fill="#293951"/>
<path d="M212.793 94.5575C215.512 92.7039 215.983 89.9522 214.48 87.7461C212.973 85.536 210.243 84.9724 207.523 86.8261C204.807 88.6769 204.33 91.4273 205.836 93.6374C207.34 95.8435 210.073 96.4111 212.793 94.5575ZM211.748 93.0252C209.834 94.33 208.139 94.0771 207.204 92.705C206.272 91.337 206.653 89.6632 208.567 88.3584C210.482 87.0536 212.179 87.3106 213.112 88.6786C214.047 90.0507 213.663 91.7204 211.748 93.0252Z" fill="#293951"/>
<path d="M211.212 102.404L211.408 102.861C212.346 105.05 214.082 105.025 217.214 103.84L220.691 102.524L221.93 105.417L213.965 108.829L214.675 110.488L224.034 106.478L221.407 100.346L217.058 102.025C214.36 103.062 213.266 103.109 212.747 102.06L212.619 101.801L211.212 102.404Z" fill="#293951"/>
<path d="M215.757 113.86L218.402 113.983L219.448 117.665L217.263 119.164L217.801 121.058L226.615 114.824L225.993 112.634L215.22 111.966L215.757 113.86ZM219.963 114.056L224.285 114.261L224.307 114.337L220.737 116.782L219.963 114.056Z" fill="#293951"/>
<path d="M218.465 126.15C218.805 128.301 220.285 129.673 221.983 129.4C223.241 129.206 224.021 128.278 223.999 126.836L224.078 126.824C224.486 127.877 225.412 128.481 226.54 128.298C228.073 128.061 229.119 126.557 228.802 124.548C228.494 122.594 227.091 121.265 225.401 121.492L225.677 123.245C226.527 123.141 227.176 123.844 227.323 124.772C227.471 125.71 226.999 126.423 226.154 126.552C225.276 126.695 224.577 126.061 224.412 125.02L224.272 124.131L222.867 124.353L223.008 125.241C223.209 126.513 222.689 127.37 221.78 127.509C220.892 127.654 220.162 126.979 219.992 125.904C219.832 124.892 220.234 124.028 221.047 123.855L220.756 122.008C219.065 122.326 218.13 124.028 218.465 126.15Z" fill="#293951"/>
<path d="M219.396 132.75L219.663 139.407L221.208 139.345L221.015 134.531L223.792 134.42L223.97 138.851L225.515 138.789L225.337 134.357L228.098 134.246L228.29 139.02L229.835 138.958L229.569 132.341L219.396 132.75Z" fill="#293951"/>
<path d="M219.589 141.432L219.448 143.271L222.878 143.535L222.728 145.478C222.548 147.823 223.859 149.19 225.812 149.341C227.75 149.49 229.269 148.355 229.448 146.02L229.741 142.213L219.589 141.432ZM224.39 143.651L228.063 143.934L227.933 145.619C227.827 146.997 227.037 147.55 225.956 147.467C224.876 147.384 224.154 146.715 224.259 145.347L224.39 143.651Z" fill="#293951"/>
<path d="M218.566 151.609L217.275 158.145L218.792 158.444L219.725 153.718L222.452 154.256L221.593 158.607L223.109 158.907L223.969 154.556L226.681 155.091L225.755 159.779L227.272 160.078L228.555 153.582L218.566 151.609Z" fill="#293951"/>
<path d="M224.735 168.795L215.32 164.919L214.646 166.556L221.129 169.224L221.093 169.311L213.567 169.257L213.063 170.48L218.433 175.733L218.397 175.82L211.929 173.158L211.255 174.795L220.671 178.67L221.53 176.583L215.858 170.979L215.903 170.869L223.876 170.882L224.735 168.795Z" fill="#293951"/>
<path d="M209.808 177.196L206.429 182.937L207.761 183.722L210.205 179.57L212.6 180.98L210.351 184.802L211.683 185.586L213.933 181.764L216.315 183.166L213.891 187.284L215.224 188.068L218.583 182.361L209.808 177.196Z" fill="#293951"/>
<path d="M203.137 187.446C201.246 189.906 201.647 192.534 204.169 194.473C206.684 196.406 209.319 196.111 211.167 193.707L213.312 190.916L205.24 184.711L203.137 187.446ZM205.381 187.146L210.923 191.406L209.965 192.651C208.705 194.291 207.133 194.443 205.284 193.022C203.428 191.595 203.163 190.031 204.457 188.348L205.381 187.146Z" fill="#293951"/>
<path d="M205.068 200.935L206.323 199.583L198.858 192.659L197.604 194.011L205.068 200.935Z" fill="#293951"/>
<path d="M191.637 206.552C193.815 209.02 196.604 209.144 198.605 207.377C200.61 205.606 200.829 202.827 198.65 200.36C196.475 197.896 193.687 197.765 191.682 199.535C189.681 201.302 189.458 204.085 191.637 206.552ZM193.027 205.325C191.493 203.588 191.533 201.875 192.778 200.776C194.019 199.681 195.727 199.85 197.26 201.587C198.794 203.324 198.75 205.04 197.509 206.136C196.265 207.235 194.56 207.062 193.027 205.325Z" fill="#293951"/>
<path d="M186.484 212.861L185.013 213.855C186.006 215.26 187.903 215.448 189.699 214.234C191.47 213.037 192.126 211.141 191.114 209.652C190.295 208.442 188.964 208.327 187.334 208.908L186.207 209.309C185.141 209.694 184.347 209.816 183.9 209.164C183.417 208.441 183.775 207.497 184.772 206.823C185.727 206.177 186.758 206.104 187.419 206.948L188.922 205.931C187.727 204.297 185.841 204.197 183.877 205.526C181.855 206.893 181.363 208.695 182.364 210.185C183.357 211.644 185.015 211.496 186.486 210.939L187.411 210.602C188.214 210.299 189.161 210.084 189.629 210.794C190.054 211.431 189.8 212.281 188.845 212.927C187.935 213.542 187.046 213.525 186.484 212.861Z" fill="#293951"/>
<path d="M183.461 216.289L180.657 217.718L176.736 210.024L175.106 210.855L179.027 218.549L176.223 219.978L176.925 221.355L184.163 217.667L183.461 216.289Z" fill="#293951"/>
<path d="M168.473 213.885L168.525 216.532L164.919 217.817L163.28 215.736L161.425 216.397L168.225 224.783L170.37 224.018L170.328 213.224L168.473 213.885ZM168.554 218.094L168.634 222.42L168.559 222.447L165.885 219.046L168.554 218.094Z" fill="#293951"/>
<path d="M160.019 216.741L158.22 217.148L159.041 220.785L157.208 221.198L154.438 218.001L152.43 218.454L155.467 221.907C154.404 222.642 154.014 223.78 154.318 225.128C154.746 227.024 156.257 228.029 158.537 227.514L162.261 226.673L160.019 216.741ZM159.378 222.278L160.123 225.576L158.474 225.948C157.13 226.251 156.39 225.771 156.151 224.714C155.913 223.657 156.386 222.954 157.72 222.653L159.378 222.278Z" fill="#293951"/>
<path d="M137.282 229.839L139.115 229.772L138.862 222.836L138.951 222.833L143.994 229.593L145.644 229.533L145.271 219.358L143.428 219.425L143.682 226.356L143.597 226.359L138.549 219.604L136.91 219.664L137.282 229.839Z" fill="#293951"/>
<path d="M133.916 219.473L127.282 218.864L127.141 220.404L131.938 220.844L131.684 223.611L127.268 223.206L127.127 224.746L131.543 225.151L131.291 227.904L126.533 227.467L126.392 229.007L132.986 229.612L133.916 219.473Z" fill="#293951"/>
<path d="M122.037 228.286L124.102 228.734L122.077 223.085L126.299 218.792L124.22 218.341L121.219 221.48L121.141 221.463L119.711 217.363L117.622 216.91L119.657 222.56L115.512 226.871L117.567 227.316L120.559 224.15L120.636 224.167L122.037 228.286Z" fill="#293951"/>
<path d="M113.121 224.656L110.156 223.603L113.045 215.465L111.321 214.853L108.431 222.991L105.466 221.938L104.948 223.395L112.604 226.113L113.121 224.656Z" fill="#293951"/>
<path d="M101.194 210.515L99.5971 209.592L97.8748 212.57L96.1877 211.594C94.1521 210.417 92.3521 211.007 91.3715 212.703C90.3983 214.386 90.7642 216.245 92.7913 217.418L96.0965 219.329L101.194 210.515ZM97.1157 213.883L95.2714 217.072L93.8081 216.225C92.6117 215.534 92.4557 214.582 92.9983 213.644C93.5408 212.705 94.456 212.344 95.6438 213.031L97.1157 213.883Z" fill="#293951"/>
<path d="M92.7799 205.462L91.3047 204.355L89.0665 207.337L87.5635 206.209L88.2032 202.027L86.557 200.791L85.8953 205.342C84.6475 205.009 83.5278 205.449 82.6982 206.554C81.5313 208.109 81.7455 209.911 83.6143 211.313L86.6681 213.605L92.7799 205.462ZM88.1474 208.562L86.1181 211.265L84.7661 210.251C83.6647 209.424 83.5506 208.549 84.2012 207.682C84.8518 206.815 85.694 206.72 86.7875 207.541L88.1474 208.562Z" fill="#293951"/>
<path d="M75.222 197.081C72.9377 199.45 73.038 202.24 74.96 204.093C76.8856 205.949 79.6737 205.944 81.958 203.575C84.2388 201.209 84.1456 198.419 82.22 196.562C80.298 194.71 77.5063 194.711 75.222 197.081ZM76.557 198.368C78.165 196.7 79.8755 196.602 81.071 197.754C82.2628 198.903 82.2309 200.62 80.623 202.288C79.015 203.956 77.3009 204.05 76.109 202.901C74.9136 201.749 74.9491 200.036 76.557 198.368Z" fill="#293951"/>
</svg>
