<svg width="20" height="12" viewBox="0 0 20 12" fill="none" xmlns="http://www.w3.org/2000/svg">
<path d="M19.967 10.5805C19.991 10.7125 19.99 10.8305 19.962 10.9345C19.934 11.0385 19.847 11.1345 19.702 11.2205C19.556 11.3075 19.351 11.3505 19.088 11.3505L16.422 11.3925C16.255 11.4275 16.061 11.4095 15.839 11.3405C15.617 11.2715 15.436 11.1945 15.297 11.1115L15.089 10.9865C14.881 10.8405 14.638 10.6185 14.36 10.3205C14.082 10.0225 13.845 9.75352 13.647 9.51352C13.449 9.27452 13.237 9.07252 13.012 8.90952C12.786 8.74652 12.59 8.69252 12.423 8.74752C12.402 8.75452 12.375 8.76652 12.34 8.78352C12.305 8.80052 12.246 8.85152 12.163 8.93452C12.08 9.01752 12.005 9.12051 11.939 9.24152C11.873 9.36351 11.814 9.54352 11.762 9.78252C11.71 10.0215 11.687 10.2905 11.694 10.5895C11.694 10.6935 11.682 10.7895 11.658 10.8755C11.634 10.9625 11.608 11.0265 11.58 11.0675L11.539 11.1195C11.414 11.2515 11.23 11.3275 10.987 11.3485H9.788C9.295 11.3765 8.788 11.3185 8.268 11.1765C7.747 11.0345 7.291 10.8505 6.899 10.6245C6.507 10.3985 6.149 10.1695 5.826 9.93652C5.503 9.70752 5.259 9.50752 5.092 9.34152L4.832 9.09152C4.762 9.02152 4.667 8.91752 4.545 8.77852C4.424 8.63952 4.175 8.32351 3.801 7.83051C3.426 7.33851 3.058 6.81452 2.697 6.25851C2.336 5.70352 1.911 4.97151 1.421 4.06151C0.932 3.15251 0.479 2.20852 0.063 1.22952C0.021 1.11852 0 1.02452 0 0.948515C0 0.872515 0.011 0.816515 0.031 0.781515L0.073 0.719515C0.177 0.587515 0.375 0.521515 0.667 0.521515L3.52 0.500515C3.603 0.514515 3.683 0.536515 3.76 0.568515C3.836 0.599515 3.891 0.628515 3.926 0.656515L3.978 0.687515C4.089 0.763515 4.172 0.874515 4.228 1.02052C4.367 1.36852 4.526 1.72751 4.707 2.09951C4.887 2.47052 5.03 2.75352 5.134 2.94752L5.3 3.24952C5.501 3.66652 5.696 4.02652 5.883 4.33252C6.071 4.63752 6.239 4.87551 6.388 5.04552C6.537 5.21552 6.681 5.34951 6.82 5.44652C6.959 5.54352 7.077 5.59251 7.174 5.59251C7.271 5.59251 7.365 5.57451 7.455 5.54051C7.47 5.53351 7.487 5.51651 7.508 5.48851C7.529 5.46052 7.57 5.38452 7.633 5.25952C7.695 5.13452 7.742 4.97152 7.774 4.77051C7.805 4.56951 7.838 4.28852 7.873 3.92752C7.908 3.56651 7.908 3.13251 7.873 2.62551C7.859 2.34752 7.828 2.09452 7.779 1.86552C7.73 1.63552 7.682 1.47652 7.633 1.38552L7.57 1.26052C7.397 1.02452 7.102 0.875515 6.685 0.813515C6.595 0.799515 6.612 0.716515 6.737 0.563515C6.855 0.431515 6.987 0.327515 7.133 0.251515C7.501 0.0705151 8.331 -0.0124849 9.622 0.00151509C10.191 0.00851509 10.66 0.0535151 11.028 0.136515C11.167 0.171515 11.283 0.218515 11.377 0.277515C11.471 0.336515 11.542 0.419515 11.59 0.527515C11.638 0.635515 11.675 0.746515 11.699 0.860515C11.723 0.975515 11.735 1.13252 11.735 1.33452C11.735 1.53652 11.732 1.72652 11.725 1.90752C11.718 2.08752 11.709 2.33252 11.699 2.64152C11.689 2.95052 11.684 3.23652 11.684 3.50051C11.684 3.57651 11.681 3.72252 11.674 3.93752C11.667 4.15251 11.665 4.31952 11.669 4.43752C11.673 4.55552 11.685 4.69552 11.705 4.85952C11.726 5.02252 11.766 5.15851 11.825 5.26551C11.884 5.37351 11.962 5.45852 12.059 5.52051C12.115 5.53451 12.174 5.54852 12.236 5.56252C12.298 5.57652 12.389 5.53852 12.507 5.44752C12.625 5.35751 12.757 5.23752 12.903 5.08852C13.049 4.93952 13.229 4.70651 13.444 4.39051C13.659 4.07451 13.895 3.70152 14.152 3.27152C14.569 2.54952 14.94 1.76852 15.266 0.928515C15.294 0.859515 15.328 0.798515 15.37 0.746515C15.412 0.694515 15.45 0.657515 15.485 0.637515L15.526 0.606515L15.578 0.580515C15.578 0.580515 15.623 0.570515 15.713 0.549515C15.803 0.528515 15.873 0.527515 15.921 0.544515L18.92 0.523515C19.191 0.488515 19.413 0.497515 19.587 0.549515C19.761 0.599515 19.868 0.657515 19.91 0.719515L19.972 0.823515C20.132 1.26752 19.611 2.28852 18.41 3.88452C18.243 4.10651 18.018 4.40152 17.733 4.76952C17.192 5.46352 16.879 5.91851 16.796 6.13351C16.678 6.41851 16.726 6.69952 16.942 6.97752C17.06 7.12352 17.341 7.40851 17.785 7.83151H17.796L17.806 7.84152L17.816 7.85152L17.837 7.87252C18.816 8.78152 19.479 9.54952 19.826 10.1735C19.847 10.2085 19.87 10.2515 19.894 10.3035C19.918 10.3565 19.942 10.4485 19.967 10.5805Z" fill="white"/>
</svg>
