<svg width="40" height="40" viewBox="0 0 40 40" fill="none" xmlns="http://www.w3.org/2000/svg">
<path fill-rule="evenodd" clip-rule="evenodd" d="M7.33365 4.66652V0.666624C7.33365 0.298508 7.03514 0 6.66702 0C6.29883 0 6.0004 0.298508 6.0004 0.666624V4.66652C6.0004 5.03472 6.29883 5.33315 6.66702 5.33315C7.03514 5.33322 7.33365 5.03472 7.33365 4.66652ZM36.6663 1.99996H35.9997C35.8229 1.99988 35.6533 2.07011 35.5282 2.19519C35.4032 2.32018 35.333 2.48979 35.333 2.66666V4.66661C35.333 5.77112 34.4375 6.66656 33.333 6.66656C32.2285 6.66656 31.3331 5.77112 31.3331 4.66661V2.66666C31.3331 2.48987 31.2629 2.32026 31.1378 2.19519C31.0128 2.07019 30.8432 1.99996 30.6663 1.99996H9.33361C9.15682 1.99988 8.98721 2.07011 8.86214 2.19519C8.73714 2.32018 8.66691 2.48979 8.66691 2.66666V4.66661C8.66691 5.77112 7.77146 6.66656 6.66696 6.66656C5.56246 6.66656 4.66701 5.77112 4.66701 4.66661V2.66666C4.66709 2.48987 4.59686 2.32026 4.47178 2.19519C4.34678 2.07019 4.17718 1.99996 4.00031 1.99996H3.33368C1.49373 2.00215 0.00267601 3.4932 0.000488281 5.33324V30.666C0.00267601 32.506 1.49373 33.9971 3.33376 33.9992H16.5833C19.5126 38.7423 25.2027 41.0071 30.5901 39.5744C35.9775 38.1417 39.7908 33.3495 39.977 27.7779C39.9878 27.7414 39.9954 27.704 39.9996 27.6661V5.33324C39.9974 3.4932 38.5062 2.00215 36.6663 1.99996ZM35.0789 17.3329C33.586 16.1687 31.8499 15.3557 29.9997 14.9543V11.3331H38.6662V17.3329H35.0789ZM14.9548 24.666H11.3336V18.6662H18.1211C16.5384 20.3401 15.4435 22.4148 14.9548 24.666ZM19.3334 11.3331V17.3329H11.3336V11.3331H19.3334ZM10.0002 17.3329H1.33381V11.3331H10.0002V17.3329ZM1.33381 18.6662H10.0002V24.666H1.33381V18.6662ZM20.6667 11.3331H28.6665V14.738C28.2236 14.6908 27.7785 14.6669 27.3332 14.6664C24.9752 14.6675 22.6651 15.3316 20.6667 16.5829V11.3331ZM3.33376 3.33329V4.66661C3.33376 6.5075 4.82615 7.99989 6.66704 7.99989C8.50793 7.99989 10.0003 6.5075 10.0003 4.66661V3.33329H29.9998V4.66661C29.9998 6.5075 31.4922 7.99989 33.3331 7.99989C35.174 7.99989 36.6664 6.5075 36.6664 4.66661V3.33329C37.7704 3.33446 38.6651 4.2292 38.6663 5.33324V9.99976H1.33381V5.33324C1.33499 4.2292 2.22973 3.33446 3.33376 3.33329ZM1.33381 30.6659V25.9994H10.0002V32.6658H3.33376C2.22973 32.6647 1.33499 31.7699 1.33381 30.6659ZM11.3336 32.6658V25.9994H14.7385C14.6913 26.4422 14.6674 26.8873 14.6668 27.3327C14.6687 29.1765 15.0763 30.9972 15.8605 32.6659L11.3336 32.6658ZM27.3332 38.6657C21.0741 38.6657 16.0001 33.5917 16.0001 27.3326C16.0001 21.0736 21.0741 15.9996 27.3332 15.9996C33.5922 15.9996 38.6662 21.0736 38.6662 27.3327C38.6592 33.5889 33.5893 38.6587 27.3332 38.6657ZM36.5452 18.6662H38.6661V21.7099C38.1119 20.597 37.3974 19.5716 36.5452 18.6662ZM33.9996 0.666624V4.66652C33.9996 5.03472 33.7012 5.33322 33.333 5.33315C32.9649 5.33315 32.6664 5.03472 32.6664 4.66652V0.666624C32.6664 0.298508 32.9648 0 33.333 0C33.7011 0 33.9996 0.298429 33.9996 0.666624ZM27.3331 17.3329C21.8104 17.3329 17.3334 21.81 17.3334 27.3327C17.3334 32.8553 21.8104 37.3324 27.3331 37.3324C32.8558 37.3324 37.3328 32.8553 37.3328 27.3327C37.3267 21.8125 32.8533 17.339 27.3331 17.3329ZM27.3331 35.9991C22.5467 35.9991 18.6667 32.119 18.6667 27.3327C18.6667 22.5464 22.5468 18.6662 27.3331 18.6662C32.1194 18.6662 35.9995 22.5463 35.9995 27.3327C35.9941 32.1168 32.1172 35.9937 27.3331 35.9991ZM23.855 22.35H30.335C30.725 22.35 30.845 22.485 30.845 22.86V23.385C30.845 23.685 30.815 23.805 30.695 24.105L26.9 32.55C26.735 32.94 26.6 33 25.955 33H25.13C24.755 33 24.725 32.805 24.875 32.49L28.685 24.105H23.855C23.48 24.105 23.345 23.97 23.345 23.595V22.86C23.345 22.485 23.48 22.35 23.855 22.35Z" fill="#F78E9B"/>
</svg>
