<svg width="40" height="40" viewBox="0 0 40 40" fill="none" xmlns="http://www.w3.org/2000/svg">
<path d="M36.6667 4H33.3333V2.66667C33.3333 1.95942 33.0524 1.28115 32.5523 0.781048C32.0522 0.280952 31.3739 0 30.6667 0C29.9594 0 29.2811 0.280952 28.781 0.781048C28.2809 1.28115 28 1.95942 28 2.66667V4H22.6667V2.66667C22.6667 1.95942 22.3857 1.28115 21.8856 0.781048C21.3855 0.280952 20.7072 0 20 0C19.2928 0 18.6145 0.280952 18.1144 0.781048C17.6143 1.28115 17.3333 1.95942 17.3333 2.66667V4H12V2.66667C12 1.95942 11.719 1.28115 11.2189 0.781048C10.7189 0.280952 10.0406 0 9.33333 0C8.62609 0 7.94781 0.280952 7.44771 0.781048C6.94762 1.28115 6.66667 1.95942 6.66667 2.66667V4H3.33333C2.44928 4 1.60143 4.35119 0.976311 4.97631C0.351189 5.60143 0 6.44928 0 7.33333V34C0 34.884 0.351189 35.7319 0.976311 36.357C1.60143 36.9821 2.44928 37.3333 3.33333 37.3333H22C22.1768 37.3333 22.3464 37.2631 22.4714 37.1381C22.5964 37.013 22.6667 36.8435 22.6667 36.6667C22.6667 36.4898 22.5964 36.3203 22.4714 36.1953C22.3464 36.0702 22.1768 36 22 36H3.33333C2.80339 35.9984 2.2956 35.7872 1.92087 35.4125C1.54614 35.0377 1.33492 34.5299 1.33333 34V13.3333H38.6667V24.6667C38.6667 24.8435 38.7369 25.013 38.8619 25.1381C38.9869 25.2631 39.1565 25.3333 39.3333 25.3333C39.5101 25.3333 39.6797 25.2631 39.8047 25.1381C39.9298 25.013 40 24.8435 40 24.6667V7.33333C40 6.44928 39.6488 5.60143 39.0237 4.97631C38.3986 4.35119 37.5507 4 36.6667 4ZM29.3333 2.66667C29.3333 2.31304 29.4738 1.97391 29.7239 1.72386C29.9739 1.47381 30.313 1.33333 30.6667 1.33333C31.0203 1.33333 31.3594 1.47381 31.6095 1.72386C31.8595 1.97391 32 2.31304 32 2.66667V6.66667C32 7.02029 31.8595 7.35943 31.6095 7.60947C31.3594 7.85952 31.0203 8 30.6667 8C30.313 8 29.9739 7.85952 29.7239 7.60947C29.4738 7.35943 29.3333 7.02029 29.3333 6.66667V2.66667ZM18.6667 2.66667C18.6667 2.31304 18.8071 1.97391 19.0572 1.72386C19.3072 1.47381 19.6464 1.33333 20 1.33333C20.3536 1.33333 20.6928 1.47381 20.9428 1.72386C21.1929 1.97391 21.3333 2.31304 21.3333 2.66667V6.66667C21.3333 7.02029 21.1929 7.35943 20.9428 7.60947C20.6928 7.85952 20.3536 8 20 8C19.6464 8 19.3072 7.85952 19.0572 7.60947C18.8071 7.35943 18.6667 7.02029 18.6667 6.66667V2.66667ZM8 2.66667C8 2.31304 8.14048 1.97391 8.39052 1.72386C8.64057 1.47381 8.97971 1.33333 9.33333 1.33333C9.68695 1.33333 10.0261 1.47381 10.2761 1.72386C10.5262 1.97391 10.6667 2.31304 10.6667 2.66667V6.66667C10.6667 7.02029 10.5262 7.35943 10.2761 7.60947C10.0261 7.85952 9.68695 8 9.33333 8C8.97971 8 8.64057 7.85952 8.39052 7.60947C8.14048 7.35943 8 7.02029 8 6.66667V2.66667ZM38.6667 12H1.33333V7.33333C1.33492 6.80339 1.54614 6.2956 1.92087 5.92087C2.2956 5.54614 2.80339 5.33492 3.33333 5.33333H6.66667V6.66667C6.66667 7.37391 6.94762 8.05219 7.44771 8.55228C7.94781 9.05238 8.62609 9.33333 9.33333 9.33333C10.0406 9.33333 10.7189 9.05238 11.2189 8.55228C11.719 8.05219 12 7.37391 12 6.66667V5.33333H17.3333V6.66667C17.3333 7.37391 17.6143 8.05219 18.1144 8.55228C18.6145 9.05238 19.2928 9.33333 20 9.33333C20.7072 9.33333 21.3855 9.05238 21.8856 8.55228C22.3857 8.05219 22.6667 7.37391 22.6667 6.66667V5.33333H28V6.66667C28 7.37391 28.2809 8.05219 28.781 8.55228C29.2811 9.05238 29.9594 9.33333 30.6667 9.33333C31.3739 9.33333 32.0522 9.05238 32.5523 8.55228C33.0524 8.05219 33.3333 7.37391 33.3333 6.66667V5.33333H36.6667C37.1966 5.33492 37.7044 5.54614 38.0791 5.92087C38.4539 6.2956 38.6651 6.80339 38.6667 7.33333V12Z" fill="#F78E9B"/>
<path d="M18.6666 18.0001C18.6666 17.6465 18.5261 17.3073 18.2761 17.0573C18.026 16.8072 17.6869 16.6667 17.3333 16.6667H14.6666C14.313 16.6667 13.9738 16.8072 13.7238 17.0573C13.4737 17.3073 13.3333 17.6465 13.3333 18.0001V20.0001C13.3333 20.3537 13.4737 20.6928 13.7238 20.9429C13.9738 21.1929 14.313 21.3334 14.6666 21.3334H17.3333C17.6869 21.3334 18.026 21.1929 18.2761 20.9429C18.5261 20.6928 18.6666 20.3537 18.6666 20.0001V18.0001ZM14.6666 20.0001V18.0001H17.3333V20.0001H14.6666Z" fill="#F78E9B"/>
<path d="M10.6667 18.0001C10.6667 17.6465 10.5262 17.3073 10.2762 17.0573C10.0261 16.8072 9.687 16.6667 9.33337 16.6667H6.66671C6.31309 16.6667 5.97395 16.8072 5.7239 17.0573C5.47385 17.3073 5.33337 17.6465 5.33337 18.0001V20.0001C5.33337 20.3537 5.47385 20.6928 5.7239 20.9429C5.97395 21.1929 6.31309 21.3334 6.66671 21.3334H9.33337C9.687 21.3334 10.0261 21.1929 10.2762 20.9429C10.5262 20.6928 10.6667 20.3537 10.6667 20.0001V18.0001ZM6.66671 20.0001V18.0001H9.33337V20.0001H6.66671Z" fill="#F78E9B"/>
<path d="M33.3332 21.3334C33.6869 21.3334 34.026 21.1929 34.2761 20.9429C34.5261 20.6928 34.6666 20.3537 34.6666 20.0001V18.0001C34.6666 17.6465 34.5261 17.3073 34.2761 17.0573C34.026 16.8072 33.6869 16.6667 33.3332 16.6667H30.6666C30.313 16.6667 29.9738 16.8072 29.7238 17.0573C29.4737 17.3073 29.3333 17.6465 29.3333 18.0001V20.0001C29.3333 20.3537 29.4737 20.6928 29.7238 20.9429C29.9738 21.1929 30.313 21.3334 30.6666 21.3334H33.3332ZM30.6666 18.0001H33.3332V20.0001H30.6666V18.0001Z" fill="#F78E9B"/>
<path d="M18.6666 24.0001C18.6666 23.6465 18.5261 23.3073 18.2761 23.0573C18.026 22.8072 17.6869 22.6667 17.3333 22.6667H14.6666C14.313 22.6667 13.9738 22.8072 13.7238 23.0573C13.4737 23.3073 13.3333 23.6465 13.3333 24.0001V26.0001C13.3333 26.3537 13.4737 26.6928 13.7238 26.9429C13.9738 27.1929 14.313 27.3334 14.6666 27.3334H17.3333C17.6869 27.3334 18.026 27.1929 18.2761 26.9429C18.5261 26.6928 18.6666 26.3537 18.6666 26.0001V24.0001ZM14.6666 26.0001V24.0001H17.3333V26.0001H14.6666Z" fill="#F78E9B"/>
<path d="M10.6667 24.0001C10.6667 23.6465 10.5262 23.3073 10.2762 23.0573C10.0261 22.8072 9.687 22.6667 9.33337 22.6667H6.66671C6.31309 22.6667 5.97395 22.8072 5.7239 23.0573C5.47385 23.3073 5.33337 23.6465 5.33337 24.0001V26.0001C5.33337 26.3537 5.47385 26.6928 5.7239 26.9429C5.97395 27.1929 6.31309 27.3334 6.66671 27.3334H9.33337C9.687 27.3334 10.0261 27.1929 10.2762 26.9429C10.5262 26.6928 10.6667 26.3537 10.6667 26.0001V24.0001ZM6.66671 26.0001V24.0001H9.33337V26.0001H6.66671Z" fill="#F78E9B"/>
<path d="M17.3333 28.6667H14.6666C14.313 28.6667 13.9738 28.8072 13.7238 29.0573C13.4737 29.3073 13.3333 29.6465 13.3333 30.0001V32.0001C13.3333 32.3537 13.4737 32.6928 13.7238 32.9429C13.9738 33.1929 14.313 33.3334 14.6666 33.3334H17.3333C17.6869 33.3334 18.026 33.1929 18.2761 32.9429C18.5261 32.6928 18.6666 32.3537 18.6666 32.0001V30.0001C18.6666 29.6465 18.5261 29.3073 18.2761 29.0573C18.026 28.8072 17.6869 28.6667 17.3333 28.6667ZM14.6666 32.0001V30.0001H17.3333V32.0001H14.6666Z" fill="#F78E9B"/>
<path d="M22.6666 21.3334H25.3332C25.6869 21.3334 26.026 21.1929 26.2761 20.9429C26.5261 20.6928 26.6666 20.3537 26.6666 20.0001V18.0001C26.6666 17.6465 26.5261 17.3073 26.2761 17.0573C26.026 16.8072 25.6869 16.6667 25.3332 16.6667H22.6666C22.313 16.6667 21.9738 16.8072 21.7238 17.0573C21.4737 17.3073 21.3333 17.6465 21.3333 18.0001V20.0001C21.3333 20.3537 21.4737 20.6928 21.7238 20.9429C21.9738 21.1929 22.313 21.3334 22.6666 21.3334ZM22.6666 18.0001H25.3332V20.0001H22.6666V18.0001Z" fill="#F78E9B"/>
<path d="M21.3333 26.0001C21.3333 26.3537 21.4737 26.6928 21.7238 26.9429C21.9738 27.1929 22.313 27.3334 22.6666 27.3334C22.8434 27.3334 23.013 27.2632 23.138 27.1382C23.263 27.0131 23.3333 26.8436 23.3333 26.6667C23.3333 26.4899 23.263 26.3204 23.138 26.1953C23.013 26.0703 22.8434 26.0001 22.6666 26.0001V24.0001H25.3333C25.5101 24.0001 25.6796 23.9298 25.8047 23.8048C25.9297 23.6798 25.9999 23.5102 25.9999 23.3334C25.9999 23.1566 25.9297 22.987 25.8047 22.862C25.6796 22.737 25.5101 22.6667 25.3333 22.6667H22.6666C22.313 22.6667 21.9738 22.8072 21.7238 23.0573C21.4737 23.3073 21.3333 23.6465 21.3333 24.0001V26.0001Z" fill="#F78E9B"/>
<path d="M9.33337 28.6667H6.66671C6.31309 28.6667 5.97395 28.8072 5.7239 29.0573C5.47385 29.3073 5.33337 29.6465 5.33337 30.0001V32.0001C5.33337 32.3537 5.47385 32.6928 5.7239 32.9429C5.97395 33.1929 6.31309 33.3334 6.66671 33.3334H9.33337C9.687 33.3334 10.0261 33.1929 10.2762 32.9429C10.5262 32.6928 10.6667 32.3537 10.6667 32.0001V30.0001C10.6667 29.6465 10.5262 29.3073 10.2762 29.0573C10.0261 28.8072 9.687 28.6667 9.33337 28.6667ZM6.66671 32.0001V30.0001H9.33337V32.0001H6.66671Z" fill="#F78E9B"/>
<path d="M31.3334 22.6667C29.6193 22.6667 27.9437 23.175 26.5185 24.1273C25.0932 25.0796 23.9824 26.4332 23.3265 28.0168C22.6705 29.6004 22.4989 31.343 22.8333 33.0242C23.1677 34.7054 23.9931 36.2496 25.2052 37.4617C26.4172 38.6737 27.9615 39.4991 29.6426 39.8335C31.3238 40.1679 33.0664 39.9963 34.65 39.3404C36.2336 38.6844 37.5872 37.5736 38.5395 36.1483C39.4918 34.7231 40.0001 33.0475 40.0001 31.3334C39.9974 29.0357 39.0835 26.8328 37.4587 25.2081C35.834 23.5833 33.6311 22.6694 31.3334 22.6667ZM31.3334 38.6667C29.883 38.6667 28.4652 38.2366 27.2592 37.4308C26.0533 36.625 25.1133 35.4797 24.5583 34.1398C24.0033 32.7998 23.858 31.3253 24.141 29.9027C24.4239 28.4802 25.1224 27.1735 26.148 26.148C27.1735 25.1224 28.4802 24.4239 29.9028 24.141C31.3253 23.858 32.7998 24.0033 34.1398 24.5583C35.4797 25.1133 36.625 26.0533 37.4308 27.2592C38.2366 28.4652 38.6667 29.883 38.6667 31.3334C38.6644 33.2776 37.8911 35.1416 36.5163 36.5163C35.1416 37.8911 33.2776 38.6644 31.3334 38.6667Z" fill="#F78E9B"/>
<path d="M35.1852 28.5387L29.9998 33.724L27.6432 31.3667C27.5174 31.2453 27.349 31.1781 27.1742 31.1796C26.9994 31.1811 26.8322 31.2512 26.7086 31.3748C26.585 31.4984 26.5149 31.6656 26.5134 31.8404C26.5119 32.0152 26.5791 32.1836 26.7005 32.3094L29.5285 35.138C29.6535 35.263 29.8231 35.3332 29.9998 35.3332C30.1766 35.3332 30.3462 35.263 30.4712 35.138L36.1278 29.4814C36.2493 29.3556 36.3165 29.1872 36.315 29.0124C36.3134 28.8376 36.2433 28.6704 36.1197 28.5468C35.9961 28.4232 35.8289 28.3531 35.6541 28.3516C35.4793 28.3501 35.3109 28.4173 35.1852 28.5387Z" fill="#F78E9B"/>
</svg>
