<svg width="46" height="38" viewBox="0 0 46 38" fill="none" xmlns="http://www.w3.org/2000/svg">
<path d="M45.5603 8.77602L31.014 3.23027C30.6613 3.09586 30.2665 3.27274 30.132 3.62509C29.9976 3.9778 30.1745 4.37262 30.5272 4.50704L43.3991 9.4144L34.4884 12.812L23.2818 7.7379C22.9379 7.58208 22.5332 7.73474 22.3778 8.07832C22.2219 8.42226 22.3746 8.82691 22.7182 8.98273L32.6898 13.4977L23 17.1918L2.60091 9.4144L23 1.63695L28.027 3.55385C28.379 3.68791 28.7742 3.51138 28.909 3.15868C29.0434 2.80632 28.8665 2.4115 28.5138 2.27709L23.2436 0.267534C23.0867 0.207873 22.9133 0.207522 22.7564 0.267534L0.439743 8.77602C0.175125 8.87709 0 9.13118 0 9.4144V12.5344C0 12.8176 0.175125 13.0717 0.439743 13.1727L7.4086 15.8295V18.197C7.4086 18.5742 7.71428 18.8803 8.09155 18.8803C8.46918 18.8803 8.77486 18.5742 8.77486 18.197V16.3506L22.7564 21.6812C22.8351 21.7111 22.9175 21.7262 23 21.7262C23.0825 21.7262 23.1649 21.7111 23.2436 21.6812L33.7827 17.6632V28.4753C30.4739 30.2122 26.7636 31.1429 23 31.1429C17.8635 31.1429 12.8252 29.4113 8.77486 26.2601V20.9298C8.77486 20.5526 8.46918 20.2465 8.09155 20.2465C7.71428 20.2465 7.4086 20.5526 7.4086 20.9298V26.591C7.4086 26.7985 7.50266 26.9946 7.66444 27.1241C11.9991 30.5968 17.4455 32.5092 23 32.5092C26.7461 32.5092 30.4423 31.6381 33.7827 30.0065V32.7717C32.6817 33.0724 31.87 34.0807 31.87 35.2757C31.87 36.7069 33.0344 37.8717 34.4656 37.8717C35.8971 37.8717 37.0616 36.7069 37.0616 35.2757C37.0616 34.0807 36.2498 33.0724 35.1489 32.7717V29.285C36.2625 28.6515 37.3294 27.9306 38.3359 27.1241C38.4977 26.9946 38.5921 26.7985 38.5921 26.591V15.8291L45.5603 13.1724C45.8249 13.0717 46 12.8176 46 12.534V9.4144C46 9.13118 45.8249 8.87709 45.5603 8.77602ZM35.6953 35.2757C35.6953 35.9534 35.1436 36.5051 34.4656 36.5051C33.7879 36.5051 33.2362 35.9534 33.2362 35.2757C33.2362 34.5977 33.7879 34.046 34.4656 34.046C35.1436 34.046 35.6953 34.5977 35.6953 35.2757ZM1.36626 10.4062L22.3167 18.3939V20.0511L1.36626 12.0634V10.4062ZM23.6833 20.0511V18.3939L33.7827 14.5432V16.2008L23.6833 20.0511ZM37.2255 26.2598C36.559 26.7785 35.8652 27.2579 35.1489 27.698V17.142L37.2255 16.3503V26.2598ZM35.1489 15.6796V14.0224L44.6337 10.4062V12.0634L35.1489 15.6796Z" fill="#A98DD1"/>
</svg>
