<svg width="64" height="64" viewBox="0 0 64 64" fill="none" xmlns="http://www.w3.org/2000/svg">
<circle cx="32" cy="30" r="30" fill="#FBF1F1"/>
<g filter="url(#filter0_d_0_2702)">
<circle cx="32" cy="30" r="22" fill="white"/>
</g>
<path d="M30.1267 36.1844C29.974 36.3381 29.7656 36.4238 29.5491 36.4238C29.3327 36.4238 29.1243 36.3381 28.9716 36.1844L24.359 31.5711C23.8803 31.0924 23.8803 30.3162 24.359 29.8384L24.9366 29.2607C25.4154 28.782 26.1907 28.782 26.6694 29.2607L29.5491 32.1406L37.3306 24.359C37.8094 23.8803 38.5855 23.8803 39.0634 24.359L39.641 24.9367C40.1197 25.4154 40.1197 26.1915 39.641 26.6694L30.1267 36.1844Z" fill="url(#paint0_linear_0_2702)"/>
<defs>
<filter id="filter0_d_0_2702" x="0" y="0" width="64" height="64" filterUnits="userSpaceOnUse" color-interpolation-filters="sRGB">
<feFlood flood-opacity="0" result="BackgroundImageFix"/>
<feColorMatrix in="SourceAlpha" type="matrix" values="0 0 0 0 0 0 0 0 0 0 0 0 0 0 0 0 0 0 127 0" result="hardAlpha"/>
<feOffset dy="2"/>
<feGaussianBlur stdDeviation="5"/>
<feColorMatrix type="matrix" values="0 0 0 0 0.305882 0 0 0 0 0.498039 0 0 0 0 0.870588 0 0 0 0.2 0"/>
<feBlend mode="normal" in2="BackgroundImageFix" result="effect1_dropShadow_0_2702"/>
<feBlend mode="normal" in="SourceGraphic" in2="effect1_dropShadow_0_2702" result="shape"/>
</filter>
<linearGradient id="paint0_linear_0_2702" x1="24" y1="30.2119" x2="40" y2="30.2119" gradientUnits="userSpaceOnUse">
<stop stop-color="#E86AAD"/>
<stop offset="1" stop-color="#5CBAFE"/>
</linearGradient>
</defs>
</svg>
