<svg width="21" height="21" viewBox="0 0 21 21" fill="none" xmlns="http://www.w3.org/2000/svg">
<path d="M19.951 5.882C19.904 4.819 19.732 4.088 19.486 3.455C19.232 2.783 18.841 2.181 18.329 1.681C17.829 1.173 17.223 0.778 16.559 0.528C15.922 0.282 15.195 0.11 14.132 0.063C13.061 0.012 12.721 0 10.005 0C7.289 0 6.949 0.012 5.882 0.059C4.819 0.106 4.088 0.278 3.455 0.524C2.783 0.778 2.181 1.169 1.681 1.681C1.173 2.181 0.778 2.787 0.528 3.451C0.282 4.088 0.11 4.815 0.063 5.878C0.012 6.949 0 7.289 0 10.005C0 12.721 0.012 13.061 0.059 14.128C0.106 15.191 0.278 15.922 0.524 16.555C0.778 17.227 1.173 17.829 1.681 18.329C2.181 18.837 2.787 19.232 3.451 19.482C4.088 19.728 4.815 19.9 5.878 19.947C6.945 19.994 7.285 20.006 10.001 20.006C12.717 20.006 13.057 19.994 14.124 19.947C15.187 19.9 15.918 19.728 16.551 19.482C17.895 18.962 18.958 17.899 19.478 16.555C19.724 15.918 19.896 15.191 19.943 14.128C19.99 13.061 20.002 12.721 20.002 10.005C20.002 7.289 19.998 6.948 19.951 5.882ZM18.15 14.049C18.107 15.026 17.943 15.553 17.806 15.905C17.47 16.776 16.778 17.468 15.907 17.804C15.555 17.941 15.024 18.105 14.051 18.148C12.996 18.195 12.679 18.207 10.01 18.207C7.341 18.207 7.021 18.195 5.969 18.148C4.992 18.105 4.465 17.941 4.113 17.804C3.679 17.644 3.285 17.39 2.964 17.058C2.632 16.734 2.378 16.343 2.218 15.909C2.081 15.557 1.917 15.026 1.874 14.053C1.827 12.998 1.815 12.681 1.815 10.012C1.815 7.343 1.827 7.023 1.874 5.971C1.917 4.994 2.081 4.467 2.218 4.115C2.378 3.681 2.632 3.287 2.968 2.966C3.292 2.634 3.683 2.38 4.117 2.22C4.469 2.083 5 1.919 5.973 1.876C7.028 1.829 7.345 1.817 10.014 1.817C12.687 1.817 13.003 1.829 14.055 1.876C15.032 1.919 15.559 2.083 15.911 2.22C16.345 2.38 16.739 2.634 17.06 2.966C17.392 3.29 17.646 3.681 17.806 4.115C17.943 4.467 18.107 4.998 18.15 5.971C18.197 7.026 18.209 7.343 18.209 10.012C18.209 12.681 18.197 12.994 18.15 14.049ZM10.006 4.865C7.169 4.865 4.867 7.167 4.867 10.004C4.867 12.841 7.169 15.143 10.006 15.143C12.843 15.143 15.145 12.841 15.145 10.004C15.145 7.167 12.843 4.865 10.006 4.865ZM10.006 13.338C8.166 13.338 6.673 11.845 6.673 10.005C6.673 8.165 8.166 6.672 10.006 6.672C11.847 6.672 13.339 8.165 13.339 10.005C13.339 11.845 11.847 13.338 10.006 13.338ZM16.548 4.662C16.548 5.324 16.011 5.862 15.348 5.862C14.686 5.862 14.148 5.325 14.148 4.662C14.148 3.999 14.685 3.462 15.348 3.462C16.011 3.463 16.548 4 16.548 4.662Z" fill="white"/>
</svg>
