<svg width="16" height="17" viewBox="0 0 16 17" fill="none" xmlns="http://www.w3.org/2000/svg">
<path d="M14.5938 3.05922H12.4688V2.04734C12.4688 1.79333 12.2589 1.5874 12 1.5874C11.7411 1.5874 11.5312 1.79333 11.5312 2.04734V3.05922H8.46875V2.04734C8.46875 1.79333 8.25888 1.5874 8 1.5874C7.74112 1.5874 7.53125 1.79333 7.53125 2.04734V3.05922H4.46875V2.04734C4.46875 1.79333 4.25888 1.5874 4 1.5874C3.74112 1.5874 3.53125 1.79333 3.53125 2.04734V3.05922H1.40625C0.630844 3.05922 0 3.67821 0 4.43905V14.6191C0 15.3799 0.630844 15.9989 1.40625 15.9989H14.5938C15.3692 15.9989 16 15.3799 16 14.6191V4.43905C16 3.67821 15.3692 3.05922 14.5938 3.05922ZM1.40625 3.9791H3.53125V4.99098C3.53125 5.24499 3.74112 5.45092 4 5.45092C4.25888 5.45092 4.46875 5.24499 4.46875 4.99098V3.9791H7.53125V4.99098C7.53125 5.24499 7.74112 5.45092 8 5.45092C8.25888 5.45092 8.46875 5.24499 8.46875 4.99098V3.9791H11.5312V4.99098C11.5312 5.24499 11.7411 5.45092 12 5.45092C12.2589 5.45092 12.4688 5.24499 12.4688 4.99098V3.9791H14.5938C14.8522 3.9791 15.0625 4.18543 15.0625 4.43905V6.49346H0.9375V4.43905C0.9375 4.18543 1.14778 3.9791 1.40625 3.9791ZM14.5938 15.0791H1.40625C1.14778 15.0791 0.9375 14.8727 0.9375 14.6191V7.41334H15.0625V14.6191C15.0625 14.8727 14.8522 15.0791 14.5938 15.0791Z" fill="#586E8E"/>
</svg>
